<svg xmlns="http://www.w3.org/2000/svg" viewBox="0 0 323.11 235.57"><defs><style>.cls-1{fill:#4962ab;}</style></defs><g id="Layer_2" data-name="Layer 2"><g id="Layer_1-2" data-name="Layer 1"><path class="cls-1" d="M92.21,163.46c-.44-.59,1.76,2.54,4.3,6.12l3.3,4.65h0l0,.05-4.09-5.8C93.07,164.66,91,161.68,92.21,163.46Z"/><path class="cls-1" d="M72.85,130.68l3.57,5.84Q72.16,129.29,68,122,70.4,126.35,72.85,130.68Z"/><path class="cls-1" d="M75.51,129.5c-7-12.47-6.75-11.28-5.35-8.1s4,8.33,1.19,4.08L68,119.89q5.7,10,11.49,19.93c-.73-1.7-2.83-5.92-4.16-8.94S73.4,126.1,75.51,129.5Z"/><path class="cls-1" d="M100.67,175.6s0,0,0,0h0Z"/><path class="cls-1" d="M100.66,175.58s0,0,0,0Z"/><polygon class="cls-1" points="100.68 175.63 100.68 175.62 100.68 175.63 100.68 175.63"/><path class="cls-1" d="M92.71,158.76l1.74,3.81C95.65,165.05,96.06,165.93,92.71,158.76Z"/><path class="cls-1" d="M98.22,170.59q-1.92-4-3.77-8c-2-4.14-6-12.48,1.33,2.9C92.13,157.86,95.62,165.21,98.22,170.59Z"/><path class="cls-1" d="M96.28,166.71c-2.78-5.57-4.71-9-8.92-17.9C88,150.66,90.7,156,93,160.5S97.1,168.52,96.28,166.71Z"/><path class="cls-1" d="M61.56,103.47l-4.45-7.13,4.27,8.6C59.28,100.68,65.86,111.3,61.56,103.47Z"/><path class="cls-1" d="M100.64,175.54h0l-.3-.7c-.91-2.13-1.74-4-2.43-5.68l2.74,6.4Z"/><path class="cls-1" d="M97.92,169.17q-2-4.81-4-9.64C93.35,158.46,95.28,163,97.92,169.17Z"/><path class="cls-1" d="M79.22,130.07c2.89,6.7,5.89,13.38,9,20-3.11-6.72-6.11-13.51-9-20.32Z"/><polygon class="cls-1" points="100.56 175.34 100.58 175.38 100.55 175.31 100.56 175.34"/><path class="cls-1" d="M100.49,175.14s0,0,0,0l-.06-.17Z"/><path class="cls-1" d="M100.4,174.87l0,.09Z"/><path class="cls-1" d="M95.3,162.23l5.28,13.15-5.14-12.94Z"/><path class="cls-1" d="M95.24,162l.2.49c.19.35.36.7.44.87Z"/><path class="cls-1" d="M95.27,162.17a.14.14,0,0,0,0,.06C94.66,160.65,94.46,160.16,95.27,162.17Z"/><path class="cls-1" d="M86.51,143.74c-1.87-4.4-3.71-9-5.84-14.15s-4.55-10.87-7.79-17.42c2.24,5.41,4.29,10,6.44,14.85S83.71,137.11,86.51,143.74Z"/><path class="cls-1" d="M87.15,142.4l-1.8-3.48c1.75,4.16,4.32,10.23,6.09,14.62Q89.25,148,87.15,142.4Z"/><polygon class="cls-1" points="85.27 137.3 87.15 142.4 87.8 143.69 85.27 137.3"/><path class="cls-1" d="M98,168.05c-2.45-7.05-2.56-7.65-2.88-8.81-1.16-3.16-1.88-4.85-2-4.73C94.93,159.56,98.16,168.65,98,168.05Z"/><path class="cls-1" d="M96.19,163.65l-.33-.92C95.34,161.36,95.18,161,96.19,163.65Z"/><path class="cls-1" d="M95.88,159.12c-.28-1-.58-2-.87-3l.81,2.85Z"/><path class="cls-1" d="M92.06,151.5c-1.21-3.08.14.89,1.9,5.82a19.74,19.74,0,0,1-.81-2.81A21.08,21.08,0,0,0,92.06,151.5Z"/><path class="cls-1" d="M100.34,174.7c-.4-1.23-.82-2.52-1.25-3.86l-1.38-4.16,2.61,8,0,.09h0Z"/><path class="cls-1" d="M97.52,167.17l.26.71C99.06,171.29,98.44,169.63,97.52,167.17Z"/><path class="cls-1" d="M97.52,167.17c-1.3-3.62-2.43-6.73-3.56-9.85.44,1.31,1,3,1.9,5.41Z"/><path class="cls-1" d="M67.5,53.13c2,7.66,3.68,15.11,4.24,18.6s0,3.06-2.88-5c1.18,5.83,5.71,21.17,11,38.55S90.94,142.16,95,156.14c-1.88-6.64-3.71-12.76-5.87-21.89-1.21-4.14-2.8-8.94-4.6-14.43S80.74,108.16,79,101.2c-1.37-8.08,2.31,5.17,4.77,13.16-2.72-9.47-4.44-16.44-6.24-24.6s-3.74-17.46-7.42-31.5c.41,3.41.88,6.8,1.4,10.19C70.32,64.1,68.92,57,67.5,53.13Z"/><path class="cls-1" d="M94.23,154.69l.51,1.9c.44,1.3,1.14,3.47,2.17,6.79.56,1.82,1.15,3.75,1.8,5.89l1.1,3.68.3,1,.13.42h0v0L95.82,159c-.29-.68-.6-1.37-.92-2Z"/><path class="cls-1" d="M94.46,156.75c-2.66-8.2-4.47-14.07-6.32-20.12s-3.76-12.25-6.76-21.09c-.27,1.35,4,13.84,6.14,21-.34-2.15.36.15,1.6,4.12s3.07,9.59,4.72,14.18c.85,2.82,1.09,3.69,1.27,4.38.72,2,1.58,4.42,2.6,7.44l-.34-1v0l-.07-.21c-.69-2.06-1.1-3.31-.71-2.15l-.1-.33-2-6.16c1.19,3.35,1.39,4.22,2,6.16l.81,2.48.06.18c-.93-3-1.81-6-2.63-9.07C94,154.32,94,154.81,94.46,156.75Z"/><path class="cls-1" d="M58.91,77.83c.64,1.37,1.13,2.51,1.62,3.65A13.49,13.49,0,0,0,58.91,77.83Z"/><path class="cls-1" d="M63.62,87.13c.81,2.26,3.4,8.63,2.39,7.16-2.33-4.63-3.25-7.59-5.48-12.81a146.28,146.28,0,0,0,8.08,19.13l-.83-2.21c1.43,2.6,4.38,8.81,7,14.66s5,11.34,5.4,12.45C74.2,111.19,69.91,101,63.62,87.13Z"/><path class="cls-1" d="M79,117.23c-.7-2.74-1.37-5.49-2-8.26Q74.22,102,71.37,95.13l3.09,8.41C72.65,100.45,76.61,110.74,79,117.23Z"/><polygon class="cls-1" points="98.25 167.37 100.19 174.21 96.28 160.1 98.25 167.37"/><path class="cls-1" d="M90.27,137.83l.26,1q-.93-3.57-1.82-7.15Z"/><path class="cls-1" d="M179.14,35.82l.76-4.42C179.54,33.46,179.32,34.8,179.14,35.82Z"/><path class="cls-1" d="M179.15,34.73l-1.56,7.65C178.53,37.76,178.46,38.11,179.15,34.73Z"/><path class="cls-1" d="M21.63,141.34c-6.14,4.18-14,9.4-18.35,12.65s-5.2,4.3,2.51-.17l14.86-8.95a3.17,3.17,0,0,1-1.66,0c-.29-.11-.34-.34-.2-.66A11.35,11.35,0,0,1,21.63,141.34Z"/><path class="cls-1" d="M135.8,115.51l2.51-4.61c-3.15,5-6.11,9.65-8.9,14C131.43,122,133.57,118.84,135.8,115.51Z"/><path class="cls-1" d="M172.3,53.69c-1.87,3.24-3.69,6.48-5.49,9.75C168.71,60,170.53,56.76,172.3,53.69Z"/><path class="cls-1" d="M182.78,17.65,182.9,0C182.79,16.57,182.81,13.31,182.78,17.65Z"/><path class="cls-1" d="M79.12,88.81c-.44.65-.82,1.12-1.18,1.58C78.55,89.64,79,89,79.12,88.81Z"/><path class="cls-1" d="M146.13,217a59.71,59.71,0,0,0,2.59-10.26A51.69,51.69,0,0,0,146.13,217Z"/><path class="cls-1" d="M76.3,92.33l.33-.36c.44-.54.83-1,1.31-1.58C77.47,91,76.92,91.62,76.3,92.33Z"/><path class="cls-1" d="M211.56,26.64l.83,1.9C211.51,26.35,211.44,26.26,211.56,26.64Z"/><path class="cls-1" d="M302.5,173.89a2,2,0,0,1-.3,1.91C303,176.73,303.2,176.41,302.5,173.89Z"/><path class="cls-1" d="M81.21,91.43c.05,1,0,.14,0,0Z"/><path class="cls-1" d="M81.66,97.21l-.06-.56Z"/><path class="cls-1" d="M100.19,73s0,.06,0,.07C102.67,70.73,102.18,71.17,100.19,73Z"/><path class="cls-1" d="M81.28,93l-.06-1.39Z"/><path class="cls-1" d="M81.27,92.81l.07,1A6.27,6.27,0,0,1,81.27,92.81Z"/><path class="cls-1" d="M81.18,90.11c0,.54,0,1,0,1.53,0-.19,0-.26,0-.21C81.2,91.15,81.18,90.76,81.18,90.11Z"/><path class="cls-1" d="M204.91,76.38l.35,1.59C204.42,70.81,204.46,72,204.91,76.38Z"/><polygon class="cls-1" points="162.09 65.83 162.07 65.85 162.1 65.83 162.09 65.83"/><path class="cls-1" d="M162.77,65.26c-.28.25-.44.38-.67.57l.06,0,0,0-4.51,3.72q-9.65,8-19.21,16l12.41-10.24,11.67-9.8Z"/><path class="cls-1" d="M180.61,31l.68-7.78.37-3.89.17-1.74,0,.23c.22-2.21.31-3.79.19-2.08,0,.12-.15,1.89-.36,3.67,0,.44-.11.88-.16,1.29l-.11,1c-.79,6.09-1.28,9.88-1.91,14.71q.7-5.67,1.47-11.33l.26-1.92c-.68,4.71-.87,6-1.25,8.63-1.76,12-4,26.19-3.69,22.33.48-4.14,1.78-11.9,2.9-18.27Q178,42.43,176.62,49c.1-1.06,1.85-10.32,1.7-9.3-.35,1.43-.66,2.8-1,4.21l.32-1.56c-1.7,8.32-4.62,21.18-6,26.63,1.48-7.67,1.32-5.61,2.7-12.21-1,4.26-2.12,8.51-3.21,12.75,1.52-6.9,3.15-13.64,4.27-18.42s1.79-7.62,1.63-6.63l1.85-8.59c.2-.92.39-1.79.56-2.6l0,.08-.07.32c-.65,2.89-1.21,5.37-2,8.73l0,.17,0-.09-.09.34c0-.12.1-.38,0-.16,0-.09,0,0,0,0v.06L176,47.41l.91-3.23c.12-.43.24-.84.35-1.25h0v0l0,.07-.07.25v0l-.12.37-.16.5-.1.29-.27.75-.17.44-1,2.57q-1,2.41-2.07,5.08l2.34-5.83.47-1.16s.07-.15,0-.07l-1.94,4.66c1.07-2.56,1.31-3.13,1.75-4.17L171.51,57c-2.47,5.77-4.89,11.42-6.44,14.52-5.67,12.91-1.86,3.34,2.07-5.65,2-4.49,4-8.86,4.59-10.29s-.07.07-3.66,7.22c3.56-7.25,4.16-8.47,6.6-13.42l-.48.94c-1.3,2.55-2.29,4.45-3.4,6.54C168.57,61,166,66,159,78.31q3.78-7.52,7.81-14.87c-4.64,8.4-9.69,17.59-15,26.57s-10.83,17.76-16,25.5c-4.44,8.17-8.2,15.39-9.91,18.87-2.92,3.61-5.92,7.12-9,10.6,1.92-3.75,6.75-11.11,12.54-20.1l-3.5,5.07c4.28-8.48,12.46-20.78,20.11-32.86-2.49,4.39-5.12,9.09-7.71,13.81,8.3-13.15,17.07-28,24.55-40.95-1.5,2.54-2.84,4.7-3.64,5.88,2.19-3.62,4.11-6.86,5.4-9.07s-1.54,2.53-5,8.09L167,62.6l3.67-6.12,1.75-2.89,0,0-3.91,6.43,2.3-3.82,1.17-1.9c.07-.11,0-.07,0-.07v0l0,0-.06.1c-.16.25-.34.5-.49.74l-.25.4-2.59,3.88-3.43,5c-4.63,6.75-9.46,13.56-14.13,19.84-9.34,12.58-18,22.94-22.61,26.82,6.63-8.09,11.8-14.89,17.27-22.07S157,74.18,164.4,64.53c-8,10.43-6.07,8.37-2.8,4.08s8-10.8,6.46-8.61l2.22-3.2c-.18.25-.39.52-.55.76l-.13.19-1.16,1.56q-1.77,2.38-3.59,4.75l3.91-5.19.4-.53c0-.06,0,0,0,0h0v0l-.12.15-.4.51,0,0-2.5,3.19c-2.83,3.59-4.4,5.51-5.45,6.72-2.08,2.41-2,2.09-6.1,6.68l11.82-13.87,1.2-1.43.33-.41-.39.48-3.3,3.86c-4,4.68-8.17,9.42-10.31,11.76s-2.26,2.27,1.95-2.57c.26-.19-1,1.38,3.49-3.75-4,4.47-4.56,4.78-3,3s5.12-5.67,9.12-9.93l.19-.2L164,64.13c-1.72,1.65-4.38,4.08-8.24,7.48L140.48,85c2-1.8,19-16.74,22.74-20.1L163,65l-8.16,7.09q-10.84,9.33-22,18.33-22.24,18-45.55,34.74c11.58-8.92,30.7-24.54,48.83-38.87l25.87-20.46-.37.29-.43.34.09-.07,0,0h0l-2.81,2.16c-8.21,6.35-16.25,12.62-17.37,13.35C154,71.8,157.56,69.28,160.56,67l.44-.33h0l0,0-.09.07-.32.22.07,0-6.12,4.34c-9.83,7-19,13.2-18.54,12.6L160.3,67.18l-.13.09-1.57,1.06q-9.34,6.23-18.92,12.15c3.46-2.1,11.44-7.33,19.92-12.83l.2-.13h0l0,0-.09.06-.26.15-.12.08h-.05l1-.6.07,0,.27-.17,1.08-.65c1.4-.83,2.6-1.55,3.36-2q-2.35,1.36-4.68,2.79c1.54-.95,2.91-1.76,4.13-2.47l1.72-1,.4-.23.2-.11,0,0-.1.06-.2.11-1.7,1c-4.85,2.74-11.88,6.65-19.08,10.55-14.38,7.83-29.5,15.45-28.92,14C121,87,133.67,80.46,145.89,74s24-12.85,26.43-14.3C162.09,64.94,137.37,77.42,112.93,89S64.4,111.43,56,114.43l11.63-6.19c-4.69,1.8-9.41,3.53-14.08,5.39,15.71-7.36,40.24-18.43,64-29.24,11.89-5.4,23.6-10.75,33.91-15.57l14.29-6.69,11.33-5.45c9.12-5.07,13.86-7.06,12.46-7.13,10.94-5.74,16.91-8,17.58-8.34,1.13-.7,2.19-1.56,3.29-2.32s2.09-1.76,3.14-2.64A257.75,257.75,0,0,1,189.49,47a193.65,193.65,0,0,0-21.12,9.18L175,53.91l6.58-2.42c4.4-1.57,8.73-3.31,13.06-5-12,6-29.23,14.23-43.08,20.36-6.94,3-13,5.58-17.16,7.12s-6.35,2-5.54,1c4.67-2.65,15.42-7.91,26-13s21-10,25.05-12c-8.42,3.83-16.92,5.72-11.22,2.45l13.4-5.39c4.15-3-4.16.34-10.67,2.92-3.27,1.24-6.12,2.27-6.78,2.13s.86-1.44,6.21-5c.57-.78,7.88-5.46,13.24-9.1s8.75-6.28,1.77-2.47C160,52.08,76.37,97,56.14,108.07c.91-.52,7.25-4.2,14.87-8.94S87.52,88.57,93.86,84.42c10.09-6.57,22.38-14,34.53-20.75s24.06-13.14,32.59-19c-6.35,3.71-14.55,7.67-17.2,8.94,2.44-2,7.32-5,11.12-7.36s6.51-4.28,4.41-4.49c-11.61,7.12-11.76,5.84-11.48,4.8.14-.52.4-1-.55-.2s-3.12,2.76-8,6.94c-3.82,1.27-2.93.07-1.45-1.71s3.6-4.1,2.27-4.86c-6.84,5.56-19.35,13.84-30.66,21.69-5.67,3.91-11,7.69-15.38,10.83L84.87,86c5.38-4.37,12.25-10.26,15.32-13,.22-1.64,2.36-4.8,4.06-8a25.56,25.56,0,0,0,2-4.49c.37-1.32.39-2.42-.18-3,2-2.6,4-5.71,6.36-9.32a80.07,80.07,0,0,1,9.25-11.93c-3.63,3.28-9.79,10.2-11.2,10,3-5.14,4.62-7.85,5.86-9.29A5.19,5.19,0,0,1,119.16,35a8.32,8.32,0,0,0,3.58-2.51,65.67,65.67,0,0,0,8-11.09,77.9,77.9,0,0,1-13,12.9c-3.87,3.07-7.32,5.57-10.74,9.27-6.08,10.62-6.17,12-3.54,10,1.33-1,3.29-2.81,5.48-4.75s4.57-4,6.48-5.65C104.88,56.32,93.53,69.4,84.52,81.4q-1.69,2.25-3.28,4.43L79.68,88l-.61.87.05-.07c.13-.17.26-.36.4-.58l.42-.67c.13-.2.26-.41.39-.64l.45-.83s-.06.12,0,0a13.56,13.56,0,0,0,.77-1.77l.12-.4.06-.2v-.07l0,.21-.07.33c-.06.36-.08.44-.06.34.63-3.41,1.18-6.37,1.72-9.27.54-2,.79-2.08.73-1.19a35.62,35.62,0,0,1-1,4.9c-.26,1-.56,2.15-.86,3.2l-.59,2c0,.11-.07.22-.11.33L82,82.87c.51-1.63,1-3.25,1.39-4.9a46.58,46.58,0,0,1,3-7.65c.73-1.3,1-1,0,2,3.35-9.06,1.93-10.6.2-11.71a7.17,7.17,0,0,1-2.73-2.47c-.91-1.43-1.79-3.83-2.79-8.29-.33,3.59-.67,7.27-.78,11.13s0,7.88.3,12.2c.14-1,.3-2,.5-3,.16,4.33.11,8,.09,11.19s0,5.9,0,8.32l0,1.67c0,.11,0,0,0-.48l.07,1.75.06,1,.09,1.13L81.53,96l.15,1.41.2,1.66.26,1.84.07.52,0,.27,0,.13-.4-2.61c.11.7.23,1.45.39,2.55l-.06-.46L82,99.92c-.14-.92-.27-2-.33-2.68,0,.5.13,1.21.24,2l.19,1.34.05.4L82,100l-.35-2.18c-.88-5.59-1.87-8.44,1.14,7.33l.4,2.08.1.53v0l0-.07,0-.29L83,106.26l-.39-2.33c.18,1.15.4,2.45.66,3.75l.43,2.25.51,2.53,1.33,6.11,1.86,7.94c-.76-3.22-.83-3.54-1-4.4l-.43-1.85-.79-3.45c.31,1.39.14.65-.24-1.13-.17-.79-.39-1.79-.62-2.89s-.44-2.09-.64-3.17-.36-1.86-.51-2.66l-.33-1.84c-.14-.88-.16-1,.09.51l-.48-2.84c-.13-.82-.25-1.64-.36-2.5s-.22-1.48-.31-2.31l-.27-2.47s0,.36,0,.27l-.16-2,0-.57,0-.17v.14c0-.11,0-.12,0,.06l.1,1.37-.11-1.46-.09-1.86c0-.57,0-1.2,0-1.66s0-.81,0-1.07c0-1.12,0,.47,0-.14l0-.69,0-.64.08-.92c0-.26,0-.34-.06.64l.08-.85.09-.77c0-.19.06-.4.1-.62l.1-.53.06-.25v0l0-.12h0v.09l0,.19-.13.39c0,.13-.06.18,0,0-.11.28-.3.8-.52,1.24h0A27.89,27.89,0,0,1,76.63,92c-.35.4-.71.78-1.15,1.24s-1,1-1.66,1.67l-.27.26c-.27.26-.61.57-1,.89s-.78.71-1.17,1c-.78.64-1.5,1.26-1.76,1.45l-1.48,1.13c-.65.47-1.38,1-2.14,1.54l-1.13.75-7.49,4.75c-1.21.78-2.38,1.5-3.47,2.16l-3.31,2-.35.21c-1.61,1-3.2,1.9-4.83,2.82-2.08,1.19-4.18,2.39-6.36,3.62l-8,4.41L25.42,125l-5.25,2.79L36,119.32c3.26-1.72,4.26-2,3.88-1.74a12.41,12.41,0,0,1-1.43,1c-.72.47-1.66,1.06-2.68,1.69l-3.22,2c-1.07.66-2.1,1.35-3,1.94a22.73,22.73,0,0,0-2,1.46c-.42.39-.53.66-.25.72-6.18,3-4.77,1.8-1.11-.2-4.48,2.38-7.36,4.09-9.08,5.18s-2.26,1.58-2,1.73c.62.35,4.44-1,8.68-2.29,2.11-.66,4.29-1.38,6.19-1.94a28,28,0,0,1,4.49-1c1.9-.17,1.26,1.12-4.95,5.18,6.19-2.28,4.5-.68.82,2a2.28,2.28,0,0,0-.94.25.34.34,0,0,0,0,.44c-2.55,1.77-5.48,3.89-7.76,5.7,3.63-2.45,6.59-4.52,7.91-5.56.67.47,3.18.46,7.68-.74l-16.57,9.83c.28,0,.28.08.62,0-5.51,4.67,8.43-3.62,20.76-11.28a110.06,110.06,0,0,0,10.82-4.45c-13.23,8.18-10.5,7.65-8,7.17s4.73-.83-8.93,8.58c14.19-7.77,14-.68,42.18-20-3.62,2.59-5.17,4-5.73,3.77-2.52,3.12-4.86,6.48,3.45,1.57q-9.68,7.52-19.27,15.13,14.06-8.7,27.66-18c-10.86,10.29-16.89,16.62-32.78,27,6.39-3.63,10.19-5.81,12.74-7.18s3.83-1.95,5.09-2.53A42.72,42.72,0,0,0,74.14,142c2.4-1.49,6-3.86,11.8-8.1L74,144.31c.62.23,5.18-2.88,8.37-5s5-3.08.51,1.66c-5.06,5.61-7.16,9.24-7.7,11.89s.47,4.2,1.62,5.81,2.48,3.19,2.75,6-.47,6.91-3.28,13.56c13.77-18.83,11.16-14.25,8-8.46s-6.75,12.91,4-1.57c-6.23,9.09-9,14.82-15.65,21.78,2.41-1.56,3.25-1.28,3.52-.3a20.88,20.88,0,0,1,0,3.86c0,2.34,1.43,2.65,10.86-9.39-5.68,9.53-9.55,13-12.83,18.75,1.61-1.8,6.34-7.3,3.11-1.54s-5.51,7.45-8.74,11.06c2.44.5,8.27-6.47,15.51-16.93s16-24.42,24.43-37.95c-6.63,13.64-4.56,12.42,6.77-5.21-4.85,9.25-9.35,19.25-13,21.49.1.95-.26,5.12,1,6.31s4-.69,9.9-12c-2.69,5.92.47,2.36,2-.18,1.38,2.39.63,4.61,3.73,3.37l1.17-4C127,153.46,128,152,127.8,153.76s-1.69,6.62-.19,5.24l-1.28,2.86c-1.32,5.51-1.53,7.72-1.32,8.29s.89-.49,1.51-1.46,1.2-1.86,1.26-.94-.39,3.65-1.67,10l6.63-18c7.55-19.21,5.92-13.32,3.68-4.25-1.13,4.53-2.4,9.82-2.91,13.12s-.25,4.59,1.53,1q1.35-5.32,2.76-10.64c2.79-6.51-1,7-5.12,23s-8.6,34.29-8.51,37c-.68,3.55-2.22,5.34-3.52,7.7-.68,6.16-.46,7.76.23,6.61s1.88-5.07,3.3-9.89c2.83-9.65,6.66-22.94,8.84-25.35-1.6,6.6-4.12,14.84-6.11,21.81s-3.38,12.66-2.56,14.21c-.88,5.45,3.77-4.69,7.77-13.11s7.43-15,6-2c.84-5.16,1.68-10.33,2.72-15.11a86.66,86.66,0,0,1,3.67-12.89c1.29-1.64.42,8.26.53,14.62s1,9.17,4.8-6.91c-.27,2.88-.65,5.57-1.1,8.14,3-8.11,7.05-13.11,10.29-30.71-4.21,32.86-.61,25.21,2.28,16.81s5.31-17.6,2.42,12.83q2.35-1.4,4.56-2.89L167.7,209c2.53,4.22,4.44-10.33,6-24.95.35,4.18-.33,9.88-.54,13.06,1.56,6.23,2.61,8.7,3.67,5.82s2.19-11.13,3.78-26.35l.06,19.85c.47-5.77,1.67,2,3.42,8.35s4.06,11.15,5.52-.47c0,2.28.08,6.11-.13,8.92.86-5.85,1.95-5.37,3.22-2.49s2.7,8.17,4,11.91c2.6,7.48,4.83,8.85,2.75-27.2q.54-9,.9-17.93c-1.7-2.66-2.18-10.49-2.58-19.11s-.76-18.07-1.74-24c.29-2.15,1.34,3.23,2.28,9.61s1.73,13.77,1.25,15.67l-.53-3.58c1.4,18.76,2.59,22,3.73,23.75s2.18,2,3.47,14.72c1.46-.63,3.05.15,4.71,1.67a46.63,46.63,0,0,1,5.26,6.17c3.6,4.74,7.33,9.85,10.25,10.19l-5.31-28.78,2,1.35c1.58,6.63,4.45,22.48,2.9,21.51,1.71,8.12,1.72,4.59,1.14-1.74s-1.76-15.48-2.28-18.6c2.24,5.62,3.5,14.06,4.23,21.17s1,12.9,1.44,13.17l.76-2.33-.84-3.33c-1.15-11.93-3.27-24.44-1.4-23.32,2.09,5.59,3.81,17.65,4.44,18.67.38,2.08.71,3,.82.73,1,.66,2,1.31,3.09,1.94L232,190.6c-1.09-11.4,2.49.74-3.69-24.71,4.69,19.62,7.7,22.75,10.05,22.35,1.16-.19,2.09-1.23,3-1.47s1.78.28,2.8,3.25c-2.43-16.76-1-16.78,1.41-15.35-1.75-4.52-8.75-29.51-6.57-26.84,6.91,25.89,9.17,31.3,11.26,34.8s3.89,5.11,10.19,23.34c-8.62-24.09,3.09-7.59-9.75-41.62,1.28,1.88,2.84,6.64,4.66,12.41s3.91,12.54,6.39,18.36c-1.49-10.48,1.3-7.85,5-3.78s8.19,9.66,9.08,5.45c-2.48-6.61-6.95-16.37-9.89-26.5q7.31,16,15,31.86c-.2-1.78-3.77-11.29-6-17.6s-3.12-9.41,2.22,1.56c-2.45-5.38-6.09-13.51-6.45-15.83,5.07,7.07,8.07,8.48,9.95,7.44a5.82,5.82,0,0,0,2.23-2.87c.58-1.3,1.06-2.79,1.63-4,1.16-2.51,2.54-4.3,6.07-2.08s9.07,8.2,18.85,21.05c-7.66-11.3-7.61-13-7.14-14-2.06-2.51-8.48-15.31-13.25-23.65q7.76,10.64,15.92,21.12c-6.39-11.77-5.94-12.76-5.42-13.61s1.1-1.55-5.39-12.65l1.6,4.67c-7.21-13.45-16.25-27.52-25.66-42.52L263,98c-2.41-3.91-4.78-7.73-7-11.32C251.36,79,246.65,71.14,242,63.06c8.06,14.6,1.42,4.45-4.11-4.32s-10-16.13.87,5.23c-3.86-6.6-5.6-10.81-9.86-18.38,7.49,14.33,8.71,17.6,4.83,11.63l-1.81-3.6c.39,4.65-7.56-9.12-13.27-18l8,17c-1.39-2-3.92-7.38-6-11.6,5.71,13.11,6.11,13.35,6.7,13.89s1.33,1.39,7.74,15.78c-8.33-17.16-9-17-9.91-17.34s-2.16-1.4-10.68-21.48c-.25,0,1.87,5,4,10.05s4.27,10,3.94,10.07l-4.62-10.86,5.63,14.17c-1.34-2.12-7-15.8-10.7-25.09.5,1.08-.86-2.67-1.13-3.51-2.76-6.37-2.49-5.21-1.82-2.92s1.75,5.67.89,3.58l3,6.62c1.41,5.45.26,4.69-.25,5.45s-.5,3,2.39,14.75l2.82,8.46c1.83,8.09.77,5.86-.54,2.53s-2.9-7.7-2.54-3.84L215,59.21c2.19,8.63,3,13.1,2.26,12.23-1.2-5.11-2.74-9.95-4.25-14.95s-3-10.15-4.37-15.81c1.78,8.74,2.5,12.13,3.76,17.42s3.1,12.39,6.59,28.65l-3.85-14.36c2.87,13.14,4.53,20,4.41,24-1-6.28-2.53-11.73-4.07-17.7S212.33,66.23,210.72,58c-2.24-7.81-3-9.71-3-8.86a73.85,73.85,0,0,0,.92,7.57c.92,6.27,1.28,10.72-3.83-12.44,7.45,40.38,6.15,22,7.5,30.7,1.6,6.51,3.07,14,3.85,19.49s.94,8.76.18,6.81c-.46-.39-3.38-13.2-6.24-25.81s-5.69-25-6.28-24.48c.17.17-.39-2.91-.23-2.73-1.21-5.1-.78-1.57-.56,1.16s.27,4.66-1.51-3.66c3.9,24.54-1.12-1.24,4.1,30,.11-2.5.23-5,.25-7.49.35,4.15,1.86,15.39,2.68,23.42s.94,12.84-1.31,4.11c-.9-6.31-1.81-14.69-2.29-19.35-1.94-9.15.17,6.24-1.8-3.16-2.46-15.65-2.32-17.42-1.92-18.28s1.06-.81-.61-12.78c-1.34-6.55-.73-.84-.5,2.28s.14,3.65-2.51-13.3c3.34,21.55,2.7,20.26,1.86,17.7s-1.85-6.41.19,10.14l-2.83-18.76c.31,3,1.35,11.87,1,11.44l-3.21-24.4c1.25,10.42.17,5.94-1,.25S191.2,15,191.7,20.66c.56-.37,1.45,5.28,2.51,12.73s2.25,16.7,3.58,23.51c1.53,25.42-8-49-8.23-39.8-.17-2.69,2.22,11.2,3,20-.85-3.85-2.16-11-3.51-20.92-.25,2,.33,6.89,1.12,12.68S192,41.38,192.4,47.21c-1.56-11.46-1.41-9.11-.88-3s1.42,16.09,1.5,19.8l-2-19.19c-2.57-12.18,3.63,40.07.73,25.3q-.9-13.35-1.94-26.69l0,6.94-1.85-21.87c.9,16.26.23,12.11-.78,6,1.16,13.51,2.54,34.91,1.86,35.56-1.19-11.4-1-18.31-1.65-15.51-.51-12.05-1.4-27.18.11-9.5-.31-5.08-.8-13.21-1.11-18.28-1.19-13.12-.87-2.95-1.1-2.73.11.7.27,1.74.48,4.45q.36,13.4.41,26.78c-.5-7.23-.61-13-.78-18.78-.07,2.12.18,11-.07,12.64-.53-15.66-1.12-31.84-1.25-39.23q.16,8.7.08,17.42c-.08-2.16-.32-7.8-.51-12.64-.17-4.56-.29-9-.35-11.85-.17-4.62,0,3-.12,10.24s-.3,14.12-.41,8c0,3-.08,5.94-.19,8.18-.16-1.77-.23-7.46-.24-10s0-2-.68,8.71l.6-14,.31-6.5,0,.52,0,.73c-.16,2.88-.43,7.89-.69,12.62-.5,9.38-.92,19.28-1.56,24.54-1.06,8.93,1.43-23.94,1.91-31.74-.5,7.06-1.39,17.78-2,23.88s-1,7.53,0-3.87C180.72,28.89,180.35,33,180.61,31ZM177.21,43l.13-.49c-.67,2.66-1.15,4.57-1.55,6.19a18.7,18.7,0,0,1-.57,2.16C175.37,50.24,176.4,46.13,177.21,43ZM153.7,83c3.5-5.3,1.91-2.59-1.74,3.74C151,88,151.19,87.27,153.7,83ZM81.6,84.24v0C81.72,83.66,81.68,83.86,81.6,84.24Zm-.23,1.5c0,.19,0,.18,0,.1l.12-.91ZM232.49,203.39l-1.32-4.89C231,192.86,231.7,197.86,232.49,203.39Z"/><path class="cls-1" d="M168.11,60.88c-2.17,3.76-3.59,6.22-5.25,9.07C164.52,67.17,166.38,63.91,168.11,60.88Z"/><path class="cls-1" d="M182.75,20.91v.24l0-3.5Z"/><path class="cls-1" d="M168.76,38.29A51.09,51.09,0,0,1,161,44.66C165,42.28,168.31,39.94,168.76,38.29Z"/><path class="cls-1" d="M83.13,106.91l-.4-2.31-.34-2,.65,3.87C83,106.35,82.87,105.47,83.13,106.91Z"/><path class="cls-1" d="M67.1,66.76c.56,2.31-.21.35.36,2.67L70.17,78C70.5,77.27,68.81,70.22,67.1,66.76Z"/><path class="cls-1" d="M84.06,111.72l.07.31,0,.12,0,.06s0,.13,0-.08l-.3-1.45c-.35-1.68-.51-2.4-.55-2.54a33,33,0,0,0,.6,3.31c0-.06,0-.19,0,0,1.19,5.19,2.43,10.53,2,8.58l-.44-1.94C85.09,116.5,84.58,114.12,84.06,111.72Z"/><path class="cls-1" d="M84,112c.13.75.18,1.15,0,.43C86.12,121.26,84.43,114.27,84,112Z"/><path class="cls-1" d="M81.19,88.54l0,.69c0,.33,0-.66,0-1.28l0-.45Z"/><path class="cls-1" d="M74.33,66.7q2.23,9.76,4.37,19.56-1.56-7.92-3-15.88C75.26,69.15,74.8,67.92,74.33,66.7Z"/><path class="cls-1" d="M80.51,80.63c-.27-1.85-.64-3.68-1.07-5.5.34,3.34.45,5.29.54,6.79.2.34.45,1.49.58,1.81S80.7,83.58,80.51,80.63Z"/><path class="cls-1" d="M80,81.92c-.21-.34-.35.12,0,3.37A17,17,0,0,0,80,81.92Z"/><path class="cls-1" d="M74.7,60.5l1.08,4c.34.43.68.87,1,1.31C76.14,64.06,75.44,62.27,74.7,60.5Z"/><path class="cls-1" d="M81.66,84.53a50.68,50.68,0,0,1,3.21-4.75c1.87-2.88,3.34-5.22,4.09-6.61s.8-1.78,0-.7A134.38,134.38,0,0,0,81.66,84.53Z"/><path class="cls-1" d="M99.26,32.53c-.48,4.24-2,8.47-3.89,14.78l8.82-23.21Q101.6,28.26,99.26,32.53Z"/><path class="cls-1" d="M111,31.43c1.79-2.94,5.41-6.57,8.12-9.49s4.29-5.28,1.41-6.05c-1.89,2.85-4.41,5-6.37,7.39A11.85,11.85,0,0,0,111,31.43Z"/><path class="cls-1" d="M111.81,75.8l-.46-.14L76.12,96.11Q93.92,85.88,111.81,75.8Z"/><path class="cls-1" d="M176,58.16l9.07-5,8-4.25c-8.51,4.52-8.78,4.69-16.09,8.66l2.79-1.49.88-.48-1.42.8-3.28,1.8C174.54,59,174.43,59,176,58.16Z"/><path class="cls-1" d="M176.94,57.59l-5.46,2.87C173.72,59.31,175.44,58.39,176.94,57.59Z"/><polygon class="cls-1" points="317.56 189.98 323.11 196.47 315.28 185.15 317.56 189.98"/><path class="cls-1" d="M303.87,162.08l13.88,22.29L306,163.53C306.38,164.71,307.11,167,303.87,162.08Z"/><path class="cls-1" d="M177.19,43.11v0l0-.17Z"/><polygon class="cls-1" points="180.69 26.48 180.66 26.74 180.69 26.5 180.7 26.44 180.7 26.41 180.52 27.6 179.62 33.4 180.5 27.74 180.71 26.33 180.71 26.34 180.71 26.37 180.69 26.48"/><path class="cls-1" d="M182.41,10.37c-.06.77-.12,1.68-.18,2.45C182.33,11.46,182.33,11.47,182.41,10.37Z"/></g></g></svg>