<svg xmlns="http://www.w3.org/2000/svg" viewBox="0 0 378.08 317.14"><defs><style>.cls-1{fill:#f8c6c2;}</style></defs><g id="Layer_2" data-name="Layer 2"><g id="Layer_1-2" data-name="Layer 1"><path class="cls-1" d="M371.65,68.08c.25,1.62,5.36-14.35,6.43-17.17C375.61,54,370.32,72.21,371.65,68.08Z"/><path class="cls-1" d="M349.55,101.09l2-6.54q-3,7.86-5.93,15.75Q347.57,105.68,349.55,101.09Z"/><path class="cls-1" d="M340.31,98.4c-2.78,14-1.77,13.07-.06,9.94s4.16-8.47,3.72-3.35l-1.37,6.4,6.53-22.08c-1.53,1.49-3.89,5.78-5.75,8.69S340.12,102.46,340.31,98.4Z"/><path class="cls-1" d="M347.91,36.89c-1.86,10.93-3.27,9,.75,3.68.11-1.22.22-1.92.32-2.8C348.69,37.87,348.36,37.75,347.91,36.89Z"/><path class="cls-1" d="M349,37.77c1.41-.52,1.12-9.29,0,0Z"/><path class="cls-1" d="M342.09,42.85q1.71-4.73,3.49-9.43c.92-6.51-.29-8.23,1.17-12.84C344,25.61,343.2,32.1,342.09,42.85Z"/><path class="cls-1" d="M336.81,63.06l1.53-4C338.71,56.35,338.68,55.35,336.81,63.06Z"/><path class="cls-1" d="M341.65,50.69l-3.31,8.39c-.63,4.55-2.36,13.66,1.34-3C338,64.36,339.8,56.42,341.65,50.69Z"/><path class="cls-1" d="M341.77,55.14c-.34,6.28-.12,10.32-3.5,19.7C341.74,71.55,345.54,51.85,341.77,55.14Z"/><path class="cls-1" d="M333.24,127.07l-1.07,8.37,2.92-9.17C333.65,130.81,335.2,118.35,333.24,127.07Z"/><path class="cls-1" d="M334.67,26.57c-1,6-2,16.08-3.1,23.79l2.22-6.73C333.89,39.43,333.37,35.47,334.67,26.57Z"/><path class="cls-1" d="M331.57,50.36l-3.21,10C329.58,61.82,330.62,57,331.57,50.36Z"/><path class="cls-1" d="M330.79,94.19q3.15-10.56,6.52-21.08-3.65,10.64-7,21.31Z"/><path class="cls-1" d="M328,24.82,330.89,11q-2.38,10.4-4.62,20.83Z"/><path class="cls-1" d="M323.27,26.71c2.16-11.47,1.31-19.69,3-26.71-1.54,1.91-3.78,11.71-5.68,20.56C322.08,15.68,323.07,17.09,323.27,26.71Z"/><path class="cls-1" d="M317.66,33.42c.75-2.73,1.77-7.64,2.9-12.86A111.92,111.92,0,0,0,317.66,33.42Z"/><path class="cls-1" d="M326.08,57c.39-3.66,1.51-13.2,1.11-17.37l-1.71,17C325.66,56.81,325.87,56.9,326.08,57Z"/><path class="cls-1" d="M325.43,57.22l.05-.54a8.16,8.16,0,0,1-1.23-1.15C324.4,55.7,324.76,56.22,325.43,57.22Z"/><path class="cls-1" d="M326.23,57.12a.27.27,0,0,0-.15-.09C325.9,58.72,325.86,59.26,326.23,57.12Z"/><path class="cls-1" d="M329.64,78.28c-2.52,9.25-5.74,19.13-6.52,33.77C325.61,100.59,326,92.24,329.64,78.28Z"/><path class="cls-1" d="M323.92,78.38l1,4.1c.65-4.47,1.34-11,2.51-15.64Q325.64,72.6,323.92,78.38Z"/><polygon class="cls-1" points="322.38 83.65 323.92 78.38 323.54 76.87 322.38 83.65"/><path class="cls-1" d="M318.87,49.65c-1.59,7.31-2.43,7.83-3.42,8.94C316,62,316.77,64,317.69,64,318.44,58.69,320,49.16,318.87,49.65Z"/><path class="cls-1" d="M321.9,54.8c-.1.4-.19.56-.28,1C321.53,57.22,321.55,57.66,321.9,54.8Z"/><path class="cls-1" d="M307,57.69c0,1-.07,2.06-.11,3.11.09-1,.18-1.92.27-2.95Z"/><path class="cls-1" d="M317.48,67.19c.3,3.37,1.2-.74,2.24-5.89-.73,1.6-1.42,2.65-2,2.7C317.35,66.42,317.15,68,317.48,67.19Z"/><path class="cls-1" d="M314.31,41.12c0,3.61.16,6.68.32,9.47C314.82,45.18,314.88,36.71,314.31,41.12Z"/><path class="cls-1" d="M322,51c.07-.25.15-.56.21-.74C322.38,46.65,322.19,48.4,322,51Z"/><path class="cls-1" d="M322,51c-.68,2.42-1.49,6.56-2.24,10.28a36.76,36.76,0,0,0,1.9-5.55C321.68,54.54,321.82,52.69,322,51Z"/><path class="cls-1" d="M296.58,166.94A179.42,179.42,0,0,1,298.81,148c.74-3.47,1.33-2.84,1.18,5.67,2.06-11.76,5.93-63.72,6.87-92.86a141.09,141.09,0,0,1-3.3,22.47c-.07,4.32.34,9.42.43,15.22a110.06,110.06,0,0,1-1.26,19.39c-2.33,8-.93-5.71-1.19-14.11A231.34,231.34,0,0,1,299,129c-1.15,8.28-2.33,17.73-3.13,32.22l2-10.1C297.49,155.65,296.53,162.8,296.58,166.94Z"/><path class="cls-1" d="M309.7,62.65l.83-1.89c-.49-2.81-.47-9.19-.44-21.63a133.17,133.17,0,0,0-3,18.72l3,2.47Z"/><path class="cls-1" d="M313.48,61c-2.28,17.09-4.38,24.26-5.33,42.91,1.77-1,2.61-14.21,4.45-21.55-1.66,2-1.21-.38-.48-4.48s1.8-9.94,1.18-14.91c.91-2.86,1.55-3.7,2.15-4.36-.34-2.12-.62-4.78-.82-8,0,.42,0,.72,0,1.08v0l0,.22c-.08,2.17-.18,3.49-.2,2.25a1.2,1.2,0,0,1-.11.34c-.26,2.35-.53,4.44-.79,6.43-.55-3.63.3-4.44.79-6.43l.31-2.59v-.19q-2.09,4.53-4.07,9.09C311,63.21,311.82,62.81,313.48,61Z"/><path class="cls-1" d="M315.93,148.44c.16-1.51.36-2.73.55-4C316,146.54,315.73,148,315.93,148.44Z"/><path class="cls-1" d="M316.59,138c.52-2.34,1.72-9.12,2-7.3-.31,5.18-1.29,8.15-2.14,13.76,1-4.48,3.14-12,3.36-20.49l-.54,2.3c0-6,1.71-27.47,2.22-29.8C319.59,111.91,318.25,122.86,316.59,138Z"/><path class="cls-1" d="M315.32,103.89q-1.65,4-3.23,8.11l-.69,14.94,1-8.9C313.2,121.68,314.3,110.71,315.32,103.89Z"/><path class="cls-1" d="M307.36,49.12,309.15,31q-1.81,12.77-3.53,25.54Z"/><polygon class="cls-1" points="303.8 51.03 305.01 35.27 303.44 44.72 303.8 51.03"/><path class="cls-1" d="M186.24,257.74l.59,4.46C186.72,260.82,186.5,259.32,186.24,257.74Z"/><path class="cls-1" d="M189.57,258.11l-1.63-7.63A70.45,70.45,0,0,0,189.57,258.11Z"/><path class="cls-1" d="M230.41,54.21c-2.18-14.65-5.31-37.4-3.61-19.66l1.83,17.25C229,48.65,229.67,50.52,230.41,54.21Z"/><path class="cls-1" d="M200.21,162.3c.35,1.67.71,3.42,1.07,5.15-.77-5.91-1.48-11.43-2.14-16.45C199.47,154.41,199.83,158.26,200.21,162.3Z"/><path class="cls-1" d="M211.29,233.25l-2.7-10.9C209.43,226.16,210.32,229.82,211.29,233.25Z"/><path class="cls-1" d="M174.33,279.78l4.23,17.15C179.25,296.66,176.58,288.16,174.33,279.78Z"/><path class="cls-1" d="M271.25,56.64c-.95-6.77-1.69-9.61-2.31-10.44C270.18,56.14,271.21,71.08,271.25,56.64Z"/><path class="cls-1" d="M146.25,78a86,86,0,0,0,1.85,10.39A70.44,70.44,0,0,0,146.25,78Z"/><path class="cls-1" d="M266.48,46.32c.19,1.74.36,2.6.54,4.06.54-2.92,1.12-5.27,1.92-4.18C268,38.82,267,34.24,266.48,46.32Z"/><path class="cls-1" d="M111.93,286.64c-.34-.67-.55-1-1-1.85C111.91,287,112,287,111.93,286.64Z"/><path class="cls-1" d="M18.48,137.07a1.53,1.53,0,0,1,.35-1.67C18.13,134.4,17.9,134.64,18.48,137.07Z"/><path class="cls-1" d="M290.79,42.81c.73-1.11.17-1.9,0,0Z"/><path class="cls-1" d="M291.43,111.52c-.19,1.92-.39,4.42-.56,8.42C291.08,115.78,291.27,113.13,291.43,111.52Z"/><path class="cls-1" d="M264.2,154.45s0-.07,0-.07C264.43,157.78,264.38,157.12,264.2,154.45Z"/><path class="cls-1" d="M291.57,50.73a39.38,39.38,0,0,0-.71-5.17A46.89,46.89,0,0,0,291.57,50.73Z"/><path class="cls-1" d="M291.71,42.53c.21.79.39,1.23.55,1.7C292.45,41.36,292.44,39.53,291.71,42.53Z"/><path class="cls-1" d="M289.78,43.73c.41-.27.76.55,1.08,1.83a17,17,0,0,1-.07-2.75A4.25,4.25,0,0,1,289.78,43.73Z"/><path class="cls-1" d="M127.64,230.59l-.63-1.5C129,236,128.76,234.89,127.64,230.59Z"/><path class="cls-1" d="M234.91,234.83l0-.81-.13-.63Z"/><path class="cls-1" d="M234.86,247.83c-1.82-21.52-1.12-18.93-.13-14.44l-6.09-49.65Z"/><path class="cls-1" d="M180.08,264.41l4.76,14.91c5,25.19,2.18,16.78,8.35,37.82-6.58-26.36-6-27.93-5.41-29.5s1.16-3.13-5.13-29.55L186,269c-.31-.46.4,2.64.1,2.19,7.28,25-8.2-38.44-4.65-31.37a102.11,102.11,0,0,1,4.81,17.88l-1.71-13.38c.63,1,2.64,10.17,2,9.24l1-4.67.34,1.55c-1.59-8.35-3.78-21.36-4.65-26.91,2.22,7.51,1,5.68,2.57,12.24l-1.66-13.09c3.49,13.68,5.46,27.2,4.26,25.4,6.4,26.36,5.85,23,4.89,16.82s-2.34-15.14,2.08.11l.45,6.94c7.15,30,5.54,18.89,10.55,37.45-1.15-4.88-4.17-16.61-7.17-28.78s-6-24.81-6.76-31.57c1.19,3.93,2,5.73.43-5.11,4,18.92,3.62,14.11,4.18,12.88l5.13,25.08c-.69-7.39-3.36-20.14-5.16-31.52,1.47,2.29,5.56,21.67,9,38,1.09,1.86-.69-5.89-2.68-14.73s-4.19-18.77-3.75-21.32c3.17,9.37,2-1.06.71-16.41,2.56,8.52,2.75,15.43,4.44,22.56l-3-20.23c.29.46,1.38,6.62,1.93,9.74-.78-7.92-4.65-25.16-4.79-32.19-2.4-13.89.07-3.89,2.53,5.64s4.89,18.6,2.8,2.73c1.59,7.11,2.55,15.47,4.38,25.22-.89-10.51-1.27-15-1.61-19.05-.44-4.71-1.09-10.31-2.64-24.39l4.12,16.35c-4.14-18.78-6.64-41.41-8.38-60-1.88-9.09-3.54-17.05-4.41-20.84l-.13-13.9c.92,4.11,2.1,12.83,3.47,23.44-.22-2.26-.43-4.41-.6-6.13,2.22,9.22,4.16,23.87,6,38.06-1.07-5.17-2.15-10.38-3.21-15.48,2,15.43,4.38,32.49,6.9,47.26a57,57,0,0,1-.53-6.93c.56,4.19,1.09,7.93,1.56,10.44s-.24-3-1-9.47l4.94,28.1-1.7-11.2q2.53,8.63,5,17.25c-2.88-28.64-7.64-70.63-6.33-82.7,2.25,20.81,4.71,33.84,8.18,58.38-2.22-12.94-2.36-10.11-2.17-4.69s.72,13.44-.34,10.91c1.11,2.64,2.7,14.36,3.14,18.41q-.63-11.94-1.13-23.91c2.85,20.08,2.68,15,4.46,23.19-6.12-39.61-2-26.68-2.62-39,1.87,13.31,3.49,27,1.88,23.89,2.72,14.86,1.5,3.15.27-9.12s-2.49-25.12-.13-12.51c-.26.35-.7-1.66.09,5.15-.88-12,2.09-2.79,3.17,8.86l-.25.31c1.27,2.21,2.73,2.1,3.43-2.77s.66-14.56-1.15-31.48c.53,4.4,4.48,40.77,5.18,47.62q-5-57-9.11-114.17c1.41,14.55,4.36,39.07,6.92,62s4.77,44.38,4.91,52.69c.92,4.09,2,8.86,1.8-1.52-.73-4.1-5.31-41.91-5.14-44.63,2.36,16.1,3,20.4,3.65,24.11s1.25,6.8,3.38,20.51c-1.11-6.15-5.28-51.81-4.3-50.44.56,6.83,4.59,45,4.8,49.76q-1.37-22.5-2.54-44.95c.29,8.1,3.63,37.95,5.24,50.6-1-8.77,1.62.67,1.68-3.8l-1.74-10.34c2.65,6.61-3.59-63.17-1-61,.48,9.27,4.2,57,5.71,62.57-.72-11.49-2.47-39.14-3.82-66.16s-2.32-53.42-1.8-62.37l1.41,13.1.69-15.09c.56,15.34,1.52,42.28,2.53,70.36.91,24,1.85,48.89,2.48,65.67,1.6,10.33,1.46,15.49,2.47,14.18,1.34,12.28.87,18.71.63,19.47l3,7.73c-2.11-26.84,0-27-1.67-49.38q-.51,14-.83,28C250.46,237,249.41,218,249,202.81s-.16-26.37,1.06-24.09c1.24,10.67,2.86,47.79,3.54,56.74-.4-9.24.63-17.75,1.23-11.21l.14,14.4c.84,5,.68-3.91.7-10.89s.23-12,1.63.75c.56,1.7,3.27,34.49,2.43,18.61-2.38-30.6-8.15-125.34-8.84-148.39.35,2.06,4.55,29.11,5.87,44.23,1,12,1.43,26.33,1.83,40.24s.8,27.39,1.65,37.69c-.35-7.34-.4-16.42-.37-19.35.79,6.25.95,22.75,1.8,19.37-1.15-27.21,2.22,2.17-.62-23,.69-7.85,1.37,5.58,2.51,4.3-.57-8.79-.94-23.77-1-37.53s.14-26.32.59-30.25c.19,6.93.79,16,1.06,20.07,2.44,2.37,4,14.73,6.11,14.9.36,6.59,1.48,14.57,1.31,26.31.18-4.84.26-14.09.88-14.74,1.56,23.54-1.28,3.67.12,32-.23-15.84,1.12-21.92,1.9-31.81-.56-24.48-2.19-4.67-2.82,5.23-.34-16.87-.3-34.14.18-49.16s1.4-27.77,2.63-35.6c2-8.4,1,21.8,1.37,17,1.87,2.94,2.66-11.8,3.48-24.22s1.64-22.55,3.27-10.33c.56,10.75.4,21.43.16,31.37s-.58,19.14-.55,26.9c-1.59,8.11-2.24-13.68-3.34-12.81l1.25,10.18c-.54,7.16-1.53,12.56-2.07,6.36.48,9.66,1.88,10.55,3.5,11.33s3.46,1.33,4.46,10.3c.63-7.17,1.68-14.63,1.57-23.28l-.94,3a141.9,141.9,0,0,1,.94-19.48c.53-4.83,1-8.5.54-12.57,1.6-12.15,3.91-31.24,5.44-21.37l-.76,24.51c.3-7.16-.56-14.63-1.37-7.19.6-5.42,1,2.89,1.39,8.57s.92,8.7,2.18-7.31l-.46-17c1-6.12,2.26-15.66,3.53-22.68s2.5-11.54,3.2-7.63c.63-24.22-.57,2.75-.28-25.62-.43,17.64-1.65,17.2-2.78,17s-2.17-.2-2.15,18.35c.14-16.46-.33-20-.87-22.87s-1.13-5.21-1.55-19.26c-.24,8.09.07,15.51-1.41,11.45-.16,2.36-.43,5.35-.6,7.11,0-.2-.06-.35-.09-.61l.06,1c-.11,1.22-.13,1.48,0,.32.26,3.59.41,7.84.36,12.33-1.44,18.53-3.73,17.88-4.75,27.47-.76-3.87.59-9.28.34-17.91l-1.5,14.35c.32-17.94-1.8-29.88.59-40.37l-2-.83C283.72,37,282,32.92,281,40.47c-.93-3.88-2.4,19.89-1.56,5.82q-1.55,5.57-3,11.13l0-4.47c-1.51-1.14-2.94,6.32-4.39,10s-3,3.6-5-12.58c-.85,4.56-1.66,10.13-3.39,5.09l-.8-15.53c-1.07,5.43-4.3-15.41-4.21.79-1.48-20.87-3.14-23.09-4.69-21s-2.89,8.52-4.16,4.88l1,20.27c-1.5-1-2.58,4.8-3.84,13l1.17,17.88c-.29,7.39-1.4,4.26-2.76-.46s-3-11-4.08-10.06c-.31-6.84.42-5.1,1.12-1-2.79-20.14-3.87-12.71-4.66-3.86s-1.37,19-3.84,4.44c-.09,6.58-.73,4.39-1.55,0a3,3,0,0,0,.08-1c-.09-.19-.19-.25-.29-.21-.54-3.05-1.13-6.59-1.7-9.42.65,4.32,1.21,7.86,1.57,9.5-.46.41-1,2.68-1.34,7.24l-2-19.15a5.08,5.08,0,0,0-.13.55c-1.37-7,.24,9.13,1.91,23.54-.09,3.17-.07,7,.1,11.64-1.69-15.46-1.93-12.81-2.21-10.41s-.58,4.53-2.55-11.94c1,16.12-2.47,12.43.64,46.37-.47-4.43-.89-6.51-.55-6.84-1.15-3.76-2.33-7.53-2,2.09l-2.91-24.32,1.85,32.92c-2.61-14.72-4-23.3-5.06-42.14.32,14.56.15,17.33,0,20.06s-.27,5.41.38,19.79l-1.74-15.73c-.69.68.67,21.9-1.33,9-2.63-14.85-4.87-15.67-7.37-16.09s-5.29-.56-9.47-14.12c3.72,23,2.48,17.93.92,11.56s-3.48-14-.94,3.86c-1.85-10.87-3.39-17-4-26.51-.36,5.5-1.86,1.29-2.93-.5s-1.69-1.14-.13,14c-2-10.9-2-16-3.22-22.49.17,2.4.74,9.61-.52,3.12s-1.09-9.18-1.45-14c-2.16,2.24,3,35.84,7.86,67.34-3.49-14.71-3.76-12.53-1.15,8.26-2.06-10.24-4.51-20.89-3.73-24.82-1-1.39-7.37-14.28-3.1,10.93-1.34-6.36-1.4-1.68-1.09,1.27-2-1.23-2.54-3.49-3.8-.79l1.21,4c4.83,30.49-.13,7-.81,11l-.53-3.09c-3.56-10.66-3.43-8-3.33-5.69s.15,4.19-3.79-8l3.81,18.83c3.76,20.28,2,14.43-.63,5.49s-6.1-20.94-5.43-13l2.78,10.64c.92,7-2.48-6.62-6.44-22.6s-8.47-34.31-9.52-36.73c-1-3.48-.8-5.7-1-8.34-7.71-23.32,4.71,24.65,3.92,30.8-3.15-13.2-6.57-33.87-8.49-36-1.48-5.28-.23,5.71.56,14.88s1.09,16.52-2.64,4c2.67,10.11,5.28,20.2,6.08,28.07-.28,2-3.35-7.45-5.65-13.31s-3.82-8.15-.76,8c-.82-2.77-1.5-5.41-2.09-8,.83,8.51-.27,14.52,3.27,32.06-8.13-32.11-8-23.85-7.38-15s1.52,18.21-5.89-11.44l-2.45,4-1.46-6.07c-3.11-3.38-.19,11,2.82,25.35-1.52-3.9-2.63-9.52-3.4-12.61-6.11-11.13-5.89-8.47-.32,21.59l-5.49-19.07c1.19,5.65-1.93-1.55-5-7.26s-6.11-9.93-4.41,1.61c-.6-2.2-1.6-5.9-2.13-8.66.76,5.83-.3,5.57-2,3S110,88.49,108,85.1c-3.94-6.77-6-7.73,3.93,27l3.08,17.66c2.17,2.26,4.35,9.79,6.58,18.13s4.54,17.5,6.81,23.07c.29,4.34-9-20-8.86-23.95l1.26,3.39c-10.62-36.1-7.26-11.73-14.87-36.2-2.46,1.71-6.56-1.87-10.88-5.9S86.3,99.84,83.4,100l10.15,27.45-2.3-1c-2.69-6.25-8.18-21.41-6.48-20.7-6.16-15.44,2.42,13.9,4.51,19.87-3.18-5.14-5.8-13.26-7.71-20.16S78.46,92.88,78,92.69l-.35,2.44L79,98.27c3.12,11.58,7.3,23.56,5.31,22.75-2.94-5.18-6.59-16.81-7.35-17.72-.71-2-1.17-2.85-.89-.6l-3.15-1.51,8.81,21.38c2.92,11.06-2.48-.39,7.51,23.83-7.64-18.7-11-21.34-13-20.74s-2.74,4.47-5.44-1.2c4.68,16.25,3.3,16.46.92,15.22,2.17,4.32,11.87,28.4,9.38,26-19.19-50-11.07-20.64-26.65-56C65,133,52.63,117.2,68,150.18c-2.81-3.57-7.66-18.56-13.35-29.85,2.51,10.21-.31,7.74-4,3.76s-8.11-9.5-8.52-5.51c2.74,6.5,7.57,16.11,11,26.05q-7.87-15.76-15.87-31.48c.64,3.47,15.63,37.48,4.55,15.66,2.57,5.34,6.41,13.39,6.86,15.65-10.27-14.16-11-6.11-13-1.6-1,2.28-2.48,3.65-5.8,1.11s-8.56-9.09-17.39-22.7c6.93,11.81,6.87,13.32,6.38,14.13,1.89,2.69,7.6,15.61,11.88,24.15q-7.18-11.24-14.52-22.4c11.24,24-2.29,3.12,8.76,25.89l-1.17-4.52c6.11,13.65,14,28.27,22.35,43.83s17.27,32,25.72,49.21c-7-15.47-.68-4.58,4.83,4.68s10.21,16.88.5-5.42c3.79,6.87,5,11.28,9.12,19.17-6.72-15-7.64-18.34-3.49-12.18l1.65,3.72c1-5,9.17,9.18,16.58,17.62L92.93,262c1.71,2,4.32,7.34,6.59,11.53-11.15-26.5-2.51-.65-15-29.77,8.49,17.32,9.69,16.93,11.16,17.14s3.16,1,12.31,20.94c1.07-.22-9.17-19.92-8.07-20.14l5,10.73-5.9-14.09c1.7,2,8,15.47,12,24.65-.63-1,.69,2.76.87,3.62,6.4,12.46.41-5.33,2.51-1.29L110.61,279c-.87-5.66,1.09-5.27,2.38-6.37s1.92-3.71-1.29-15.43l-3.59-8.18c-4.08-16.17,5.4,8.44,4.84.43l.7,2c-2.83-8.45-3.85-12.9-2.82-12.2,3.26,10,8.53,18.49,12,29.6a164.71,164.71,0,0,0-4.91-17.2c-1.77-5.13-4.36-12-9.55-27.83l5.71,13.73c-4.3-12.76-6.78-19.39-6.9-23.46,3.53,12.28,8.78,20.81,13.69,37,7,14.68,4.91,6.75,3.45.56s-2.4-10.57,6.35,11.48c-13-38.94-10-20.59-12.46-29.08-5.25-12.36-9.7-29.12-7.42-25.57,1.2.56,19.49,48.84,21.09,47.4-.26-.11.79,2.83.53,2.71,4.23,9.6-3.36-13.87,3.22,1.85-7.78-23.61,1.6.91-8.74-29l.6,7.59c-.87-4.09-4.14-15-6.19-22.79s-2.89-12.59,1-4.39c1.94,6.07,4.17,14.2,5.35,18.72,3.57,8.66-1-6.16,2.63,2.73,5.09,15,5.11,16.81,4.7,17.77s-1.24,1.1,2.26,12.68c4.93,12.44-5.59-22.38,5.2,10.2-6.82-20.72-5.86-19.57-4.45-17.23s3.28,5.88-1.44-10.12l6,18c-.76-2.88-3.21-11.51-2.68-11.19L147.13,277c-2.87-10.1-.89-5.92,1.43-.59s5,11.8,3.66,6.22c-1.81,1.21-7.69-21.55-13-34.4-5.33-25,17.2,46.62,17,37.06.47,2.67-4.93-10.36-7.08-18.93a194.66,194.66,0,0,1,8.1,19.63c.59-4.39-6.27-18.51-9.06-29.9,7.7,21.81-1.93-9.26-3.26-16.59l5.82,18.4c5.91,11.15-11.45-38.56-4.89-24.89l7.07,25.8-1-6.92,6.28,21c-3.72-15.89-2.09-12,.77-6.42-4.19-12.91-10-33.54-9.14-34.45,4,10.76,4.88,17.68,5.51,14.61,3.11,11.66,7.15,26.28,1.44,9.47,1.75,6,3.18,11.66,4.92,17.65,4.48,12.39,2.57,2.34,3,2a18.78,18.78,0,0,1-1.79-4.13q-2.85-13.12-5.58-26.29c2.36,6.86,3.73,12.53,5.09,18.1-.2-2.16-2.4-10.76-2.24-12.5,4.2,15.1,8.73,30.63,10,38l-3-17.23c2,6.51,6.08,17.78,7.43,23.38,1.74,4.3.24-3.18-1.06-10.33s-2.42-14-.13-8.3a78,78,0,0,1-1.67-8c2.26,3,8.27,21.35,4.28.16l8,27c-.24-3.23-2.74-11.73-5.3-20.76s-5.18-18.6-5.47-24c-.77-9.07,6.52,23.08,9,30.53-1.42-6.94-3.6-17.48-4.53-23.55s-.62-7.69,2.8,3.26C181.32,266.24,180,262.29,180.08,264.41Zm12.31-15.66c.54,4,2.6,16.37,0,5.28C188,232.35,190.56,242.62,192.39,248.75Zm16.31-50.24c.74,6.31-.12,3.26-1.7-3.88C207.06,193,207.54,193.65,208.7,198.51ZM283,58.35l-.06.95C282,51.76,282.34,54.75,283,58.35Zm2.07,8.42a67.8,67.8,0,0,0,.26-8.07c-.24,4.87-.74,5.21-1.28,3.83C284.18,67.58,284.39,71.08,285.11,66.77ZM79.13,110l2.06,4.62C82.29,120.19,80.8,115.36,79.13,110Z"/><path class="cls-1" d="M210,225c-.62-3.2-1.22-6.74-1.83-10.32A91.57,91.57,0,0,0,210,225Z"/><path class="cls-1" d="M173.56,276.62a2.22,2.22,0,0,0-.11-.22l.88,3.38Z"/><path class="cls-1" d="M261.34,230.8c-.44-2.77-.78-6.25-1.09-9.91C260.48,225.59,260.83,229.58,261.34,230.8Z"/><path class="cls-1" d="M298.54,34.41l-1.83,4.93c.81-.91.88,3.32,1.1,6.41C298,41.24,298,34.71,298.54,34.41Z"/><path class="cls-1" d="M301.8,154.33c.37-2.34.35-.23.73-2.59l.79-8.93C302.55,143.31,301.45,150.47,301.8,154.33Z"/><path class="cls-1" d="M296.5,98.51c-.78,16.23.29,10.76,1.38,7.81-.06.05-.12.19-.16,0C299.38,83.69,297.89,91.1,296.5,98.51Z"/><path class="cls-1" d="M298.12,105.77c.33-.73.64-1.12.86-.35C299.67,96.35,298.75,103.5,298.12,105.77Z"/><path class="cls-1" d="M288.15,56.05c.37,4.18.85-20.73,1-14.13.57-10.31-.48-4.1-1.2,3.37S286.72,61.44,288.15,56.05Z"/><polygon class="cls-1" points="294.18 151.94 295.04 131.92 293.7 148.03 294.18 151.94"/><path class="cls-1" d="M288.69,137l1.06,5.62a47.29,47.29,0,0,1,.61-6.8C289.6,135,288.86,131.05,288.69,137Z"/><path class="cls-1" d="M290.36,135.77c.4.39.81,0,1.18-3.31C291.31,132.66,290.79,133.31,290.36,135.77Z"/><polygon class="cls-1" points="292.22 157.86 292.07 153.67 291.29 152.17 292.22 157.86"/><path class="cls-1" d="M275,133l-1.33,5.75c-.05,6.86.37,11.07.84,8.33C274.75,142.23,275.24,139.57,275,133Z"/><path class="cls-1" d="M279,187.82c-.31-4.16-.32-8.64-.49-15.23l-.08,24.83Z"/><path class="cls-1" d="M275.62,193.61c-.08,6.9-1.45,19.8-.05,18.23C275.61,205,276.71,199.28,275.62,193.61Z"/><polygon class="cls-1" points="255.89 162.88 256.2 162.53 253.96 121.86 255.89 162.88"/><path class="cls-1" d="M247.28,261.21c2.09,9.62-1.88-25.08.32-13-.5-9.63-1.81-9.84-2.21-18.16C245.47,240.23,244.57,234.56,247.28,261.21Z"/><path class="cls-1" d="M245.39,230c0-1.61,0-3.57-.11-6.18C245.25,226.37,245.31,228.33,245.39,230Z"/><polygon class="cls-1" points="4.89 119.33 0 112.27 6.83 124.17 4.89 119.33"/><path class="cls-1" d="M16.42,147.34l-11.93-23,10,21.27C14.16,144.42,13.6,142.2,16.42,147.34Z"/><path class="cls-1" d="M205.33,299.44l-1.22-6.14c-1.49-6.59-1.77-7-2.34-8Z"/><polygon class="cls-1" points="191.03 282.71 191.33 283.19 185.62 260.42 191.03 282.71"/><path class="cls-1" d="M189.89,313.85c.58.88-.34-4.29.24-3.39C190.48,314.73,182.5,285.55,189.89,313.85Z"/></g></g></svg>