<svg xmlns="http://www.w3.org/2000/svg" viewBox="0 0 238.67 261.81"><defs><style>.cls-1{fill:#51c4af;}</style></defs><g id="Layer_2" data-name="Layer 2"><g id="Layer_1-2" data-name="Layer 1"><path class="cls-1" d="M5,203.77c-.2-1.46.55,15.3.66,18.3C5.72,218.36,4.85,199.43,5,203.77Z" transform="translate(-4.99)"/><polygon class="cls-1" points="1.77 165.68 1.81 172.53 2.08 155.76 1.77 165.68"/><path class="cls-1" d="M9.83,166c0-14.28-.36-13.14-.71-9.69s-.67,9.22-1,4.15L8,153.91l-.11,23C8.44,173.26,9.39,158,9.83,166Z" transform="translate(-4.99)"/><path class="cls-1" d="M10.12,227.72c.19-11.08.4-9.52-.13-3.45,0,1.41,0,1.93,0,2.81C10,226.92,10.06,227,10.12,227.72Z" transform="translate(-4.99)"/><path class="cls-1" d="M10,227.08c-.17.8-.07,9.31,0,0Z" transform="translate(-4.99)"/><path class="cls-1" d="M11,220.74l-.51,9.91c-.14,6.55,0,8-.23,12.83C10.55,238.05,10.77,231.53,11,220.74Z" transform="translate(-4.99)"/><path class="cls-1" d="M11.89,199.93l-.29,4.19C11.54,206.87,11.54,207.85,11.89,199.93Z" transform="translate(-4.99)"/><path class="cls-1" d="M11,213l.59-8.84c.11-4.59.38-13.86-.25,3.18C11.64,198.86,11.31,207,11,213Z" transform="translate(-4.99)"/><path class="cls-1" d="M11,208.61c0-6.22-.16-10.13.43-20C10.62,192.53,10.35,212.59,11,208.61Z" transform="translate(-4.99)"/><path class="cls-1" d="M10.28,136.46,10,128.07l-.41,9.59C9.75,132.91,10.22,145.4,10.28,136.46Z" transform="translate(-4.99)"/><path class="cls-1" d="M11.72,235.57c.27-5.76.78-16.62,1.12-24l-.53,7C12.21,222.74,12.18,226.59,11.72,235.57Z" transform="translate(-4.99)"/><path class="cls-1" d="M12.84,211.61l.87-10.39C13.46,200,13.16,204.94,12.84,211.61Z" transform="translate(-4.99)"/><path class="cls-1" d="M13,168.26q-.75,10.92-1.38,21.86Q12.35,179,13.2,168Z" transform="translate(-4.99)"/><polygon class="cls-1" points="7.51 236.38 6.5 250.4 8.09 229.2 7.51 236.38"/><path class="cls-1" d="M13.23,234c-.94,11.61-1.37,19.67-2,26.81.24-2.07,1.1-12,1.95-21C12.67,244.77,12.69,243.48,13.23,234Z" transform="translate(-4.99)"/><path class="cls-1" d="M14.48,226.75c-.3,2.77-.79,7.73-1.28,13C13.6,235.73,14,231.63,14.48,226.75Z" transform="translate(-4.99)"/><path class="cls-1" d="M14.11,204.26c-.2,3.68-.72,13.26-.83,17.33l.94-17.07C14.19,204.42,14.15,204.36,14.11,204.26Z" transform="translate(-4.99)"/><path class="cls-1" d="M14.25,204l0,.53a7.82,7.82,0,0,1,.22,1Z" transform="translate(-4.99)"/><path class="cls-1" d="M14.08,204.19s0,.07,0,.07C14.2,202.57,14.22,202,14.08,204.19Z" transform="translate(-4.99)"/><path class="cls-1" d="M13.58,183.74c.63-9.54,1.76-19.74,1.85-34.33C14.68,161.09,14.6,169.39,13.58,183.74Z" transform="translate(-4.99)"/><path class="cls-1" d="M15.15,182.85l-.22-3.93c-.23,4.51-.52,11.1-.89,15.82Z" transform="translate(-4.99)"/><polygon class="cls-1" points="10.7 177.43 10.16 182.85 10.24 184.29 10.7 177.43"/><path class="cls-1" d="M15.28,210.75c.72-7.41,1-8,1.24-9.19.08-3.37,0-5.22-.23-5.16C15.85,201.75,15,211.35,15.28,210.75Z" transform="translate(-4.99)"/><path class="cls-1" d="M14.91,206l.11-1C15.1,203.52,15.11,203.08,14.91,206Z" transform="translate(-4.99)"/><path class="cls-1" d="M18.42,201.85l.29-3.09c-.1,1-.2,1.93-.31,3Z" transform="translate(-4.99)"/><path class="cls-1" d="M16.5,193.21c.08-3.31-.34.86-.82,6.07a11,11,0,0,1,.61-2.88C16.49,194,16.62,192.37,16.5,193.21Z" transform="translate(-4.99)"/><path class="cls-1" d="M15.6,218.81c.26-3.58.44-6.61.6-9.37C15.8,214.82,15.17,223.24,15.6,218.81Z" transform="translate(-4.99)"/><path class="cls-1" d="M14.73,209.71l-.07.76C14.44,214.1,14.56,212.34,14.73,209.71Z" transform="translate(-4.99)"/><path class="cls-1" d="M14.73,209.71c.34-3.67.65-7.06.95-10.43-.19,1.37-.41,3.19-.66,5.71C14.93,206.45,14.82,208.22,14.73,209.71Z" transform="translate(-4.99)"/><path class="cls-1" d="M31.06,92.85c-1.84,15.74-4.13,30.23-3.08,13.26-1.91,11.74-6.52,63.65-9.27,92.65.74-6.86,1.37-13.22,2.82-22.48.81-8.6,1-20.25,2.9-34.46,1.63-8,.06,5.65-.5,14,.92-9.82,1.92-16.93,3.14-25.19S29.7,113,31.26,98.54l-2,10.06C29.74,104.1,30.85,97,31.06,92.85Z" transform="translate(-4.99)"/><path class="cls-1" d="M18.16,197.08,17.82,199c-.09,2.76-.57,9.08-1.63,21.45,1-7.69,1.65-13.52,2.21-18.76l-.52-2.28Z" transform="translate(-4.99)"/><path class="cls-1" d="M17.13,199c1.61-17.16,2.78-24.44,4.17-43-.75,1.15-1.72,14.32-2.68,21.74,1.23-4.2-1.05,9.55-1.32,19.32a37.52,37.52,0,0,1-.78,4.51c0,2.08-.15,4.7-.32,7.88l.08-1.07v0l0-.22c.16-2.16.27-3.48.19-2.25l.05-.35.59-6.44a50.28,50.28,0,0,1-.59,6.44l-.24,2.6v.2c.49-3.12,1-6.25,1.54-9.35C17.9,196.61,17.65,197.08,17.13,199Z" transform="translate(-4.99)"/><path class="cls-1" d="M17.87,112.42c0,1.51-.1,2.75-.16,4A17,17,0,0,0,17.87,112.42Z" transform="translate(-4.99)"/><path class="cls-1" d="M17.88,122.84c-.23,2.38-.66,9.25-.86,7.48,0-5.18.42-8.24.69-13.91a186.64,186.64,0,0,0-1.11,20.73l.21-2.34c.21,5.94-.47,27.44-.69,29.81C16.89,149.1,17.4,138.07,17.88,122.84Z" transform="translate(-4.99)"/><path class="cls-1" d="M18.5,156.57,20,148.22l.64-14.91L20,142.24C19.72,138.69,19.05,149.69,18.5,156.57Z" transform="translate(-4.99)"/><polygon class="cls-1" points="12.6 210.39 10.64 228.5 13.64 202.94 12.6 210.39"/><polygon class="cls-1" points="13.54 208.3 11.73 224 12.98 214.54 13.54 208.3"/><path class="cls-1" d="M185,90.71l4.2-1.78A28.5,28.5,0,0,0,185,90.71Z" transform="translate(-4.99)"/><path class="cls-1" d="M182.66,85.38l-6.46,4.38C179.86,87.5,182.53,85.77,182.66,85.38Z" transform="translate(-4.99)"/><path class="cls-1" d="M36,210.24c-4.28,14.14-11.28,36-5.75,19l5.34-16.5C34.48,215.69,35,213.83,36,210.24Z" transform="translate(-4.99)"/><path class="cls-1" d="M92.06,122.81l2.87-4.4c-3.5,4.79-6.72,9.25-9.71,13.45Q88.4,127.57,92.06,122.81Z" transform="translate(-4.99)"/><path class="cls-1" d="M133.9,64.46q-2.58,5-5.28,10A85.5,85.5,0,0,0,133.9,64.46Z" transform="translate(-4.99)"/><path class="cls-1" d="M215.14,107.56,231.58,101C230.93,99.8,223.08,104.06,215.14,107.56Z" transform="translate(-4.99)"/><path class="cls-1" d="M27,203.14c-1.11,6.7-1.53,9.52-1.56,10.37C27.16,203.71,29.82,189,27,203.14Z" transform="translate(-4.99)"/><path class="cls-1" d="M43,183.51l-.46.31Z" transform="translate(-4.99)"/><path class="cls-1" d="M25.94,213.56c.26-1.41.49-2.64.74-4-.74,2.8-1.35,5.07-1.29,4C24.09,220.78,23.28,225.31,25.94,213.56Z" transform="translate(-4.99)"/><path class="cls-1" d="M221.4,171.45l-2,.69C221.69,171.42,221.8,171.37,221.4,171.45Z" transform="translate(-4.99)"/><path class="cls-1" d="M62.19,245.15c-1.09.24-1.25-.07-1.58-.28C59.56,245.48,59.78,245.69,62.19,245.15Z" transform="translate(-4.99)"/><path class="cls-1" d="M20.26,216.16c-.3,1.1-.29,1.89,0,0Z" transform="translate(-4.99)"/><path class="cls-1" d="M29,148.06c.31-1.91.7-4.38,1.25-8.34C29.63,143.83,29.23,146.46,29,148.06Z" transform="translate(-4.99)"/><path class="cls-1" d="M51.4,108.56s0,.07,0,.08C52.07,105.3,51.94,105.94,51.4,108.56Z" transform="translate(-4.99)"/><path class="cls-1" d="M21.18,208.32c-.25,2.11-.44,3.89-.55,5.12C20.79,212.11,21,210.44,21.18,208.32Z" transform="translate(-4.99)"/><path class="cls-1" d="M20,216.45l.12-1.69C19.74,217.61,19.49,219.42,20,216.45Z" transform="translate(-4.99)"/><path class="cls-1" d="M20.59,215.26c-.12.27-.07-.55,0-1.82-.15,1.19-.27,2.14-.37,2.72A7.82,7.82,0,0,1,20.59,215.26Z" transform="translate(-4.99)"/><path class="cls-1" d="M170.19,161.44l-1.54.53C175.66,160.3,174.52,160.47,170.19,161.44Z" transform="translate(-4.99)"/><path class="cls-1" d="M103.7,43.09c-.09.15-.27.58-.36.73l-.15.63Z" transform="translate(-4.99)"/><path class="cls-1" d="M110.41,31.86c-8.91,19.69-8.25,17.1-7.22,12.59Q94.43,67.88,85.5,91.25,97.74,61.46,110.41,31.86Z" transform="translate(-4.99)"/><path class="cls-1" d="M196,99.33q6.42-4.55,12.74-9.22c23.49-10.6,16.77-4.45,34.94-16.86-23.87,13-26,12-28.13,11s-4.44-2.06-27.71,11.92q4.59-3.45,9.14-7c-.26.58,2.49-1,2.23-.46,10.46-7.83,1.81-3.15-8.72,2.83s-23,13.23-20.46,10a65.54,65.54,0,0,1,15-10.93q-6.27,2.69-12.45,5.53c.53-1.12,8.41-6.29,7.93-5.14-1.87-.18-3.67-.3-5.56-.45l1.32-.89L152.79,104c5.86-5.23,4.89-3.07,10.25-7.18q-5.86,3.12-11.63,6.37a140,140,0,0,1,15.34-11.06c4.23-2.56,7-3.65,6.61-2.51,21.42-16.65,18.29-15.15,12.85-12-2.73,1.55-6.05,3.49-7.25,3.64s-.28-1.45,5.24-7.23L191,71.49c11.86-9.87,15.19-13.58,17.25-16.55a75.48,75.48,0,0,1,9.37-12.43c-3.66,3.46-12.13,12.23-21.41,20.7s-19.3,16.72-25.32,20c2.83-3,3.74-5-5.48,1C180.36,72,175.85,74,174,73.51l19.63-16.45c-6.95,3.25-16.72,11.89-26.06,18.69.66-3,15.1-16.62,27.09-28.26.21-2.8-5.17,3.1-11.51,9.59S169.53,70.66,166.53,71c2.75-4.27,1.76-5-1.45-3.6s-8.68,5.09-15,9.57a48.38,48.38,0,0,1,8-9.06,71.42,71.42,0,0,0,7.81-7.64q-7.72,6.72-15.3,13.59c.07-.61,4.46-5.08,6.69-7.33-3.24,2.4-7.62,7.06-12,11.55s-8.72,8.86-11.69,10.84c-9.71,10.22-3.28,2.16,2.36-6,2.83-4,5.47-8.11,6-9.75s-1.12-.83-6.69,5c4.18-6,10.24-11.89,16.44-19.62-8.19,6.88-11.09,9.46-14.55,12.74s-7.39,7.37-16.83,17.93q4.34-7.28,8.37-14.71c-5,8.23-11.4,16.54-17.86,24.73s-13,16.22-18.7,23.62C87,130.58,82.39,137.3,80.21,140.5q-4.35,5.33-8.45,10.85c2.31-3.51,7.26-10.78,13.46-19.49l-3.62,5c5-8,13.3-20.25,21.78-31.78-2.65,4.3-5.53,8.85-8.45,13.36,9.16-12.57,19.6-26.26,28.19-38.55A45.73,45.73,0,0,1,118.43,85c2.56-3.37,4.82-6.38,6.22-8.53s-2,2.2-6.08,7.35q7.88-11.9,15.61-23.88l-6.52,9.26c2.3-5.63,4.43-11.36,6.44-17.12-9,11.28-19.32,25.77-28.23,38.67S89.49,115,85.8,119.63c5.23-9.06,9.42-16.5,13.72-24.44S108.27,78.86,114.24,68c-5.86,11.75-4,9.6-.61,5.32s8.35-10.67,7.91-7.84c.48-2.93,6.67-13,9-16.35-5.31,6.08-10.38,12.35-15.28,18.72,10-17.67,6.67-13.69,9.76-21.54C106.61,81.88,110.12,68.57,103.48,79c6-12,12.43-24.21,12.55-20.46,6-13.87,0-3.73-6,7S97.9,87.71,102.8,75.85c.46-.13-.27,1.8,2.87-4.29-3,5.18-3.9,5.45-3.4,3.1a60.79,60.79,0,0,1,5.06-12.52l.47-.08c-.09-1.36-.58-2.26-1.47-2.35s-2.21.6-3.87,2.49c-3.38,3.74-8.15,12.19-14.68,27.91C89.41,86,103.54,52.24,106.33,46Q82.42,98,61.22,151.19c5.31-13.61,14-36.72,22.22-58.34s15.93-41.7,19.9-49c1-4.08,1.93-8.93-2.82.33-1,4.05-14.07,39.84-15.41,42.2,5.19-15.42,6.45-19.59,7.51-23.2s1.88-6.67,5.79-20c-.79,3-5.26,15.27-9.51,26.55s-8.27,21.62-8.33,20.81c2.4-6.4,15.07-42.61,17-47q-8.61,20.81-16.73,41.8c3.05-7.52,12.6-36,16.27-48.2-2.67,8.41-1.48-1.36-3.41,2.7L91.16,50c0-3.58-5.48,11.25-11,26.67S69,108,68.64,106.68c3-8.79,18-54.3,18.62-60C83.55,57.57,74.71,83.83,66.2,109.5s-16.68,50.74-19.66,59.12L50.12,156q-2.52,7.08-5,14.18c5.05-16.58,13.11-42.26,21.32-67.07S83,54.32,87.89,41c2.3-10.21,4.39-14.93,2.8-14.15,3.15-11.95,6.17-17.68,6.79-18.25q-.36-4.3-.81-8.58c-7.59,25.81-10,25.19-16,46.75q5.33-13,11-25.84c-3.82,12.87-9.8,31-14.73,45.33S68,91.08,67.92,88.59c1.27-5.21,4.63-16.7,8-28s6.77-22.27,8-26.59c-2.84,8.8-6.66,16.48-5.07,10.11l4.73-13.61c.81-5-2.07,3.42-4.39,10s-4.1,11.32-1.4-1.25c0-1.77,7.52-33.82,3.35-18.48-7,29.9-31.58,121.58-37.72,143.8.5-2.31,7.35-33.81,9.46-43.53,2.7-11.73,6.39-25.58,10.07-39s7.31-26.41,9.57-36.5C70.66,52.71,68,61.4,67.17,64.19c1.11-6.2,5.77-22,4-19-6.75,26.39-1.41-2.7-6,22.26-2.75,7.35.39-5.71-1-4.78-1.87,8.6-5.6,23.11-9.09,36.42S48.3,124.46,47.1,128.2c1.6-6.75,3.46-15.6,4.3-19.64-.93-2.72.84-15-.65-15.57,1.22-6.49,2-14.47,4.73-25.91-1.22,4.69-3.28,13.71-3.9,14.25C55.2,58,53.46,78,58.3,50,55.07,65.53,52.58,71.21,50,80.78c-4.43,24.08.62,4.92,3.37-4.62-3.37,16.53-7.12,33.39-10.48,48s-6.3,27-8.29,34.61c-2.38,8.07,3.62-21.52,2.6-16.84-.39-3.07-3.38,11.38-5.8,23.57s-4.31,22.12-2.88,10c1.52-10.64,3.22-21.19,4.88-31S36.7,125.69,37.88,118c2.27-7.87-.91,13.7-.23,12.93l1-10.15c1.49-7,3.07-12.22,2.31-6.06,1.41-9.55.61-10.62-.35-11.54S38.55,101.57,39,92.6c-1.39,7.06-3,14.4-4,23l1-2.88c-2.13,17.2-4.4,23.59-5,31.69-2.39,12-5.54,30.86-4.9,21.07l3.09-24.33c-.91,7.11-1.42,14.53-.19,7.16-.91,5.38-.07-2.88.33-8.52s.43-8.66-1.78,7.25l-1.64,16.92c-1.05,6.08-2.53,15.56-3.65,22.56s-1.88,11.51-1.67,7.63c-2.64,24.08.48-2.73-2.63,25.44,1-8.76,1.55-13,1.89-15.1s.46-1.92.59-1.83.24.12.61-2.16,1-6.89,2-16.09c-1.92,16.32-2.26,19.79-2.49,22.66s-.38,5.14-2.16,19.07c1.12-8,2-15.37,1.79-11.36.3-2,.78-5.08,1.08-7l-.06.6.12-.95c.18-1.2.22-1.46,0-.32.43-3.55,1-7.76,1.54-12.21,2.8-18.36,3.5-17.67,5.21-27.14-.29,3.85-1.52,9.17-2.66,17.72L28,171.26c-2.67,17.75-4,29.58-6.15,39.91l.3.85c-1.35,10-1.77,14-.3,6.57-.5,3.85,3.91-19.51,1.31-5.68q1.29-5.43,2.66-10.84l-.8,4.4c.13,1.18,1.87-6.05,3-9.57s1.61-3.32-1.32,12.65c1.14-4.39,2.58-9.75,1.9-4.69l-3.27,15.2c.72-2.61.07,1.23-.33,3.74s-.54,3.69,1.35-4.17c-4.6,20.4-4.95,22.67-4.24,20.77s2.55-8,1.81-4.34L29,216.41c0,1.19,1.77-4.32,4.35-12L38,187.06c2.16-7,1.67-3.87.71.83s-2.38,11-1.79,10.19c-2,6.58-1.61,4.81-.59.78-5.2,19.6-2.9,12.6,0,4.34s6.38-17.76,2.34-3.56c2.14-6.19,1.61-4,.37.3,0,.06-.15.37-.33.9,0,.19,0,.26,0,.25-.85,2.91-1.75,6-2.68,9.15,1.27-4.17,2.3-7.61,2.74-9.21a55.54,55.54,0,0,0,2.74-6.58L35.6,212.78c.09-.23.09-.18.21-.5-2.06,6.8,3-8.61,7.41-22.43,1.09-3,2.38-6.55,3.92-10.92-4.8,14.79-3.86,12.34-3,10.15s1.76-4.12-3.52,11.6c2.66-7.63,3.87-10.43,5.86-15.33s4.72-11.89,10.56-27.89c-1.5,4.2-2.14,6.21-2.37,6.44-1,3.74-2.15,7.45,1.39-1.47l-8.43,23q5.91-15.36,12.1-30.62c-5,14.09-8.16,22.16-15.08,39.68,5.39-13.47,6.57-15.94,7.66-18.41L60.23,158l-6,14.63c.19-.24,2.4-5.25,4-8.65s2.49-5.23,0,.82c-5.7,13.94-5.89,15-6,15.79a4.5,4.5,0,0,1-.17.75c-.14.35-.37.88-.8,1.77l-.8,1.63.56-1.11c.43-.81.85-1.59,1.26-2.32l-.12.21,1.22-2.24-.56,1-.2.36-.11.19,0,0,.07-.13.15-.27,1-1.74c.17-.3.59-1,.1-.18l.93-1.61.74-1.24,1.26-2c.14-.23-.27.42-.14.22L57,173l-.39.6,1.16-1.78,5.41-8-4.5,6.69c-.32.48-.15.23-.15.23l.08-.12.16-.23,2.12-3c2-2.84,4.33-6.06,7.1-9.92l-4.52,6.36-3.93,5.48-.39.55.5-.71.38-.51.1-.13,0,0v0h0l-.18.25,0,0-.08.12-.42.55-.13.16-.07.09,0,0h0l0,0,.73-.91-1.18,1.43-.21.26-.07.08.12-.13.46-.52,2.74-3.14c10.17-11.59,11.42-12.78,10.37-11.48s-4.38,5.12-3,3.83l-2.14,2.29c-7.46,8.23-5.72,6.27-4.09,4.69.8-.8,1.54-1.53,1-.9s-2.42,2.59-6.94,7l13.68-13.47c14.7-14.48,10.63-9.94,4.08-3.4-3.27,3.27-7.17,7.07-9.54,9.36s-3.2,3.08-.22.48c2.69-2.46,5.38-4.95,8-7.45,5.32-4.65-4.92,5-17.27,15.8l-2.72,2.38-.26.22-.46.38c-.07.06,0,0,.07-.07l.27-.22-1.36,1.16-.53.44c-.21.16-.8.64-1.5,1.16-.33.23-.8.62-1.21.93l-1.16.87,4.75-3.46c.77-.54-.83.66-3.28,2.41l-3,2.12-.53.35-1.17.84-.53.36-.24.17,3.5-2.35-4,2.65-.31.21,2.5-1.64c1.67-1.1,3.41-2.2,5.4-3.45,4-2.52,9-5.5,16.65-10.16-28.05,17.64-21.29,13.27-13.64,9.07s16-8.36-10.69,6.54c1-.45,2-.89,3-1.3L40,186c-3.49,2.06,9.54-4.64,22.72-11.07-3.65,2-8.81,4.48-11.65,5.91-5.37,3-7.52,4.14-4.83,3s10.19-4.62,24.18-10.66l-18,8.41c5.26-2.35-1.67,1.16-7.34,4s-10.07,4.92.74.77l-8.25,3.36c5.43-2.08,5-1.65,2.39-.36s-7.53,3.44-11,5c-7,3.12-8.36,3.73,25.54-8.67,5.64-1.84,11.3-3.66,17-5.39,2.44-1.49,9.79-4.17,18-7s17.13-5.78,22.63-8.14c2.1-.42-2.88,1.83-8.86,4.21s-13,4.9-14.84,5.22l3.37-1.32C74,179.53,70.94,181,69.33,182s-1.79,1.44-13.91,5.6c.61.29-.13,1.13-1.6,2.13-.74.51-1.66,1.07-2.68,1.65l-3.3,1.92c-2.3,1.31-4.73,2.6-6.62,3.75s-3.28,2.18-3.5,2.83l28-8.59-1.35,1.32c-6.45,2.16-21.89,6.72-20.89,5.83-15.83,4.93,13.64-2.92,19.73-4.66-5.51,2.27-13.74,4.51-20.65,6.29S30,203.13,29.73,203.4l2.22-.14,3.26-1.06c11.59-2.95,23.79-6.42,22.63-5.27-5.51,2.09-17.29,5.2-18.31,5.7-2,.58-2.94.91-.75.53L36.71,205l22.09-6.76C69.91,195.65,58,199.69,83,192c-38.62,11.73-12.65,8.56-24.52,12.56,16.45-3.68,16.36-2.82,14.71-1.21,4.57-1.57,29.52-8.72,26.72-7-51.68,14.2-21.93,7.94-58.81,19.28,24.39-7.72,6.89,1.09,41.47-10.08-4,2-19.27,5.61-31.21,9.74,20.5-3.88-11.63,8.32-4,9.2,6.75-2.06,16.87-5.68,27-8.25q-16.58,5.93-33.11,12c3.48-.42,38.85-11.85,15.93-3.36,5.59-2,14-4.91,16.26-5.25-7.72,4-9.68,6.14-9.14,7.59s3.43,2,5.52,3C74,232,74.55,235,46.18,250.53c12.23-6.14,13.7-6.07,14.43-5.66,2.82-1.67,16-6.75,24.76-10.55Q73.64,240.59,62,247.14C74.27,242.07,75,242.5,75.51,243s1,1,12.54-4.11l-4.48,1.18c13.84-5.66,28.8-12.84,44.77-20.36s32.92-15.4,50.47-23.09c-15.66,6.58-4.36,1.09,5.37-3.49s17.82-8.29-4.81.58c7.17-3.16,11.48-4.56,19.64-8.05-15.24,6.1-18.52,7.09-11.85,4l3.8-1.47c-4.15.42,10.75-6,20.56-10.55L193.7,184c2.27-1.15,7.86-3.18,12.31-4.87-27.25,9.14-1.27,1.35-31.23,11.63,18.08-6.71,18.05-7.25,18.62-8s1.78-1.83,22.56-8.78c.08-.52-20.8,7-20.72,6.41l11.24-3.79-14.58,4.57c2.28-1.12,16.37-5.79,25.92-8.83-1.11.43,2.73-.67,3.58-.87,13.21-4.51-4.87.35-.59-1.15L214,173c-5.51,1-4.68-.12-5.43-.88-.37-.37-1.14-.62-3.29-.45a90.26,90.26,0,0,0-11.61,1.89l-8.54,2.61c-16.31,3.15,9.13-3.78,1.31-3.3l2.06-.52c-8.65,2.1-13.12,2.88-12.26,2.15,10.2-2.43,19.36-6.26,30.69-8.86-17.57,3.14-13.67,2.94-46,10.76l14.25-4.26c-13.07,3.23-19.89,5.1-23.83,5.25,12.47-2.68,21.6-6.64,38.05-10.34,15.36-5.31,7.27-3.84,1-2.72s-10.64,1.88,12.06-5c-19.9,5.09-25.26,7.08-26.72,8s.95.78-3.36,1.72c-12.8,4-29.75,7.57-26,5.85.74-.86,50.29-15.34,49-16.8-.14.21,2.87-.63,2.72-.41,9.89-3.5-14,2.63,2.12-2.88-24,6.47,1-1.45-29.37,7.29l7.49-.5c-4.11.7-15.12,3.44-23,5.22s-12.59,2.61-4.18-.65c6.14-1.7,14.34-3.66,18.91-4.67,8.83-3.08-6.17.92,2.89-2.27,15.2-4.46,17-4.43,17.94-4s1,1.11,12.72-1.75c12.7-4.24-22.57,4.55,10.5-4.59-21,5.78-19.84,4.93-17.44,3.64s6-3-10.15,1.16l18.19-5.4c-2.91.64-11.61,2.83-11.26,2.33l23.75-6.47c-10.2,2.51-6,.67-.6-1.61s11.85-4.9,6.21-3.76c1.29,2.19-21.67,7.32-34.63,12.36-12.53,2.46-.78-1.57,12.86-6.37s29.21-10.26,24.25-10.76c2.72-.3-10.24,5.34-18.87,7.29A188,188,0,0,1,226,132.65c-2.29-.6-6.89,1.06-12.35,3.17s-11.8,4.66-17.5,6c21.69-8.1-9.28,1.89-16.59,3.41L197.86,139c10.78-6.68-38.22,12.54-24.83,5.47q12.75-4.07,25.53-8l-6.94,1.11,20.76-7.15c-15.81,4.1-12,2.34-6.75-1.24-12.6,5-32.87,12-33.83,11.25,10.43-4.82,17.3-6.1,14.13-6.72,11.37-4,25.71-8.94,9.41-1.9,5.9-2.15,11.44-3.89,17.31-6,11.95-5.62,1.89-3.47,1.45-4a13.37,13.37,0,0,1-3.89,2.35c-8.65,2.35-17.31,4.76-25.9,7.3a148.71,148.71,0,0,1,17.53-6.78c-2.18.25-10.55,3.23-12.36,3.13,14.58-5.75,29.53-12,36.88-13.51q-8.64,1.86-17.2,3.93c6.24-2.76,16.69-8.7,22.14-10.57,3.89-2.64-3.56-.69-10.64,1.19s-13.78,3.71-8.73.14a52.64,52.64,0,0,1-7.79,2.66c1.17-1.68,5.89-5,7.74-7.11.93-1,1.13-1.78-.16-1.79s-4.14.64-9.23,2.47q12.24-6.94,24.37-14.09c-3.38.42-11,5-19.19,9.56s-17,9.16-22.39,10.22c-9,2.23,20.84-11.88,27.36-16.3-6.54,2.75-16.46,7-22.28,9.17s-7.58,2,1.83-4.61C197.16,97.16,193.83,99.73,196,99.33ZM170.62,83.49c3.49-2.09,14.16-8.78,5.37-1.51C158.06,94.94,166.21,88.2,170.62,83.49Zm-59.9,7.16c3.72-5.16,2.46-2.22-1.19,4.13C108.34,95.89,108.41,95.08,110.72,90.65ZM24.32,200.9l.16-.93C23.51,207.43,23.91,204.47,24.32,200.9Zm.77-8.38c-.48,2.64-.9,5.31-1.3,8,.8-4.81,1-5.14.92-3.76C25.48,191.75,26,188.29,25.09,192.52Zm21.28,8.27,4.8-1.57C56.65,198.11,51.77,199.37,46.37,200.79Z" transform="translate(-4.99)"/><path class="cls-1" d="M129,71.19c-1.76,2.75-3.8,5.69-5.88,8.67A57.25,57.25,0,0,0,129,71.19Z" transform="translate(-4.99)"/><path class="cls-1" d="M212.11,108.78c-.14.09-.07.09-.18.16,1.07-.44,2.16-.91,3.21-1.38Z" transform="translate(-4.99)"/><path class="cls-1" d="M74.38,35.79c-.38,2.79-1.07,6.21-1.87,9.8C73.69,41,74.55,37.12,74.38,35.79Z" transform="translate(-4.99)"/><path class="cls-1" d="M17.74,224.61l.92-4.94c-.26.93.24-3.26.56-6.32C18.65,217.83,17.87,224.3,17.74,224.61Z" transform="translate(-4.99)"/><path class="cls-1" d="M26.82,105.47c-.33,2.35-.24.24-.57,2.61L25.44,117C25.9,116.48,26.91,109.31,26.82,105.47Z" transform="translate(-4.99)"/><path class="cls-1" d="M25.43,161c2-16.13.94-10.7.22-7.76,0,0,.06-.19.06,0C22.92,175.71,24.14,168.33,25.43,161Z" transform="translate(-4.99)"/><path class="cls-1" d="M25.49,153.74c-.2.74-.36,1.12-.38.36C24,163.12,25,156,25.49,153.74Z" transform="translate(-4.99)"/><path class="cls-1" d="M22.71,203.06c.51-4.13-3.17,20.51-2.24,14-1.58,10.2-.52,4,.73-3.34S23.85,197.75,22.71,203.06Z" transform="translate(-4.99)"/><polygon class="cls-1" points="26.67 107.84 24.38 127.75 26.63 111.74 26.67 107.84"/><path class="cls-1" d="M33.41,122.92l.05-5.63c-.45,3.33-.81,5.25-1.13,6.73C32.68,124.78,32.59,128.78,33.41,122.92Z" transform="translate(-4.99)"/><path class="cls-1" d="M32.33,124c-.17-.4-.45,0-1,3.24C31.46,127.08,31.81,126.44,32.33,124Z" transform="translate(-4.99)"/><polygon class="cls-1" points="28.5 102 28.2 106.18 28.56 107.69 28.5 102"/><path class="cls-1" d="M40.38,128l1.84-5.47c1.39-6.72,2-10.9,1.15-8.28C42.27,118.88,41.49,121.43,40.38,128Z" transform="translate(-4.99)"/><path class="cls-1" d="M47.54,73.5c-.45,4.14-1.21,8.56-2.22,15.07l4.37-24.44Z" transform="translate(-4.99)"/><path class="cls-1" d="M51.54,68.33c1.35-6.76,5.28-19.12,3.58-17.87C53.72,57.15,51.63,62.58,51.54,68.33Z" transform="translate(-4.99)"/><polygon class="cls-1" points="54.03 102.2 53.73 102.45 43.53 141.89 54.03 102.2"/><path class="cls-1" d="M100.81,12.91c1.47-9.77-8.11,23.81-5.69,11.79-3.26,9.07-2,9.81-4.88,17.62C94.19,32.9,92.9,38.5,100.81,12.91Z" transform="translate(-4.99)"/><path class="cls-1" d="M90.24,42.32c-.63,1.49-1.37,3.3-2.31,5.74C88.94,45.73,89.65,43.91,90.24,42.32Z" transform="translate(-4.99)"/><polygon class="cls-1" points="38.65 257.34 31.35 261.81 43.55 255.56 38.65 257.34"/><path class="cls-1" d="M72,246.67l-23.51,11,21.6-9.24C68.94,248.71,66.73,249.25,72,246.67Z" transform="translate(-4.99)"/><path class="cls-1" d="M208.11,46.7l-4.9,3.89c-5,4.57-5.08,5.22-5.34,6.6Q203,52,208.11,46.7Z" transform="translate(-4.99)"/><polygon class="cls-1" points="202.41 78.6 202.65 77.98 183.24 91.19 202.41 78.6"/><path class="cls-1" d="M242.87,80.2c.52-1.16-4.51.51-4-.67C243.44,79.1,217,93.92,242.87,80.2Z" transform="translate(-4.99)"/></g></g></svg>