<svg xmlns="http://www.w3.org/2000/svg" viewBox="0 0 144.22 144.22"><defs><style>.cls-1{fill:#fede49;}.cls-2{fill:#0d1233;}.cls-3{fill:#fff3bb;}.cls-4{fill:#fbb03c;}.cls-5{fill:#272361;}.cls-6{font-size:14px;fill:#fff;font-family:SourceSansPro-Regular, Source Sans Pro;letter-spacing:0.03em;}.cls-7{letter-spacing:0.01em;}</style></defs><g id="Layer_2" data-name="Layer 2"><g id="Layer_1-2" data-name="Layer 1"><circle class="cls-1" cx="72.11" cy="72.11" r="72.11"/><circle class="cls-2" cx="72.11" cy="72.11" r="63.33"/><g id="Layer_2-2" data-name="Layer 2"><g id="Layer_1-2-2" data-name="Layer 1-2"><path class="cls-3" d="M57,64.51,42.11,80.79h-4L55.85,62.35Z"/><path class="cls-4" d="M70.81,37.68a8.21,8.21,0,0,1,.24-3.94,5.58,5.58,0,0,0-2.3-.12c-.69.09-1.24.18-1.46.64a1.71,1.71,0,0,0,.24,1.45c3.06,3.72,3.89,4.45,4,4.32S71.09,39.06,70.81,37.68Z"/><path class="cls-1" d="M71.2,40.82,36.15,79.23l2.29.16c.77,0,1.76.08,2.6.1L55.69,63.4c.18.27.43.65.77,1.1a21.24,21.24,0,0,0,6.44,5.74A20,20,0,0,0,73.4,72.7a21,21,0,0,0,9.39-2.39,22.75,22.75,0,0,0,7.09-5.74c5.81-7.08,5.78-15.69,5.74-17.3,0-1.85-.26-12.55-7.57-18-1.23-.94-4.8-3.58-9.28-2.65A10.62,10.62,0,0,0,71.69,32a12.45,12.45,0,0,0-.89,2.46,11,11,0,0,0-.24,4A10.7,10.7,0,0,0,71.2,40.82Z"/><ellipse id="Ellipse_78" data-name="Ellipse 78" class="cls-5" cx="77.79" cy="34.71" rx="1.45" ry="1.55"/><path class="cls-3" d="M87.63,42.88l-20,23c.88.37,8.45,3.33,15-1.31,6-4.26,8.88-13.19,6.47-19.16A10.33,10.33,0,0,0,87.63,42.88Z"/></g></g><text class="cls-6" transform="translate(22.09 101.34)">A<tspan class="cls-7" x="8.04" y="0">S</tspan><tspan x="15.65" y="0">TUTE CANARY</tspan></text></g></g></svg>