<svg xmlns="http://www.w3.org/2000/svg" viewBox="0 0 583.11 368.72"><defs><style>.cls-1{fill:#f8bfba;}.cls-2{fill:#39bca4;}.cls-3{fill:#304da1;}.cls-4{font-size:242.72px;fill:#fbb040;font-family:MyriadPro-Regular, Myriad Pro;}</style></defs><g id="Layer_2" data-name="Layer 2"><g id="Layer_1-2" data-name="Layer 1"><path class="cls-1" d="M394.37,91.45c.25,1.62,5.36-14.35,6.43-17.17C398.33,77.38,393,95.58,394.37,91.45Z"/><path class="cls-1" d="M372.27,124.46l2-6.54q-3,7.86-5.93,15.75Q370.29,129.05,372.27,124.46Z"/><path class="cls-1" d="M363,121.77c-2.78,14-1.77,13.07,0,9.94s4.15-8.47,3.71-3.35l-1.37,6.4,6.53-22.08c-1.53,1.49-3.89,5.78-5.75,8.69S362.84,125.83,363,121.77Z"/><path class="cls-1" d="M370.63,60.26c-1.86,10.93-3.27,9.05.75,3.68.11-1.22.22-1.92.32-2.8C371.41,61.24,371.08,61.12,370.63,60.26Z"/><path class="cls-1" d="M371.7,61.14c1.41-.52,1.12-9.29,0,0Z"/><path class="cls-1" d="M364.81,66.22q1.71-4.72,3.49-9.43c.92-6.51-.29-8.23,1.17-12.84C366.71,49,365.92,55.47,364.81,66.22Z"/><path class="cls-1" d="M359.53,86.43l1.53-4C361.43,79.72,361.4,78.72,359.53,86.43Z"/><path class="cls-1" d="M364.37,74.06l-3.31,8.39c-.63,4.55-2.36,13.66,1.34-3C360.68,87.73,362.52,79.79,364.37,74.06Z"/><path class="cls-1" d="M364.49,78.51c-.34,6.28-.11,10.32-3.5,19.7C364.46,94.92,368.26,75.22,364.49,78.51Z"/><path class="cls-1" d="M356,150.44l-1.08,8.37,2.92-9.17C356.37,154.18,357.92,141.72,356,150.44Z"/><path class="cls-1" d="M357.39,49.94c-1,6-2,16.08-3.1,23.79L356.51,67C356.61,62.8,356.09,58.84,357.39,49.94Z"/><path class="cls-1" d="M354.29,73.73l-3.21,10C352.3,85.19,353.34,80.34,354.29,73.73Z"/><path class="cls-1" d="M353.51,117.56Q356.66,107,360,96.49q-3.64,10.62-7,21.3Z"/><path class="cls-1" d="M350.7,48.19l2.91-13.79Q351.23,44.8,349,55.23Z"/><path class="cls-1" d="M346,50.08c2.16-11.47,1.31-19.69,3-26.71-1.54,1.91-3.78,11.71-5.68,20.56C344.8,39.05,345.79,40.46,346,50.08Z"/><path class="cls-1" d="M340.38,56.79c.76-2.73,1.77-7.64,2.9-12.86A111.92,111.92,0,0,0,340.38,56.79Z"/><path class="cls-1" d="M348.8,80.4c.39-3.66,1.51-13.2,1.11-17.37l-1.71,17C348.38,80.18,348.59,80.27,348.8,80.4Z"/><path class="cls-1" d="M348.15,80.59l.05-.53A8.07,8.07,0,0,1,347,78.9C347.12,79.07,347.48,79.59,348.15,80.59Z"/><path class="cls-1" d="M349,80.49a.27.27,0,0,0-.15-.09C348.62,82.09,348.58,82.63,349,80.49Z"/><path class="cls-1" d="M352.36,101.65c-2.52,9.25-5.74,19.13-6.52,33.77C348.33,124,348.69,115.61,352.36,101.65Z"/><path class="cls-1" d="M346.64,101.75l1,4.1c.65-4.47,1.34-11,2.51-15.64Q348.36,96,346.64,101.75Z"/><polygon class="cls-1" points="345.1 107.02 346.64 101.75 346.26 100.24 345.1 107.02"/><path class="cls-1" d="M341.59,73c-1.59,7.31-2.43,7.83-3.42,8.94.56,3.43,1.32,5.37,2.24,5.41C341.16,82.06,342.71,72.53,341.59,73Z"/><path class="cls-1" d="M344.62,78.18c-.1.39-.19.55-.28.94C344.25,80.59,344.27,81,344.62,78.18Z"/><path class="cls-1" d="M329.69,81.06c0,1-.07,2.06-.11,3.11.09-1,.18-1.92.27-3Z"/><path class="cls-1" d="M340.2,90.56c.3,3.37,1.2-.74,2.24-5.89-.73,1.6-1.42,2.65-2,2.7C340.07,89.79,339.87,91.37,340.2,90.56Z"/><path class="cls-1" d="M337,64.49c0,3.61.16,6.68.32,9.47C337.54,68.55,337.6,60.08,337,64.49Z"/><path class="cls-1" d="M344.68,74.39c.07-.25.15-.56.21-.74C345.1,70,344.91,71.77,344.68,74.39Z"/><path class="cls-1" d="M344.68,74.39c-.68,2.42-1.49,6.56-2.24,10.28a36.76,36.76,0,0,0,1.9-5.55C344.4,77.91,344.54,76.06,344.68,74.39Z"/><path class="cls-1" d="M319.3,190.31a179.42,179.42,0,0,1,2.23-18.95c.74-3.47,1.33-2.84,1.18,5.67,2.06-11.76,5.93-63.72,6.87-92.86a141.09,141.09,0,0,1-3.3,22.47c-.07,4.32.34,9.42.43,15.22a110.06,110.06,0,0,1-1.26,19.39c-2.33,8-.93-5.71-1.19-14.11a231.34,231.34,0,0,1-2.59,25.25c-1.15,8.28-2.33,17.73-3.13,32.22l2-10.1C320.21,179,319.25,186.17,319.3,190.31Z"/><path class="cls-1" d="M332.42,86l.83-1.89c-.49-2.81-.47-9.19-.44-21.63a133.17,133.17,0,0,0-3,18.72l3,2.47Z"/><path class="cls-1" d="M336.2,84.35c-2.28,17.09-4.38,24.26-5.33,42.91,1.77-1,2.61-14.21,4.45-21.55-1.66,2-1.21-.37-.48-4.48s1.8-9.94,1.18-14.91c.91-2.86,1.55-3.7,2.15-4.36-.34-2.12-.62-4.78-.82-8l0,1.08v0l0,.22c-.08,2.17-.18,3.49-.2,2.25a1.2,1.2,0,0,1-.11.34c-.26,2.35-.53,4.44-.79,6.43-.55-3.63.3-4.43.79-6.43l.31-2.59V75q-2.08,4.53-4.07,9.09C333.69,86.58,334.54,86.18,336.2,84.35Z"/><path class="cls-1" d="M338.65,171.81c.16-1.51.36-2.73.55-4C338.72,169.91,338.45,171.32,338.65,171.81Z"/><path class="cls-1" d="M339.31,161.39c.53-2.34,1.72-9.12,2-7.3-.31,5.18-1.29,8.15-2.14,13.76,1-4.48,3.14-12,3.36-20.49l-.54,2.3c0-6,1.71-27.47,2.22-29.8C342.31,135.28,341,146.23,339.31,161.39Z"/><path class="cls-1" d="M338,127.26q-1.65,4-3.23,8.11l-.69,14.94,1-8.9C335.92,145.05,337,134.08,338,127.26Z"/><path class="cls-1" d="M330.08,72.49l1.79-18.13q-1.81,12.77-3.53,25.54Z"/><polygon class="cls-1" points="326.52 74.4 327.73 58.65 326.16 68.09 326.52 74.4"/><path class="cls-1" d="M209,281.11l.59,4.46C209.44,284.19,209.22,282.69,209,281.11Z"/><path class="cls-1" d="M212.29,281.48l-1.63-7.63A70.45,70.45,0,0,0,212.29,281.48Z"/><path class="cls-1" d="M253.13,77.58c-2.18-14.65-5.31-37.39-3.61-19.66l1.83,17.25C251.72,72,252.39,73.89,253.13,77.58Z"/><path class="cls-1" d="M222.93,185.67c.35,1.67.71,3.42,1.07,5.15-.77-5.9-1.48-11.43-2.14-16.45C222.19,177.78,222.55,181.63,222.93,185.67Z"/><path class="cls-1" d="M234,256.62l-2.7-10.9C232.15,249.53,233.05,253.19,234,256.62Z"/><path class="cls-1" d="M197.05,303.15l4.23,17.15C202,320,199.3,311.53,197.05,303.15Z"/><path class="cls-1" d="M294,80c-1-6.78-1.69-9.62-2.31-10.45C292.91,79.51,293.93,94.45,294,80Z"/><path class="cls-1" d="M169,101.36a86,86,0,0,0,1.85,10.39A70.44,70.44,0,0,0,169,101.36Z"/><path class="cls-1" d="M289.2,69.69c.19,1.74.36,2.6.54,4.06.54-2.92,1.12-5.27,1.92-4.18C290.74,62.19,289.72,57.61,289.2,69.69Z"/><path class="cls-1" d="M134.65,310c-.34-.67-.55-1-1-1.85C134.63,310.33,134.73,310.41,134.65,310Z"/><path class="cls-1" d="M41.2,160.44a1.53,1.53,0,0,1,.35-1.67C40.85,157.77,40.62,158,41.2,160.44Z"/><path class="cls-1" d="M313.51,66.18c.73-1.11.17-1.9,0,0Z"/><path class="cls-1" d="M314.16,134.89c-.2,1.92-.4,4.42-.57,8.42C313.8,139.15,314,136.5,314.16,134.89Z"/><path class="cls-1" d="M286.92,177.82s0-.07,0-.06C287.15,181.15,287.1,180.49,286.92,177.82Z"/><path class="cls-1" d="M314.29,74.1a39.38,39.38,0,0,0-.71-5.17A46.89,46.89,0,0,0,314.29,74.1Z"/><path class="cls-1" d="M314.43,65.9c.21.79.39,1.23.55,1.7C315.17,64.73,315.16,62.9,314.43,65.9Z"/><path class="cls-1" d="M312.5,67.1c.41-.27.76.55,1.08,1.83a17,17,0,0,1-.07-2.75A4.25,4.25,0,0,1,312.5,67.1Z"/><path class="cls-1" d="M150.36,254c-.2-.46-.41-1-.63-1.5C151.67,259.41,151.48,258.26,150.36,254Z"/><path class="cls-1" d="M257.63,258.2l-.05-.81-.13-.63Z"/><path class="cls-1" d="M257.58,271.2c-1.82-21.52-1.12-18.93-.13-14.44l-6.09-49.65Z"/><path class="cls-1" d="M202.8,287.78l4.76,14.91c5.05,25.19,2.18,16.78,8.35,37.82-6.58-26.36-6-27.93-5.41-29.5s1.16-3.13-5.13-29.55l3.33,11c-.31-.46.4,2.64.1,2.19,7.28,25-8.2-38.44-4.65-31.37A102.11,102.11,0,0,1,209,281.11l-1.71-13.38c.63,1,2.64,10.17,2,9.24l1-4.67.34,1.55c-1.59-8.35-3.78-21.36-4.65-26.91,2.22,7.51,1,5.68,2.57,12.24l-1.66-13.09c3.49,13.68,5.46,27.2,4.26,25.4,6.4,26.36,5.85,23,4.89,16.82s-2.34-15.14,2.08.11l.45,6.94c7.15,30,5.54,18.89,10.55,37.45C228,327.93,225,316.2,222,304s-6-24.81-6.76-31.57c1.19,3.93,2,5.73.43-5.11,4,18.92,3.62,14.11,4.18,12.88L225,305.31c-.69-7.39-3.36-20.14-5.16-31.52,1.47,2.29,5.57,21.67,9,38,1.09,1.86-.69-5.89-2.68-14.73s-4.19-18.77-3.75-21.32c3.17,9.37,2-1.05.71-16.41,2.56,8.52,2.75,15.43,4.44,22.56l-3-20.22c.29.45,1.38,6.61,1.93,9.73-.78-7.92-4.65-25.16-4.78-32.19-2.41-13.89.06-3.89,2.52,5.64s4.89,18.6,2.8,2.73c1.59,7.11,2.55,15.47,4.38,25.22-.89-10.51-1.27-15-1.61-19-.44-4.72-1.09-10.32-2.64-24.39l4.12,16.34c-4.14-18.78-6.64-41.41-8.38-60.05-1.88-9.09-3.54-17-4.41-20.84l-.13-13.9c.92,4.11,2.1,12.83,3.47,23.44-.22-2.26-.43-4.41-.6-6.13,2.22,9.22,4.16,23.87,6,38.06-1.07-5.17-2.15-10.38-3.21-15.48,2,15.43,4.38,32.49,6.9,47.26a57,57,0,0,1-.53-6.93c.56,4.2,1.09,7.93,1.56,10.44s-.24-3-1-9.47l4.94,28.1-1.7-11.2q2.53,8.62,5,17.25c-2.88-28.64-7.64-70.63-6.33-82.7,2.25,20.81,4.71,33.84,8.18,58.38-2.22-12.94-2.36-10.11-2.17-4.69s.72,13.44-.34,10.91c1.11,2.64,2.7,14.36,3.14,18.41q-.63-11.94-1.13-23.91c2.85,20.08,2.68,15,4.46,23.19-6.12-39.61-2-26.68-2.62-39,1.87,13.31,3.49,27,1.88,23.89,2.72,14.86,1.5,3.15.27-9.12s-2.49-25.12-.13-12.51c-.26.35-.7-1.66.09,5.15-.88-12,2.09-2.79,3.17,8.86l-.25.31c1.27,2.21,2.73,2.1,3.43-2.77s.66-14.56-1.15-31.48c.53,4.4,4.48,40.77,5.18,47.62q-5-57-9.11-114.17c1.41,14.55,4.36,39.07,6.92,62s4.77,44.38,4.91,52.69c.92,4.09,2,8.86,1.8-1.52-.73-4.1-5.31-41.91-5.14-44.63,2.36,16.1,3,20.4,3.65,24.11s1.25,6.8,3.38,20.51c-1.11-6.15-5.28-51.81-4.3-50.44.56,6.83,4.59,45,4.8,49.76q-1.36-22.5-2.54-45c.29,8.1,3.63,38,5.24,50.6-1-8.77,1.62.67,1.68-3.8l-1.74-10.34c2.65,6.61-3.59-63.17-1-61,.48,9.27,4.2,57,5.71,62.58-.72-11.5-2.47-39.15-3.82-66.17s-2.32-53.42-1.8-62.37l1.41,13.1.69-15.09c.56,15.34,1.52,42.28,2.53,70.36.91,24,1.85,48.89,2.48,65.67,1.6,10.33,1.46,15.49,2.47,14.18,1.34,12.28.87,18.71.63,19.47l3,7.73c-2.11-26.84,0-27-1.67-49.38q-.51,14-.83,28c-1.07-13.38-2.12-32.44-2.52-47.59s-.16-26.37,1.06-24.09c1.24,10.67,2.86,47.79,3.54,56.74-.4-9.24.63-17.75,1.23-11.21l.14,14.4c.84,5,.68-3.91.7-10.89s.23-12,1.63.75c.56,1.7,3.27,34.49,2.43,18.61-2.38-30.6-8.15-125.34-8.84-148.39.35,2.06,4.55,29.11,5.87,44.23,1,12,1.43,26.33,1.83,40.24s.8,27.39,1.65,37.69c-.35-7.34-.4-16.42-.37-19.35.79,6.25.95,22.75,1.8,19.37-1.15-27.21,2.22,2.17-.62-23.05.69-7.85,1.37,5.58,2.51,4.3-.57-8.78-.94-23.76-1-37.53s.14-26.32.59-30.25c.19,6.93.79,16,1.06,20.07,2.44,2.37,4,14.73,6.11,14.9.36,6.59,1.48,14.57,1.31,26.31.18-4.84.26-14.09.88-14.74,1.56,23.54-1.28,3.67.12,32-.23-15.84,1.12-21.91,1.9-31.81-.56-24.48-2.19-4.67-2.82,5.23-.34-16.87-.3-34.14.18-49.16s1.4-27.77,2.63-35.6c2-8.4,1,21.8,1.37,17,1.87,2.94,2.66-11.8,3.48-24.22s1.64-22.54,3.27-10.33c.56,10.75.4,21.44.16,31.37s-.58,19.14-.55,26.9c-1.59,8.11-2.24-13.68-3.34-12.81l1.25,10.18c-.54,7.16-1.53,12.56-2.07,6.37.48,9.65,1.88,10.54,3.5,11.32s3.46,1.33,4.46,10.3c.63-7.17,1.68-14.63,1.57-23.28l-.94,3a141.9,141.9,0,0,1,.94-19.48c.53-4.83,1-8.5.54-12.57,1.6-12.15,3.91-31.24,5.44-21.37l-.76,24.51c.3-7.16-.56-14.63-1.37-7.19.6-5.42,1,2.89,1.39,8.57s.92,8.7,2.18-7.31l-.46-17c1-6.12,2.26-15.66,3.53-22.68s2.5-11.54,3.2-7.63c.63-24.22-.57,2.75-.28-25.62-.43,17.64-1.65,17.2-2.78,17s-2.17-.2-2.15,18.35c.14-16.46-.33-20-.87-22.87s-1.13-5.21-1.55-19.26c-.24,8.09.07,15.51-1.41,11.45-.16,2.36-.43,5.35-.6,7.11,0-.2-.06-.35-.09-.61l.06,1c-.11,1.22-.13,1.48,0,.32.26,3.59.41,7.84.36,12.33-1.44,18.53-3.73,17.88-4.75,27.47-.76-3.87.59-9.28.34-17.91l-1.5,14.36c.32-17.95-1.8-29.89.59-40.38l-2-.83c-1-10.09-2.68-14.13-3.73-6.58-.93-3.88-2.4,19.89-1.56,5.82q-1.54,5.57-3,11.13l0-4.47c-1.51-1.14-2.94,6.32-4.39,10s-3,3.6-5-12.58c-.85,4.56-1.66,10.13-3.39,5.09l-.8-15.53c-1.07,5.43-4.3-15.41-4.21.79-1.47-20.87-3.14-23.09-4.69-21s-2.89,8.52-4.16,4.88l1,20.27c-1.5-1-2.58,4.8-3.84,13l1.17,17.88c-.29,7.39-1.4,4.26-2.76-.46s-3-11-4.08-10.06c-.31-6.84.42-5.1,1.12-1-2.79-20.14-3.87-12.71-4.66-3.86s-1.37,19-3.84,4.44c-.09,6.58-.73,4.39-1.55,0a3,3,0,0,0,.08-1c-.09-.19-.19-.25-.29-.21-.54-3-1.13-6.59-1.7-9.42.65,4.32,1.21,7.87,1.57,9.5-.46.41-1,2.69-1.34,7.24l-2-19.15a5.08,5.08,0,0,0-.13.55c-1.37-7,.24,9.13,1.91,23.54-.08,3.17-.07,7,.1,11.64-1.69-15.46-1.93-12.81-2.21-10.41s-.58,4.53-2.55-11.94c1,16.12-2.47,12.43.64,46.37-.47-4.43-.89-6.51-.55-6.84-1.15-3.76-2.33-7.53-2,2.09l-2.91-24.32,1.85,32.92c-2.61-14.72-4-23.3-5.06-42.14.32,14.56.15,17.33,0,20.06s-.27,5.41.38,19.79l-1.74-15.73c-.69.68.67,21.9-1.33,8.95-2.63-14.85-4.87-15.67-7.37-16.08s-5.28-.57-9.47-14.13c3.72,23,2.48,17.93.92,11.56s-3.48-14-.94,3.86c-1.85-10.87-3.39-17-4-26.51-.36,5.5-1.86,1.29-2.93-.5s-1.69-1.14-.13,14c-2-10.9-2-16-3.22-22.49.17,2.4.74,9.61-.52,3.12s-1.09-9.18-1.45-14c-2.16,2.24,3,35.84,7.86,67.34-3.49-14.71-3.76-12.53-1.15,8.26-2.06-10.24-4.51-20.89-3.73-24.82-1-1.39-7.37-14.27-3.1,10.93-1.34-6.36-1.4-1.68-1.09,1.27-2-1.23-2.54-3.49-3.8-.79l1.21,4c4.83,30.49-.13,7-.8,10.95l-.54-3.09c-3.56-10.66-3.43-8-3.33-5.69s.15,4.19-3.79-8l3.81,18.83c3.76,20.28,2,14.43-.63,5.49s-6.1-20.94-5.43-13l2.78,10.64c.92,7-2.48-6.62-6.44-22.6S182,94,180.9,91.55c-1-3.48-.8-5.7-1-8.34-7.71-23.32,4.71,24.65,3.92,30.8-3.15-13.2-6.57-33.87-8.49-36-1.48-5.28-.23,5.71.56,14.88s1.09,16.52-2.64,4c2.67,10.11,5.28,20.2,6.08,28.07-.28,2-3.35-7.45-5.65-13.31s-3.82-8.15-.76,8c-.82-2.77-1.5-5.41-2.09-8,.83,8.51-.27,14.52,3.27,32.06-8.13-32.11-8-23.85-7.38-15s1.52,18.22-5.89-11.44l-2.45,4-1.46-6.07c-3.11-3.38-.19,11,2.82,25.35-1.52-3.9-2.63-9.52-3.4-12.61-6.11-11.13-5.89-8.47-.32,21.59l-5.48-19.07c1.18,5.65-1.94-1.55-5-7.26s-6.11-9.93-4.41,1.61c-.6-2.2-1.6-5.9-2.13-8.66.76,5.83-.3,5.57-2.05,3s-4.19-7.37-6.16-10.76c-3.94-6.77-6-7.73,3.93,27l3.08,17.66c2.17,2.26,4.35,9.79,6.58,18.13s4.54,17.5,6.81,23.07c.29,4.34-9-20-8.86-23.95l1.26,3.39c-10.62-36.1-7.26-11.73-14.87-36.2-2.46,1.71-6.56-1.87-10.88-5.9s-8.79-8.45-11.69-8.32l10.15,27.45-2.3-1c-2.69-6.25-8.18-21.41-6.48-20.7C101.33,113.66,109.91,143,112,149c-3.18-5.14-5.8-13.26-7.71-20.15s-3.11-12.57-3.62-12.76l-.35,2.44,1.38,3.14c3.12,11.58,7.3,23.56,5.31,22.76-2.94-5.19-6.59-16.82-7.35-17.73-.71-2-1.17-2.85-.89-.6l-3.15-1.51,8.81,21.38c2.92,11.06-2.48-.39,7.51,23.83-7.64-18.7-11-21.34-13-20.74s-2.74,4.47-5.44-1.2c4.68,16.25,3.3,16.46.92,15.22,2.17,4.32,11.87,28.4,9.38,26-19.19-50-11.07-20.64-26.65-56,10.61,23.31-1.78,7.5,13.57,40.48C87.89,170,83,155,77.35,143.7c2.51,10.21-.31,7.74-3.95,3.76S65.29,138,64.88,142c2.74,6.5,7.57,16.11,11,26.05Q68,152.24,60,136.53c.64,3.46,15.63,37.47,4.55,15.65,2.57,5.34,6.41,13.39,6.86,15.65-10.27-14.16-11-6.11-13-1.6-1,2.28-2.48,3.65-5.8,1.11s-8.56-9.09-17.39-22.7C42.1,156.45,42,158,41.55,158.77c1.89,2.69,7.6,15.61,11.88,24.15q-7.18-11.23-14.52-22.4c11.24,24-2.29,3.12,8.76,25.89l-1.17-4.52c6.11,13.65,14,28.27,22.35,43.83s17.27,32,25.72,49.21c-7-15.47-.68-4.58,4.83,4.68s10.21,16.88.5-5.42c3.79,6.87,5,11.28,9.12,19.17-6.72-15-7.64-18.34-3.49-12.18l1.65,3.72c1-5,9.17,9.18,16.58,17.62l-8.11-17.12c1.71,2,4.32,7.34,6.59,11.53-11.15-26.5-2.51-.65-15-29.77,8.49,17.32,9.69,16.93,11.16,17.14s3.16,1,12.31,20.94c1.07-.22-9.17-19.92-8.07-20.14l5.05,10.73-5.9-14.09c1.7,2,8,15.47,12,24.65-.63-1,.69,2.76.87,3.62,6.4,12.46.41-5.33,2.51-1.29l-3.83-6.31c-.87-5.66,1.09-5.27,2.38-6.37s1.92-3.71-1.29-15.43l-3.59-8.18c-4.08-16.16,5.4,8.44,4.84.43l.7,2c-2.83-8.45-3.85-12.9-2.82-12.2,3.26,10,8.53,18.49,12,29.6a164.71,164.71,0,0,0-4.91-17.2c-1.77-5.13-4.36-12-9.55-27.83L136.82,261c-4.3-12.76-6.78-19.39-6.9-23.46,3.53,12.28,8.78,20.81,13.69,37,6.95,14.68,4.91,6.75,3.45.56s-2.4-10.57,6.35,11.48c-13-38.94-10-20.59-12.46-29.08-5.24-12.36-9.7-29.12-7.42-25.57,1.2.56,19.49,48.84,21.09,47.41-.26-.12.79,2.82.53,2.7,4.23,9.6-3.36-13.87,3.22,1.85-7.78-23.61,1.6.91-8.74-29l.6,7.59c-.87-4.09-4.14-15-6.19-22.79s-2.89-12.59,1-4.39c1.94,6.07,4.17,14.2,5.35,18.72,3.57,8.66-1-6.16,2.63,2.73,5.09,15,5.11,16.81,4.7,17.77s-1.24,1.1,2.26,12.68c4.93,12.45-5.59-22.38,5.2,10.2-6.82-20.72-5.86-19.57-4.45-17.23S164,286,159.26,270l6,18c-.76-2.88-3.21-11.51-2.67-11.19l7.23,23.53c-2.87-10.1-.89-5.92,1.43-.59s5,11.8,3.66,6.22c-1.81,1.21-7.69-21.55-13-34.4-5.33-25,17.2,46.62,17,37.06.47,2.67-4.93-10.36-7.08-18.93a194.66,194.66,0,0,1,8.1,19.63c.59-4.39-6.27-18.51-9.06-29.9,7.7,21.81-1.93-9.25-3.26-16.59l5.82,18.4c5.91,11.15-11.45-38.56-4.89-24.89l7.07,25.8-1-6.92,6.28,21c-3.72-15.89-2.09-12,.77-6.42-4.19-12.91-10-33.54-9.14-34.45,4,10.76,4.88,17.68,5.51,14.61,3.11,11.66,7.15,26.28,1.45,9.47,1.74,6,3.17,11.66,4.92,17.65,4.47,12.4,2.56,2.34,3,2a18.78,18.78,0,0,1-1.79-4.13q-2.85-13.12-5.58-26.29c2.36,6.86,3.73,12.53,5.09,18.1-.19-2.16-2.4-10.76-2.24-12.5,4.2,15.1,8.73,30.63,10,38l-3-17.23c2,6.51,6.08,17.78,7.43,23.38,1.74,4.3.24-3.18-1.06-10.33s-2.42-14-.13-8.3a78,78,0,0,1-1.67-8c2.26,3,8.27,21.35,4.28.16l8,27c-.24-3.23-2.74-11.73-5.3-20.76s-5.18-18.6-5.47-24c-.77-9.07,6.52,23.08,9,30.54-1.42-6.95-3.6-17.49-4.53-23.56s-.62-7.69,2.8,3.26C204,289.61,202.7,285.66,202.8,287.78Zm12.31-15.66c.54,4,2.6,16.38,0,5.28C210.76,255.72,213.28,266,215.11,272.12Zm16.31-50.24c.74,6.31-.12,3.26-1.7-3.88C229.78,216.39,230.26,217,231.42,221.88ZM305.76,81.72l-.06,1C304.71,75.13,305.06,78.12,305.76,81.72Zm2.07,8.42a67.8,67.8,0,0,0,.26-8.07c-.24,4.87-.74,5.21-1.28,3.83C306.9,91,307.11,94.45,307.83,90.14Zm-206,43.27,2.06,4.62C105,143.56,103.52,138.74,101.85,133.41Z"/><path class="cls-1" d="M232.73,248.4c-.62-3.2-1.22-6.74-1.83-10.32A91.57,91.57,0,0,0,232.73,248.4Z"/><path class="cls-1" d="M196.28,300a2.22,2.22,0,0,0-.11-.22l.88,3.38Z"/><path class="cls-1" d="M284.06,254.17c-.44-2.77-.78-6.25-1.09-9.91C283.2,249,283.55,253,284.06,254.17Z"/><path class="cls-1" d="M321.26,57.78l-1.83,4.93c.81-.91.88,3.32,1.1,6.41C320.72,64.61,320.75,58.08,321.26,57.78Z"/><path class="cls-1" d="M324.52,177.7c.37-2.34.35-.23.73-2.59l.79-8.93C325.27,166.68,324.17,173.84,324.52,177.7Z"/><path class="cls-1" d="M319.22,121.88c-.78,16.23.29,10.76,1.38,7.81-.06.05-.12.19-.16,0C322.1,107.06,320.61,114.47,319.22,121.88Z"/><path class="cls-1" d="M320.84,129.14c.33-.73.64-1.12.86-.35C322.39,119.72,321.47,126.87,320.84,129.14Z"/><path class="cls-1" d="M310.87,79.42c.37,4.18.85-20.73,1-14.13.57-10.31-.48-4.1-1.2,3.37S309.44,84.81,310.87,79.42Z"/><polygon class="cls-1" points="316.9 175.32 317.76 155.29 316.42 171.4 316.9 175.32"/><path class="cls-1" d="M311.41,160.32l1.06,5.62a47.29,47.29,0,0,1,.61-6.8C312.32,158.41,311.58,154.42,311.41,160.32Z"/><path class="cls-1" d="M313.08,159.14c.4.39.81,0,1.18-3.31C314,156,313.51,156.68,313.08,159.14Z"/><polygon class="cls-1" points="314.94 181.24 314.8 177.04 314.01 175.54 314.94 181.24"/><path class="cls-1" d="M297.69,156.32l-1.32,5.75c-.06,6.86.36,11.07.83,8.33C297.47,165.6,298,162.94,297.69,156.32Z"/><path class="cls-1" d="M301.73,211.19c-.3-4.16-.32-8.64-.49-15.23l-.08,24.83Z"/><path class="cls-1" d="M298.34,217c-.08,6.9-1.45,19.81,0,18.23C298.33,228.38,299.43,222.65,298.34,217Z"/><polygon class="cls-1" points="278.61 186.25 278.93 185.91 276.68 145.24 278.61 186.25"/><path class="cls-1" d="M270,284.58c2.09,9.62-1.88-25.08.32-13-.5-9.63-1.81-9.84-2.21-18.16C268.19,263.6,267.29,257.93,270,284.58Z"/><path class="cls-1" d="M268.11,253.39c0-1.61,0-3.57-.11-6.18C268,249.74,268,251.7,268.11,253.39Z"/><polygon class="cls-1" points="27.61 142.71 22.72 135.64 29.55 147.54 27.61 142.71"/><path class="cls-1" d="M39.14,170.71,27.21,147.66l10,21.27C36.88,167.79,36.32,165.57,39.14,170.71Z"/><path class="cls-1" d="M228.05,322.81l-1.22-6.14c-1.49-6.59-1.77-7-2.34-8Z"/><polygon class="cls-1" points="213.75 306.08 214.06 306.56 208.34 283.79 213.75 306.08"/><path class="cls-1" d="M212.61,337.22c.58.88-.34-4.29.24-3.39C213.2,338.1,205.22,308.92,212.61,337.22Z"/><path class="cls-2" d="M344.48,203.77c-.21-1.46.55,15.3.65,18.3C345.17,218.36,344.3,199.43,344.48,203.77Z"/><polygon class="cls-2" points="346.21 165.68 346.26 172.53 346.52 155.76 346.21 165.68"/><path class="cls-2" d="M349.28,166c0-14.28-.36-13.14-.7-9.69s-.68,9.22-1,4.15l-.13-6.54-.11,23C347.89,173.26,348.85,158,349.28,166Z"/><path class="cls-2" d="M349.58,227.72c.18-11.08.4-9.52-.14-3.45v2.81C349.46,226.92,349.51,227,349.58,227.72Z"/><path class="cls-2" d="M349.43,227.08c-.18.8-.08,9.31,0,0Z"/><path class="cls-2" d="M350.41,220.74l-.52,9.91c-.13,6.55,0,8-.22,12.83C350,238.05,350.22,231.53,350.41,220.74Z"/><path class="cls-2" d="M351.35,199.93l-.3,4.19C351,206.87,351,207.85,351.35,199.93Z"/><path class="cls-2" d="M350.47,213l.58-8.84c.11-4.59.38-13.86-.25,3.18C351.09,198.86,350.76,207,350.47,213Z"/><path class="cls-2" d="M350.41,208.61c0-6.22-.16-10.13.43-20C350.07,192.53,349.81,212.59,350.41,208.61Z"/><path class="cls-2" d="M349.73,136.46l-.32-8.39-.41,9.59C349.2,132.91,349.68,145.4,349.73,136.46Z"/><path class="cls-2" d="M351.17,235.57c.27-5.76.78-16.62,1.12-24l-.53,7C351.66,222.74,351.63,226.59,351.17,235.57Z"/><path class="cls-2" d="M352.29,211.61l.87-10.39C352.91,200,352.61,204.94,352.29,211.61Z"/><path class="cls-2" d="M352.5,168.26q-.76,10.92-1.39,21.86Q351.8,179,352.65,168Z"/><polygon class="cls-2" points="351.96 236.38 350.95 250.4 352.53 229.2 351.96 236.38"/><path class="cls-2" d="M352.69,234c-.94,11.61-1.38,19.67-2,26.81.24-2.07,1.1-12,1.95-21C352.12,244.77,352.15,243.48,352.69,234Z"/><path class="cls-2" d="M353.94,226.75c-.31,2.77-.8,7.73-1.29,13C353.05,235.73,353.45,231.63,353.94,226.75Z"/><path class="cls-2" d="M353.56,204.26c-.19,3.68-.72,13.26-.83,17.33l.95-17.07C353.64,204.42,353.6,204.36,353.56,204.26Z"/><path class="cls-2" d="M353.7,204l0,.53c.11.4.19.79.22,1C353.87,205.31,353.81,204.86,353.7,204Z"/><path class="cls-2" d="M353.53,204.19s0,.07,0,.07C353.65,202.57,353.67,202,353.53,204.19Z"/><path class="cls-2" d="M353,183.74c.63-9.54,1.76-19.74,1.85-34.33C354.13,161.09,354.05,169.39,353,183.74Z"/><path class="cls-2" d="M354.6,182.85l-.22-3.93c-.23,4.51-.52,11.1-.88,15.82Z"/><polygon class="cls-2" points="355.14 177.43 354.6 182.85 354.68 184.29 355.14 177.43"/><path class="cls-2" d="M354.73,210.75c.73-7.41.95-8,1.25-9.19.07-3.37,0-5.22-.24-5.16C355.3,201.75,354.48,211.35,354.73,210.75Z"/><path class="cls-2" d="M354.37,206l.1-1C354.55,203.52,354.56,203.08,354.37,206Z"/><path class="cls-2" d="M357.87,201.85c.1-1,.2-2.07.29-3.09-.1,1-.2,1.93-.31,3Z"/><path class="cls-2" d="M356,193.21c.08-3.31-.34.86-.81,6.07a10.77,10.77,0,0,1,.6-2.88C356,194,356.07,192.37,356,193.21Z"/><path class="cls-2" d="M355.05,218.81c.26-3.58.45-6.61.6-9.37C355.26,214.82,354.63,223.24,355.05,218.81Z"/><path class="cls-2" d="M354.18,209.71l-.07.76C353.9,214.1,354,212.34,354.18,209.71Z"/><path class="cls-2" d="M354.18,209.71c.34-3.67.65-7.06,1-10.43-.2,1.37-.42,3.19-.67,5.71C354.38,206.45,354.27,208.22,354.18,209.71Z"/><path class="cls-2" d="M370.51,92.85c-1.84,15.74-4.13,30.23-3.08,13.26-1.91,11.74-6.52,63.65-9.27,92.65.74-6.86,1.37-13.22,2.82-22.48.81-8.6,1-20.25,2.9-34.46,1.64-8,.07,5.65-.5,14,.92-9.82,1.92-16.93,3.14-25.19s2.64-17.67,4.19-32.09l-2,10.06C369.19,104.1,370.3,97,370.51,92.85Z"/><path class="cls-2" d="M357.61,197.08l-.34,1.94c-.09,2.76-.56,9.08-1.62,21.45,1-7.69,1.64-13.52,2.2-18.76l-.51-2.28Z"/><path class="cls-2" d="M356.59,199c1.61-17.16,2.77-24.44,4.16-43-.75,1.15-1.71,14.32-2.68,21.74,1.23-4.2-1.05,9.55-1.32,19.32a41.21,41.21,0,0,1-.77,4.51c-.05,2.08-.16,4.7-.33,7.88l.08-1.07v0l0-.22c.16-2.16.27-3.48.19-2.25l.05-.35c.2-2.22.4-4.31.6-6.44a51.75,51.75,0,0,1-.6,6.44c-.08.87-.16,1.71-.24,2.6v.2c.49-3.12,1-6.25,1.54-9.35C357.35,196.61,357.1,197.08,356.59,199Z"/><path class="cls-2" d="M357.32,112.42c0,1.51-.09,2.75-.15,4A17.33,17.33,0,0,0,357.32,112.42Z"/><path class="cls-2" d="M357.33,122.84c-.22,2.38-.66,9.25-.86,7.48,0-5.18.42-8.24.7-13.91a183.78,183.78,0,0,0-1.12,20.73l.21-2.34c.21,5.94-.46,27.44-.69,29.81C356.34,149.1,356.85,138.07,357.33,122.84Z"/><path class="cls-2" d="M358,156.57l1.51-8.35.64-14.91-.64,8.93C359.17,138.69,358.5,149.69,358,156.57Z"/><polygon class="cls-2" points="357.04 210.39 355.08 228.5 358.09 202.94 357.04 210.39"/><polygon class="cls-2" points="357.98 208.3 356.18 224 357.42 214.54 357.98 208.3"/><path class="cls-2" d="M524.42,90.71l4.19-1.78A28,28,0,0,0,524.42,90.71Z"/><path class="cls-2" d="M522.11,85.38l-6.46,4.38C519.31,87.5,522,85.77,522.11,85.38Z"/><path class="cls-2" d="M375.46,210.24c-4.28,14.14-11.28,36-5.74,19l5.33-16.5C373.93,215.69,374.42,213.83,375.46,210.24Z"/><path class="cls-2" d="M431.51,122.81c.93-1.41,1.91-2.92,2.87-4.4-3.5,4.79-6.72,9.25-9.71,13.45Q427.85,127.57,431.51,122.81Z"/><path class="cls-2" d="M473.36,64.46q-2.6,5-5.29,10A87.16,87.16,0,0,0,473.36,64.46Z"/><path class="cls-2" d="M554.6,107.56,571,101C570.38,99.8,562.53,104.06,554.6,107.56Z"/><path class="cls-2" d="M366.4,203.14c-1.11,6.7-1.53,9.52-1.56,10.37C366.61,203.71,369.27,189,366.4,203.14Z"/><path class="cls-2" d="M382.45,183.51l-.45.31Z"/><path class="cls-2" d="M365.39,213.56c.26-1.41.49-2.64.74-4-.74,2.8-1.34,5.07-1.29,4C363.54,220.78,362.73,225.31,365.39,213.56Z"/><path class="cls-2" d="M560.85,171.45l-2,.69C561.14,171.42,561.25,171.37,560.85,171.45Z"/><path class="cls-2" d="M401.65,245.15c-1.1.24-1.26-.07-1.59-.28C399,245.48,399.23,245.69,401.65,245.15Z"/><path class="cls-2" d="M359.71,216.16c-.29,1.1-.29,1.89,0,0Z"/><path class="cls-2" d="M368.42,148.06c.32-1.91.7-4.38,1.26-8.34C369.08,143.83,368.68,146.46,368.42,148.06Z"/><path class="cls-2" d="M390.85,108.56s0,.07,0,.08C391.52,105.3,391.39,105.94,390.85,108.56Z"/><path class="cls-2" d="M360.63,208.32c-.24,2.11-.44,3.89-.55,5.12C360.25,212.11,360.43,210.44,360.63,208.32Z"/><path class="cls-2" d="M359.49,216.45c.05-.67.09-1.19.12-1.69C359.19,217.61,358.94,219.42,359.49,216.45Z"/><path class="cls-2" d="M360,215.26c-.12.27-.07-.55,0-1.82-.14,1.19-.27,2.14-.37,2.72A7.82,7.82,0,0,1,360,215.26Z"/><path class="cls-2" d="M509.64,161.44l-1.53.53C515.11,160.3,514,160.47,509.64,161.44Z"/><path class="cls-2" d="M443.15,43.09c-.09.15-.27.58-.35.73l-.16.63Z"/><path class="cls-2" d="M449.86,31.86C441,51.55,441.61,49,442.64,44.45Q433.88,67.88,425,91.25,437.19,61.46,449.86,31.86Z"/><path class="cls-2" d="M535.44,99.33q6.4-4.55,12.74-9.22c23.48-10.6,16.76-4.45,34.93-16.86-23.87,13-26,12-28.13,11s-4.44-2.06-27.71,11.92q4.59-3.45,9.14-7c-.26.58,2.49-1,2.23-.46,10.46-7.83,1.81-3.15-8.72,2.83s-23,13.23-20.46,10a65.4,65.4,0,0,1,15-10.93Q518.14,93.4,512,96.24c.53-1.12,8.42-6.29,7.93-5.14-1.87-.18-3.67-.3-5.56-.45l1.32-.89L492.24,104c5.86-5.23,4.9-3.07,10.25-7.18q-5.87,3.12-11.63,6.37A141,141,0,0,1,506.2,92.08c4.23-2.56,7-3.65,6.61-2.51,21.42-16.65,18.29-15.15,12.85-12-2.72,1.55-6,3.49-7.25,3.64s-.28-1.45,5.24-7.23l6.78-2.46c11.86-9.87,15.19-13.58,17.25-16.55a76.11,76.11,0,0,1,9.37-12.43c-3.65,3.46-12.12,12.23-21.41,20.7s-19.3,16.72-25.32,20c2.83-3,3.74-5-5.48,1C519.82,72,515.3,74,513.47,73.51l19.62-16.45c-7,3.25-16.72,11.89-26.06,18.69.67-3,15.1-16.62,27.09-28.26.21-2.8-5.17,3.1-11.5,9.59S509,70.66,506,71c2.75-4.27,1.77-5-1.45-3.6s-8.68,5.09-15,9.57a48.06,48.06,0,0,1,8-9.06,71.33,71.33,0,0,0,7.8-7.64q-7.73,6.72-15.3,13.59c.08-.61,4.46-5.08,6.69-7.33-3.23,2.4-7.62,7.06-12,11.55S476,86.9,473,88.88c-9.71,10.22-3.27,2.16,2.36-6,2.83-4,5.47-8.11,6-9.75s-1.12-.83-6.68,5c4.17-6,10.23-11.89,16.43-19.62C482.89,65.38,480,68,476.53,71.24s-7.39,7.37-16.83,17.93q4.33-7.28,8.37-14.71c-5,8.23-11.39,16.54-17.86,24.73s-13,16.22-18.7,23.62c-5.09,7.77-9.67,14.49-11.85,17.69q-4.35,5.33-8.45,10.85c2.31-3.51,7.27-10.78,13.46-19.49l-3.62,5c5-8,13.3-20.25,21.78-31.78-2.65,4.3-5.53,8.85-8.45,13.36,9.16-12.57,19.6-26.26,28.19-38.55A46.84,46.84,0,0,1,457.89,85c2.55-3.37,4.81-6.38,6.21-8.53s-2,2.2-6.08,7.35Q465.9,71.94,473.63,60l-6.52,9.26c2.3-5.63,4.43-11.36,6.44-17.12-9,11.28-19.32,25.77-28.22,38.67S428.94,115,425.25,119.63c5.24-9.06,9.42-16.5,13.72-24.44S447.72,78.86,453.69,68c-5.85,11.75-4,9.6-.61,5.32s8.35-10.67,7.91-7.84c.48-2.93,6.67-13,9-16.35-5.31,6.08-10.38,12.35-15.27,18.72,9.95-17.67,6.67-13.69,9.75-21.54C446.06,81.88,449.58,68.57,442.94,79c5.95-12,12.42-24.21,12.55-20.46,6-13.87,0-3.73-6,7s-12.12,22.13-7.22,10.27c.46-.13-.27,1.8,2.88-4.29-3,5.18-3.9,5.45-3.41,3.1a60.79,60.79,0,0,1,5.06-12.52l.48-.08c-.1-1.36-.59-2.26-1.48-2.35s-2.21.6-3.87,2.49c-3.38,3.74-8.15,12.19-14.68,27.91C428.87,86,443,52.24,445.78,46Q421.87,98,400.67,151.19c5.31-13.61,14-36.72,22.22-58.34s15.93-41.7,19.91-49c1-4.08,1.92-8.93-2.83.33C438.92,48.2,425.9,84,424.56,86.35c5.19-15.42,6.45-19.59,7.51-23.2s1.88-6.67,5.79-20c-.79,3-5.25,15.27-9.51,26.55S420.08,91.32,420,90.51c2.4-6.4,15.08-42.61,17-47q-8.61,20.81-16.73,41.8c3.05-7.52,12.6-36,16.27-48.2-2.67,8.41-1.48-1.36-3.4,2.7L430.61,50c0-3.58-5.48,11.25-11,26.67s-11.12,31.39-11.52,30c3-8.79,18-54.3,18.62-60-3.71,10.9-12.55,37.16-21,62.83S389,160.24,386,168.62L389.57,156q-2.52,7.08-5,14.18c5.06-16.58,13.11-42.26,21.32-67.07S422.44,54.32,427.34,41c2.31-10.21,4.39-14.93,2.8-14.15,3.15-11.95,6.18-17.68,6.8-18.25q-.37-4.3-.82-8.58c-7.58,25.81-9.95,25.19-16,46.75q5.32-13,11-25.84c-3.83,12.87-9.81,31-14.74,45.33s-8.82,24.84-8.94,22.35c1.27-5.21,4.63-16.7,8-28s6.77-22.27,8-26.59c-2.84,8.8-6.66,16.48-5.06,10.11L423,30.54c.81-5-2.07,3.42-4.39,10s-4.1,11.32-1.4-1.25c0-1.77,7.52-33.82,3.36-18.48-7,29.9-31.59,121.58-37.73,143.8.5-2.31,7.35-33.81,9.47-43.53,2.69-11.73,6.38-25.58,10.06-39s7.32-26.41,9.57-36.5c-1.85,7.12-4.47,15.81-5.33,18.6,1.1-6.2,5.76-22,3.95-19-6.75,26.39-1.4-2.7-6,22.26-2.74,7.35.4-5.71-1-4.78-1.87,8.6-5.6,23.11-9.09,36.42s-6.75,25.42-7.95,29.16c1.6-6.75,3.47-15.6,4.3-19.64-.93-2.72.84-15-.65-15.57,1.22-6.49,2-14.47,4.73-25.91-1.22,4.69-3.28,13.71-3.9,14.25C394.65,58,392.91,78,397.75,50c-3.23,15.51-5.72,21.19-8.28,30.76-4.43,24.08.62,4.92,3.37-4.62-3.37,16.53-7.12,33.39-10.47,48s-6.31,27-8.3,34.61c-2.38,8.07,3.63-21.52,2.6-16.84-.39-3.07-3.38,11.38-5.8,23.57s-4.31,22.12-2.88,10c1.53-10.64,3.22-21.19,4.88-31s3.28-18.86,4.46-26.53c2.27-7.87-.9,13.7-.23,12.93l1-10.15c1.49-7,3.07-12.22,2.32-6.06,1.4-9.55.6-10.62-.36-11.54s-2.08-1.63-1.67-10.6c-1.4,7.06-3,14.4-4,23l1-2.88c-2.14,17.2-4.41,23.59-5,31.69-2.39,12-5.53,30.86-4.9,21.07l3.09-24.33c-.91,7.11-1.42,14.53-.19,7.16-.9,5.38-.07-2.88.34-8.52s.42-8.66-1.78,7.25l-1.64,16.92c-1.06,6.08-2.54,15.56-3.65,22.56S359.76,198,360,194.13c-2.64,24.08.48-2.73-2.63,25.44,1-8.76,1.55-13,1.89-15.1s.47-1.92.59-1.83.24.12.61-2.16,1-6.89,2-16.09c-1.92,16.32-2.26,19.79-2.49,22.66s-.38,5.14-2.16,19.07c1.12-8,2-15.37,1.79-11.36.3-2,.78-5.08,1.08-7l-.06.6c0-.34.08-.61.12-.95.19-1.2.23-1.46,0-.32.42-3.55.94-7.76,1.54-12.21,2.79-18.36,3.49-17.67,5.2-27.14-.28,3.85-1.52,9.17-2.66,17.72l2.57-14.16c-2.67,17.75-4,29.58-6.14,39.91l.3.85c-1.35,10-1.78,14-.31,6.57-.5,3.85,3.91-19.51,1.31-5.68q1.29-5.43,2.66-10.84l-.8,4.4c.14,1.18,1.87-6.05,3-9.57s1.61-3.32-1.32,12.65c1.15-4.39,2.59-9.75,1.91-4.69l-3.27,15.2c.71-2.61.06,1.23-.34,3.74s-.54,3.69,1.35-4.17c-4.59,20.4-4.95,22.67-4.23,20.77s2.54-8,1.81-4.34l5.05-19.65c0,1.19,1.77-4.32,4.36-12l4.64-17.31c2.16-7,1.67-3.87.71.83s-2.38,11-1.79,10.19c-2,6.58-1.61,4.81-.59.78-5.2,19.6-2.9,12.6,0,4.34s6.37-17.76,2.33-3.56c2.14-6.19,1.62-4,.38.3a7.51,7.51,0,0,0-.34.9c0,.19,0,.26,0,.25-.85,2.91-1.75,6-2.68,9.15,1.27-4.17,2.3-7.61,2.74-9.21a55.54,55.54,0,0,0,2.74-6.58l-5.89,18.33c.09-.23.09-.18.21-.5-2.06,6.8,3-8.61,7.41-22.43,1.09-3,2.38-6.55,3.92-10.92-4.8,14.79-3.86,12.34-2.95,10.15s1.75-4.12-3.53,11.6c2.66-7.63,3.87-10.43,5.86-15.33s4.72-11.89,10.56-27.89a66.06,66.06,0,0,1-2.37,6.44c-1,3.74-2.15,7.45,1.39-1.47l-8.43,23q5.92-15.36,12.1-30.62c-5,14.09-8.16,22.16-15.08,39.68,5.39-13.47,6.58-15.94,7.66-18.41L399.68,158l-6,14.63c.19-.24,2.4-5.25,4-8.65s2.49-5.23,0,.82c-5.7,13.94-5.89,15-6,15.79a3.66,3.66,0,0,1-.17.75c-.14.35-.37.88-.79,1.77l-.81,1.63.56-1.11c.43-.81.85-1.59,1.26-2.32l-.12.21,1.22-2.24-.56,1-.2.36-.1.19v0l.07-.13.15-.27,1-1.74c.17-.3.59-1,.11-.18l.93-1.61.74-1.24,1.25-2-.14.22.53-.83-.39.6,1.16-1.78,5.41-8c-1.76,2.62-3.22,4.8-4.5,6.69-.32.48-.15.23-.15.23l.08-.12.16-.23,2.12-3c2-2.84,4.34-6.06,7.1-9.92L403,163.82,399,169.3l-.39.55.5-.71.38-.51.1-.13,0,0v0h0c-.08.11.19-.24-.18.25l0,0-.08.12-.41.55-.13.16-.08.09v0h0l0,0,.74-.91-1.19,1.43-.21.26-.06.08.11-.13.47-.52,2.73-3.14c10.17-11.59,11.42-12.78,10.38-11.48s-4.38,5.12-3,3.83l-2.14,2.29c-7.46,8.23-5.72,6.27-4.08,4.69.8-.8,1.54-1.53,1-.9s-2.42,2.59-6.94,7l13.68-13.47c14.7-14.48,10.64-9.94,4.08-3.4-3.27,3.27-7.17,7.07-9.54,9.36s-3.2,3.08-.22.48q4-3.69,8.05-7.45c5.31-4.65-4.93,5-17.28,15.8l-2.72,2.38-.26.22-.46.38.07-.07.27-.22-1.36,1.16-.53.44c-.2.16-.8.64-1.5,1.16-.32.23-.8.62-1.21.93l-1.15.87,4.74-3.46c.77-.54-.83.66-3.28,2.41l-3,2.12-.53.35-1.17.84-.53.36-.24.17,3.5-2.35L382,183.82l-.32.21,2.5-1.64c1.68-1.1,3.41-2.2,5.41-3.45,4-2.52,9-5.5,16.64-10.16-28.05,17.64-21.28,13.27-13.64,9.07s16-8.36-10.69,6.54c1-.45,2-.89,3-1.3L379.42,186c-3.49,2.06,9.54-4.64,22.73-11.07-3.66,2-8.81,4.48-11.65,5.91-5.38,3-7.53,4.14-4.84,3s10.19-4.62,24.18-10.66l-18,8.41c5.26-2.35-1.67,1.16-7.34,4s-10.06,4.92.74.77L377,189.77c5.43-2.08,5-1.65,2.39-.36s-7.53,3.44-11,5c-7,3.12-8.37,3.73,25.53-8.67,5.64-1.84,11.31-3.66,17-5.39,2.44-1.49,9.79-4.17,18-7s17.13-5.78,22.63-8.14c2.11-.42-2.88,1.83-8.86,4.21s-13,4.9-14.84,5.22l3.37-1.32c-17.74,6.26-20.76,7.75-22.36,8.71s-1.8,1.44-13.92,5.6c.61.29-.13,1.13-1.6,2.13-.73.51-1.65,1.07-2.68,1.65l-3.3,1.92c-2.3,1.31-4.72,2.6-6.62,3.75s-3.27,2.18-3.5,2.83l28-8.59-1.35,1.32c-6.45,2.16-21.89,6.72-20.89,5.83-15.83,4.93,13.64-2.92,19.73-4.66-5.5,2.27-13.74,4.51-20.65,6.29s-12.51,3.08-12.79,3.35l2.21-.14,3.26-1.06c11.59-2.95,23.79-6.42,22.63-5.27-5.51,2.09-17.29,5.2-18.3,5.7-2,.58-2.94.91-.75.53L376.16,205l22.09-6.76c11.11-2.58-.85,1.46,24.18-6.22-38.62,11.73-12.65,8.56-24.52,12.56,16.45-3.68,16.37-2.82,14.71-1.21,4.57-1.57,29.52-8.72,26.72-7-51.68,14.2-21.93,7.94-58.81,19.28,24.39-7.72,6.89,1.09,41.47-10.08-4,2-19.27,5.61-31.21,9.74,20.51-3.88-11.63,8.32-4,9.2,6.75-2.06,16.87-5.68,27-8.25q-16.57,5.93-33.11,12c3.48-.42,38.85-11.85,15.93-3.36,5.59-2,14-4.91,16.26-5.25-7.72,4-9.67,6.14-9.14,7.59s3.43,2,5.52,3C413.4,232,414,235,385.64,250.53c12.22-6.14,13.69-6.07,14.42-5.66,2.82-1.67,16-6.75,24.76-10.55q-11.73,6.27-23.33,12.82c12.23-5.07,12.92-4.64,13.47-4.16s1,1,12.55-4.11L423,240.05c13.84-5.66,28.8-12.84,44.77-20.36s32.92-15.4,50.47-23.09c-15.66,6.58-4.36,1.09,5.37-3.49s17.82-8.29-4.8.58c7.16-3.16,11.48-4.56,19.64-8.05-15.25,6.1-18.53,7.09-11.86,4l3.8-1.47c-4.15.42,10.76-6,20.56-10.55L533.15,184c2.27-1.15,7.86-3.18,12.31-4.87-27.25,9.14-1.26,1.35-31.23,11.63,18.08-6.71,18-7.25,18.63-8s1.77-1.83,22.55-8.78c.09-.52-20.8,7-20.72,6.41l11.24-3.79-14.58,4.57c2.29-1.12,16.37-5.79,25.92-8.83-1.11.43,2.74-.67,3.58-.87,13.21-4.51-4.87.35-.58-1.15L553.44,173c-5.51,1-4.68-.12-5.43-.88-.37-.37-1.13-.62-3.28-.45a90.05,90.05,0,0,0-11.62,1.89l-8.54,2.61c-16.3,3.15,9.14-3.78,1.32-3.3l2.05-.52c-8.65,2.1-13.12,2.88-12.26,2.15,10.21-2.43,19.36-6.26,30.69-8.86-17.57,3.14-13.67,2.94-46,10.76l14.25-4.26c-13.06,3.23-19.89,5.1-23.83,5.25,12.47-2.68,21.6-6.64,38.05-10.34,15.36-5.31,7.27-3.84,1-2.72s-10.64,1.88,12.06-5c-19.9,5.09-25.25,7.08-26.72,8s.95.78-3.36,1.72c-12.8,4-29.75,7.57-25.95,5.85.73-.86,50.28-15.34,49-16.8-.14.21,2.87-.63,2.72-.41,9.89-3.5-14,2.63,2.13-2.88-24,6.47,1-1.45-29.38,7.29l7.49-.5c-4.11.7-15.12,3.44-23,5.22s-12.59,2.61-4.18-.65c6.14-1.7,14.34-3.66,18.91-4.67,8.83-3.08-6.17.92,2.89-2.27,15.2-4.46,17-4.43,17.94-4s1,1.11,12.72-1.75c12.7-4.24-22.57,4.55,10.5-4.59-21,5.78-19.84,4.93-17.44,3.64s6-3-10.15,1.16l18.19-5.4c-2.9.64-11.61,2.83-11.26,2.33l23.75-6.47c-10.2,2.51-5.95.67-.6-1.61s11.85-4.9,6.21-3.76c1.29,2.19-21.67,7.32-34.62,12.36-12.54,2.46-.79-1.57,12.85-6.37s29.21-10.26,24.25-10.76c2.72-.3-10.24,5.34-18.87,7.29a188,188,0,0,1,19.49-8.57c-2.29-.6-6.89,1.06-12.35,3.17s-11.8,4.66-17.5,6c21.69-8.1-9.28,1.89-16.58,3.41L537.31,139c10.78-6.68-38.22,12.54-24.83,5.47q12.75-4.07,25.54-8l-6.95,1.11,20.76-7.15c-15.81,4.1-12,2.34-6.75-1.24-12.59,5-32.86,12-33.82,11.25,10.42-4.82,17.3-6.1,14.12-6.72,11.37-4,25.71-8.94,9.41-1.9,5.91-2.15,11.44-3.89,17.31-6,11.95-5.62,1.89-3.47,1.45-4a13.21,13.21,0,0,1-3.89,2.35c-8.65,2.35-17.31,4.76-25.9,7.3a148.13,148.13,0,0,1,17.54-6.78c-2.19.25-10.56,3.23-12.37,3.13,14.58-5.75,29.53-12,36.88-13.51q-8.64,1.86-17.2,3.93c6.24-2.76,16.69-8.7,22.15-10.57,3.88-2.64-3.57-.69-10.65,1.19s-13.77,3.71-8.73.14a52.64,52.64,0,0,1-7.79,2.66c1.17-1.68,5.9-5,7.74-7.11.93-1,1.14-1.78-.16-1.79s-4.13.64-9.23,2.47q12.24-6.94,24.37-14.09c-3.38.42-11,5-19.18,9.56s-17,9.16-22.4,10.22c-9,2.23,20.84-11.88,27.36-16.3-6.54,2.75-16.46,7-22.27,9.17s-7.59,2,1.82-4.61C536.61,97.16,533.28,99.73,535.44,99.33ZM510.08,83.49c3.49-2.09,14.15-8.78,5.36-1.51C497.51,94.94,505.66,88.2,510.08,83.49Zm-59.9,7.16c3.71-5.16,2.45-2.22-1.2,4.13C447.79,95.89,447.86,95.08,450.18,90.65ZM363.77,200.9c.06-.34.1-.58.17-.93C363,207.43,363.36,204.47,363.77,200.9Zm.77-8.38c-.48,2.64-.9,5.31-1.3,8,.8-4.81,1-5.14.92-3.76C364.93,191.75,365.4,188.29,364.54,192.52Zm21.28,8.27,4.81-1.57C396.1,198.11,391.22,199.37,385.82,200.79Z"/><path class="cls-2" d="M468.45,71.19c-1.76,2.75-3.8,5.69-5.88,8.67A57.25,57.25,0,0,0,468.45,71.19Z"/><path class="cls-2" d="M551.57,108.78c-.15.09-.08.09-.19.16,1.07-.44,2.16-.91,3.22-1.38Z"/><path class="cls-2" d="M413.83,35.79c-.38,2.79-1.07,6.21-1.87,9.8C413.14,41,414,37.12,413.83,35.79Z"/><path class="cls-2" d="M357.19,224.61l.93-4.94c-.26.93.23-3.26.55-6.32C358.1,217.83,357.32,224.3,357.19,224.61Z"/><path class="cls-2" d="M366.27,105.47c-.33,2.35-.24.24-.57,2.61l-.81,8.93C365.35,116.48,366.36,109.31,366.27,105.47Z"/><path class="cls-2" d="M364.89,161c2-16.13.93-10.7.21-7.76,0,0,.06-.19.06,0C362.37,175.71,363.59,168.33,364.89,161Z"/><path class="cls-2" d="M365,153.74c-.21.74-.37,1.12-.39.36C363.47,163.12,364.47,156,365,153.74Z"/><path class="cls-2" d="M362.16,203.06c.51-4.13-3.17,20.51-2.24,14-1.58,10.2-.52,4,.73-3.34S363.3,197.75,362.16,203.06Z"/><polygon class="cls-2" points="371.11 107.84 368.83 127.75 371.07 111.74 371.11 107.84"/><path class="cls-2" d="M372.86,122.92l.06-5.63c-.46,3.33-.82,5.25-1.13,6.73C372.13,124.78,372,128.78,372.86,122.92Z"/><path class="cls-2" d="M371.79,124c-.18-.4-.46,0-1,3.24C370.91,127.08,371.26,126.44,371.79,124Z"/><polygon class="cls-2" points="372.94 102 372.64 106.18 373 107.69 372.94 102"/><path class="cls-2" d="M379.83,128l1.85-5.47c1.39-6.72,2-10.9,1.14-8.28C381.72,118.88,380.94,121.43,379.83,128Z"/><path class="cls-2" d="M387,73.5c-.45,4.14-1.21,8.56-2.21,15.07l4.36-24.44Z"/><path class="cls-2" d="M391,68.33c1.36-6.76,5.28-19.12,3.59-17.87C393.18,57.15,391.08,62.58,391,68.33Z"/><polygon class="cls-2" points="398.47 102.2 398.17 102.45 387.97 141.89 398.47 102.2"/><path class="cls-2" d="M440.26,12.91c1.47-9.77-8.11,23.81-5.69,11.79-3.26,9.07-2,9.81-4.88,17.62C433.64,32.9,432.35,38.5,440.26,12.91Z"/><path class="cls-2" d="M429.69,42.32c-.63,1.49-1.36,3.3-2.31,5.74C428.39,45.73,429.1,43.91,429.69,42.32Z"/><polygon class="cls-2" points="383.09 257.34 375.79 261.81 387.99 255.56 383.09 257.34"/><path class="cls-2" d="M411.45,246.67l-23.52,11,21.6-9.24C408.39,248.71,406.18,249.25,411.45,246.67Z"/><path class="cls-2" d="M547.56,46.7l-4.9,3.89c-5,4.57-5.08,5.22-5.34,6.6Q542.48,52,547.56,46.7Z"/><polygon class="cls-2" points="546.86 78.6 547.09 77.98 527.68 91.19 546.86 78.6"/><path class="cls-2" d="M582.33,80.2c.51-1.16-4.52.51-4-.67C582.89,79.1,556.49,93.92,582.33,80.2Z"/><path class="cls-3" d="M207.62,296.62c-.44-.59,1.76,2.54,4.3,6.11l3.3,4.65h0l0,.05c-1.68-2.38-2.89-4.11-4.09-5.8C208.48,297.82,206.37,294.84,207.62,296.62Z"/><path class="cls-3" d="M188.26,263.84l3.57,5.84q-4.26-7.23-8.39-14.53Q185.81,259.52,188.26,263.84Z"/><path class="cls-3" d="M190.92,262.65c-7-12.46-6.75-11.28-5.35-8.09s4,8.33,1.19,4.08l-3.39-5.6q5.7,10,11.49,19.94c-.73-1.7-2.83-5.92-4.16-8.94S188.81,259.26,190.92,262.65Z"/><path class="cls-3" d="M216.08,308.75s0,0,0,0h0Z"/><path class="cls-3" d="M216.07,308.73s0,0,0,0Z"/><polygon class="cls-3" points="216.09 308.79 216.09 308.78 216.09 308.79 216.09 308.79"/><path class="cls-3" d="M208.11,291.92l1.75,3.81C211.05,298.21,211.47,299.09,208.11,291.92Z"/><path class="cls-3" d="M213.63,303.74q-1.92-4-3.77-8c-2-4.14-6-12.48,1.33,2.9C207.54,291,211,298.37,213.63,303.74Z"/><path class="cls-3" d="M211.69,299.87c-2.78-5.57-4.71-9-8.92-17.91.67,1.86,3.34,7.24,5.62,11.69S212.51,301.67,211.69,299.87Z"/><path class="cls-3" d="M177,236.62l-4.45-7.13,4.27,8.61C174.69,233.84,181.27,244.46,177,236.62Z"/><path class="cls-3" d="M216.05,308.69h0l-.3-.7c-.91-2.12-1.74-4-2.43-5.67l2.74,6.4Z"/><path class="cls-3" d="M213.33,302.33q-2-4.81-4-9.64C208.76,291.62,210.69,296.19,213.33,302.33Z"/><path class="cls-3" d="M194.63,263.23q4.34,10,9,20-4.67-10.08-9-20.33Z"/><polygon class="cls-3" points="215.97 308.5 215.99 308.53 215.96 308.46 215.97 308.5"/><path class="cls-3" d="M215.9,308.3s0-.05,0,0l-.06-.17Z"/><path class="cls-3" d="M215.8,308l0,.09Z"/><path class="cls-3" d="M210.71,295.39,216,308.54l-5.14-12.94Z"/><path class="cls-3" d="M210.65,295.1l.2.5c.19.35.36.69.44.87Z"/><path class="cls-3" d="M210.67,295.33l0,.06C210.07,293.81,209.87,293.31,210.67,295.33Z"/><path class="cls-3" d="M201.92,276.89c-1.87-4.4-3.71-9-5.84-14.15s-4.55-10.87-7.79-17.41c2.24,5.41,4.29,10,6.44,14.85S199.12,270.27,201.92,276.89Z"/><path class="cls-3" d="M202.56,275.56l-1.8-3.48c1.75,4.15,4.32,10.23,6.09,14.62Q204.66,281.15,202.56,275.56Z"/><polygon class="cls-3" points="200.68 270.45 202.56 275.56 203.21 276.85 200.68 270.45"/><path class="cls-3" d="M213.4,301.21c-2.45-7-2.56-7.65-2.88-8.81-1.16-3.16-1.88-4.86-2-4.74C210.34,292.72,213.57,301.8,213.4,301.21Z"/><path class="cls-3" d="M211.6,296.81l-.33-.92C210.75,294.52,210.59,294.11,211.6,296.81Z"/><path class="cls-3" d="M211.29,292.28c-.28-1-.58-2-.87-3,.27.94.53,1.86.81,2.85Z"/><path class="cls-3" d="M207.47,284.66c-1.21-3.08.14.88,1.9,5.81a19,19,0,0,1-.81-2.81A20.92,20.92,0,0,0,207.47,284.66Z"/><path class="cls-3" d="M215.75,307.85,214.5,304l-1.38-4.16c.71,2.16,1.73,5.29,2.61,8l0,.09h0Z"/><path class="cls-3" d="M212.93,300.32l.26.72C214.47,304.44,213.85,302.78,212.93,300.32Z"/><path class="cls-3" d="M212.93,300.32c-1.3-3.61-2.43-6.73-3.56-9.85.44,1.32,1,3,1.9,5.42Z"/><path class="cls-3" d="M182.91,186.28c2,7.67,3.68,15.11,4.24,18.61s0,3.06-2.88-5c1.18,5.84,5.71,21.18,11,38.56s11.12,36.82,15.19,50.81c-1.88-6.64-3.71-12.76-5.87-21.89-1.21-4.14-2.8-9-4.6-14.43s-3.8-11.67-5.52-18.63c-1.37-8.08,2.31,5.17,4.77,13.17-2.72-9.48-4.44-16.45-6.24-24.6s-3.74-17.47-7.42-31.5c.41,3.41.88,6.8,1.4,10.19C185.73,197.26,184.33,190.18,182.91,186.28Z"/><path class="cls-3" d="M209.64,287.85l.51,1.9c.44,1.3,1.14,3.46,2.17,6.79.55,1.82,1.15,3.75,1.8,5.89.35,1.16.72,2.38,1.1,3.68l.3,1,.13.43h0l-4.41-15.36c-.29-.68-.6-1.37-.92-2Z"/><path class="cls-3" d="M209.87,289.91c-2.66-8.21-4.47-14.08-6.32-20.12s-3.76-12.26-6.76-21.09c-.27,1.35,4,13.84,6.14,21-.34-2.15.36.14,1.6,4.12s3.07,9.59,4.72,14.18c.85,2.82,1.09,3.69,1.27,4.38.72,2,1.58,4.42,2.6,7.44-.14-.4-.23-.68-.34-1v0l-.07-.22c-.69-2.05-1.1-3.31-.71-2.14l-.1-.34-2-6.15c1.19,3.34,1.39,4.22,2,6.15.26.82.53,1.65.81,2.48l.06.19c-.93-3-1.81-6-2.63-9.07C209.37,287.48,209.4,288,209.87,289.91Z"/><path class="cls-3" d="M174.32,211c.64,1.37,1.13,2.51,1.62,3.65A13.16,13.16,0,0,0,174.32,211Z"/><path class="cls-3" d="M179,220.29c.81,2.25,3.4,8.62,2.39,7.15-2.33-4.62-3.25-7.58-5.48-12.8A144.09,144.09,0,0,0,184,233.77l-.84-2.21c1.44,2.6,4.39,8.81,7,14.66s5,11.34,5.4,12.45C189.61,244.34,185.31,234.18,179,220.29Z"/><path class="cls-3" d="M194.36,250.38c-.7-2.73-1.37-5.49-2-8.26q-2.75-6.93-5.59-13.83l3.09,8.4C188.06,233.61,192,243.9,194.36,250.38Z"/><polygon class="cls-3" points="213.66 300.52 215.6 307.37 211.69 293.26 213.66 300.52"/><path class="cls-3" d="M205.68,271l.26,1q-.93-3.57-1.82-7.15Z"/><path class="cls-3" d="M294.55,169l.76-4.42C295,166.62,294.72,168,294.55,169Z"/><path class="cls-3" d="M294.56,167.89,293,175.53Z"/><path class="cls-3" d="M137,274.5c-6.14,4.18-14,9.4-18.35,12.65s-5.2,4.3,2.51-.17l14.86-9a3.4,3.4,0,0,1-1.66,0c-.29-.12-.34-.34-.2-.67A11.19,11.19,0,0,1,137,274.5Z"/><path class="cls-3" d="M251.2,248.67c.82-1.49,1.68-3.06,2.52-4.62-3.15,5-6.11,9.66-8.9,14C246.84,255.11,249,252,251.2,248.67Z"/><path class="cls-3" d="M287.71,186.85c-1.87,3.23-3.69,6.48-5.49,9.75C284.12,193.19,285.93,189.92,287.71,186.85Z"/><path class="cls-3" d="M298.19,150.81l.12-17.65C298.2,149.73,298.22,146.46,298.19,150.81Z"/><path class="cls-3" d="M194.53,222c-.44.65-.82,1.13-1.18,1.58C194,222.8,194.39,222.16,194.53,222Z"/><path class="cls-3" d="M261.54,350.17a59.71,59.71,0,0,0,2.59-10.26A51.69,51.69,0,0,0,261.54,350.17Z"/><path class="cls-3" d="M191.71,225.49l.32-.37c.45-.53.84-.94,1.32-1.58C192.88,224.17,192.33,224.78,191.71,225.49Z"/><path class="cls-3" d="M327,159.8l.83,1.9C326.92,159.51,326.85,159.41,327,159.8Z"/><path class="cls-3" d="M417.91,307.05a2,2,0,0,1-.3,1.91C418.37,309.89,418.61,309.56,417.91,307.05Z"/><path class="cls-3" d="M196.62,224.58c0,1,0,.14,0,0Z"/><path class="cls-3" d="M197.07,230.36l-.06-.55Z"/><path class="cls-3" d="M215.6,206.1s0,.07,0,.08C218.08,203.88,217.59,204.32,215.6,206.1Z"/><path class="cls-3" d="M196.69,226.19c0-.42,0-.89-.06-1.39C196.64,225,196.66,225.45,196.69,226.19Z"/><path class="cls-3" d="M196.68,226l.07,1A8.28,8.28,0,0,1,196.68,226Z"/><path class="cls-3" d="M196.59,223.27c0,.54,0,1,0,1.53,0-.19,0-.27,0-.22C196.61,224.31,196.59,223.92,196.59,223.27Z"/><path class="cls-3" d="M320.32,209.54l.35,1.58C319.83,204,319.86,205.12,320.32,209.54Z"/><polygon class="cls-3" points="277.5 198.99 277.48 199.01 277.51 198.98 277.5 198.99"/><path class="cls-3" d="M278.18,198.42c-.28.24-.44.38-.67.56l.06,0,0,0-4.51,3.72q-9.64,8-19.22,16l12.42-10.24L278,198.61Z"/><path class="cls-3" d="M296,164.13l.68-7.78.37-3.89.17-1.75,0,.23c.22-2.2.31-3.78.19-2.08,0,.13-.15,1.9-.36,3.68l-.16,1.29-.11,1c-.79,6.1-1.28,9.88-1.91,14.72q.7-5.67,1.47-11.33l.26-1.92c-.68,4.71-.87,6-1.25,8.62-1.76,12-4,26.19-3.69,22.34.48-4.14,1.78-11.9,2.9-18.27q-1.17,6.61-2.52,13.21c.1-1.06,1.85-10.33,1.7-9.3-.35,1.42-.66,2.8-1.05,4.2l.32-1.56c-1.7,8.33-4.62,21.19-6,26.64,1.48-7.67,1.32-5.61,2.7-12.22-1,4.27-2.12,8.52-3.21,12.75,1.52-6.89,3.15-13.63,4.27-18.42s1.79-7.61,1.63-6.62c.69-3.2,1.3-6,1.85-8.59.2-.92.39-1.79.56-2.61l0,.09-.07.32c-.65,2.88-1.21,5.37-2,8.73l0,.17,0-.1-.09.35c0-.12.1-.38,0-.16,0-.09,0,0,0,0v0l-1.31,4.67c.32-1.15.62-2.21.91-3.22.12-.43.24-.85.35-1.26h0v0l0,.07-.07.24h0l-.11.36-.16.51-.1.28-.27.76-.17.44-1,2.56-2.07,5.09,2.34-5.84.47-1.15c0-.06.06-.15,0-.07L289.56,184l1.74-4.18c-2.57,6-3.22,7.6-4.38,10.33-2.47,5.77-4.89,11.42-6.44,14.52-5.67,12.9-1.86,3.33,2.07-5.65,1.95-4.49,3.94-8.87,4.59-10.3s-.07.07-3.66,7.22l6.6-13.41-.48.94c-1.3,2.55-2.29,4.45-3.4,6.54-2.22,4.16-4.8,9.16-11.79,21.45q3.78-7.51,7.81-14.87c-4.65,8.39-9.69,17.59-15,26.56s-10.83,17.76-16,25.51c-4.43,8.17-8.19,15.39-9.9,18.86-2.92,3.61-5.92,7.13-9,10.61C234.2,274.39,239,267,244.82,258l-3.5,5.06c4.28-8.47,12.46-20.77,20.11-32.86-2.49,4.4-5.12,9.1-7.71,13.81,8.3-13.15,17.07-28,24.55-40.94-1.5,2.54-2.84,4.7-3.64,5.88,2.19-3.62,4.11-6.86,5.4-9.08s-1.54,2.54-5,8.1l7.3-12.26,3.67-6.11,1.75-2.89,0,0-3.91,6.44,2.3-3.82,1.17-1.9,0-.07,0,0,0,.05-.06.09c-.15.25-.33.5-.48.75l-.25.39-2.59,3.89-3.43,5c-4.63,6.75-9.46,13.55-14.13,19.83-9.34,12.59-18,22.95-22.62,26.83,6.64-8.09,11.81-14.89,17.28-22.07s11.41-14.91,18.78-24.56c-7.95,10.43-6.07,8.36-2.8,4.08s8-10.8,6.46-8.62l2.22-3.2c-.18.26-.39.52-.55.77l-.13.18-1.16,1.56q-1.77,2.4-3.6,4.75l3.92-5.18.4-.53,0,0h0v0l-.12.15-.4.51,0,0-2.5,3.19c-2.83,3.59-4.4,5.5-5.45,6.72-2.08,2.4-2,2.09-6.1,6.68l11.82-13.88,1.19-1.42.34-.42-.39.49-3.3,3.86c-4,4.68-8.17,9.42-10.31,11.75s-2.26,2.27,1.95-2.56c.26-.19-1.05,1.38,3.49-3.75-4,4.46-4.56,4.78-3.05,3s5.12-5.68,9.12-9.94l.19-.2-1.64,1.64c-1.72,1.65-4.38,4.09-8.24,7.48L255.89,218.1,278.63,198l-.18.17-8.16,7.09q-10.85,9.33-22,18.33-22.25,18-45.55,34.74c11.58-8.92,30.7-24.55,48.83-38.88L277.48,199l-.37.29-.43.34.09-.07,0,0,0,0L274,201.69c-8.21,6.35-16.25,12.62-17.37,13.35C269.42,205,273,202.44,276,200.17l.44-.32h0l0,0-.09.07-.32.22.07-.05-6.12,4.34c-9.83,7-19,13.2-18.54,12.59l24.36-16.72-.13.09-1.57,1q-9.35,6.24-18.92,12.16c3.46-2.11,11.44-7.33,19.92-12.83l.2-.13s0,0,0,0h0l0,0-.09.06-.26.16-.12.07,0,0h0l1-.6.07,0,.27-.17,1.08-.66,3.36-2c-1.57.91-3.13,1.85-4.68,2.8,1.54-1,2.91-1.76,4.12-2.48l1.73-1,.4-.22.2-.12.05,0-.1.05-.2.12-1.7,1c-4.85,2.74-11.88,6.65-19.08,10.55-14.38,7.83-29.5,15.45-28.92,14,4.16-2.05,16.85-8.64,29.07-15.14s24-12.85,26.43-14.3c-10.23,5.29-35,17.77-59.39,29.37s-48.53,22.4-56.94,25.4L183,241.4c-4.69,1.8-9.41,3.52-14.08,5.38,15.7-7.35,40.24-18.43,64-29.23,11.89-5.4,23.6-10.76,33.91-15.57l14.29-6.69,11.33-5.45c9.12-5.07,13.86-7.07,12.46-7.13a190.1,190.1,0,0,1,17.58-8.34c1.13-.7,2.19-1.56,3.29-2.32s2.09-1.77,3.14-2.65a258.58,258.58,0,0,1-24.09,10.8,191.18,191.18,0,0,0-21.12,9.17l6.64-2.3,6.58-2.42c4.4-1.57,8.73-3.31,13.06-5-12,6-29.23,14.22-43.08,20.35-6.94,3-13,5.59-17.16,7.13s-6.35,2.05-5.54,1c4.67-2.64,15.42-7.91,26-13s21-10,25.05-12c-8.42,3.84-16.92,5.72-11.22,2.46l13.39-5.39c4.16-3-4.15.33-10.66,2.91-3.27,1.25-6.12,2.27-6.78,2.13s.86-1.44,6.21-5c.57-.77,7.88-5.45,13.24-9.09s8.75-6.28,1.77-2.47c-25.9,16.57-109.52,61.49-129.75,72.55.91-.51,7.25-4.2,14.87-8.94s16.51-10.55,22.85-14.7c10.09-6.57,22.37-14,34.53-20.75s24.06-13.14,32.59-19c-6.35,3.71-14.55,7.68-17.2,8.95,2.44-2,7.32-5,11.12-7.37s6.51-4.28,4.41-4.48C263.1,182,263,180.75,263.24,179.7c.14-.52.4-1-.55-.2s-3.12,2.77-8,6.95c-3.82,1.26-2.93.07-1.45-1.72s3.6-4.1,2.27-4.85c-6.84,5.56-19.35,13.84-30.66,21.69-5.67,3.91-11,7.69-15.39,10.82-3.26,2.39-6.43,4.7-9.22,6.73,5.38-4.37,12.25-10.27,15.32-13,.22-1.63,2.36-4.79,4.06-8a25.88,25.88,0,0,0,2-4.49c.37-1.33.39-2.42-.18-3,2-2.6,4-5.72,6.36-9.32a80.07,80.07,0,0,1,9.25-11.93c-3.63,3.28-9.79,10.19-11.21,10,3-5.14,4.63-7.85,5.87-9.29a5.22,5.22,0,0,1,2.83-2,8.17,8.17,0,0,0,3.58-2.5,65.46,65.46,0,0,0,8-11.1,78.4,78.4,0,0,1-13,12.91c-3.87,3.07-7.32,5.57-10.75,9.26-6.08,10.62-6.16,12-3.53,10,1.32-1,3.29-2.81,5.48-4.76s4.57-4,6.48-5.65c-10.47,13.21-21.82,26.29-30.83,38.3q-1.69,2.24-3.28,4.43l-1.56,2.16-.61.87.05-.06.4-.58.42-.67c.13-.2.26-.42.39-.65.33-.62.39-.71.45-.82s-.06.11,0,0a13.56,13.56,0,0,0,.77-1.77l.12-.39.06-.21v-.06l0,.2-.07.34c-.06.36-.08.44-.06.33.63-3.41,1.18-6.36,1.72-9.26.54-2,.79-2.09.73-1.2a35.69,35.69,0,0,1-.95,4.91c-.26,1.05-.56,2.15-.86,3.19l-.59,2c0,.11-.07.22-.11.33l.52-1.6c.51-1.62,1-3.25,1.39-4.89a47.16,47.16,0,0,1,3-7.66c.72-1.29,1-1,0,1.95,3.35-9,1.92-10.59.2-11.7a7.25,7.25,0,0,1-2.73-2.47c-.91-1.43-1.79-3.83-2.79-8.3-.34,3.6-.67,7.28-.78,11.14s0,7.88.3,12.2c.13-1,.3-2,.5-3,.16,4.33.11,8,.09,11.18s0,5.9,0,8.32l0,1.68c0,.11,0,0,0-.49l.07,1.75.06,1,.09,1.13.12,1.29.15,1.41.2,1.65.26,1.84.07.53,0,.26,0,.14-.4-2.62c.11.7.22,1.46.39,2.55l-.06-.45-.2-1.38c-.14-.92-.27-2-.33-2.68,0,.5.13,1.2.24,2l.19,1.34.05.4-.14-1c-.12-.73-.24-1.46-.35-2.19-.88-5.58-1.87-8.44,1.14,7.33l.4,2.09.1.52V241h0v0l0-.07-.05-.3-.22-1.17-.39-2.33c.18,1.16.4,2.46.66,3.76.14.73.28,1.48.43,2.24l.51,2.54q.66,3,1.33,6.11c.62,2.63,1.23,5.25,1.86,7.93-.76-3.21-.83-3.53-1-4.4l-.43-1.84-.79-3.45c.31,1.39.14.64-.24-1.13-.17-.8-.39-1.79-.62-2.9s-.44-2.09-.64-3.16-.36-1.86-.51-2.67l-.33-1.83c-.14-.89-.16-1,.09.51l-.48-2.84c-.13-.83-.25-1.65-.36-2.5s-.22-1.48-.31-2.31-.17-1.5-.27-2.47c0,.05,0,.35,0,.27s0-.58-.16-2l-.05-.57v0c0-.11,0-.12,0,0l.1,1.38c0-.4-.07-.89-.11-1.47l-.09-1.86c0-.56,0-1.2,0-1.66s0-.81,0-1.06c0-1.13,0,.47,0-.15l0-.69,0-.63.08-.92c0-.26,0-.34-.06.63l.08-.85.09-.76c0-.19.06-.4.1-.62l.1-.53.06-.25v0l0-.12h0v.08l0,.19-.13.4c0,.12-.06.17,0,0-.11.28-.3.8-.52,1.23v0a27.67,27.67,0,0,1-4.39,6.36c-.34.41-.7.79-1.14,1.24s-1,1-1.66,1.67l-.27.27c-.27.25-.61.57-1,.89s-.78.7-1.17,1c-.78.64-1.5,1.26-1.76,1.44l-1.48,1.14c-.65.47-1.38,1-2.14,1.53l-1.13.76-7.49,4.74c-1.21.78-2.38,1.51-3.47,2.17L166,244l-.35.21c-1.61,1-3.2,1.9-4.83,2.82l-6.36,3.62-8,4.41-5.66,3.09-5.25,2.78,15.81-8.43c3.26-1.72,4.25-2.06,3.88-1.74a14.52,14.52,0,0,1-1.43.95c-.72.48-1.66,1.07-2.68,1.7l-3.22,2c-1.08.67-2.1,1.36-3,1.94s-1.59,1.1-2,1.46-.54.67-.25.73c-6.18,3-4.77,1.79-1.11-.2-4.48,2.38-7.36,4.09-9.08,5.18s-2.26,1.57-2,1.72c.62.35,4.44-1,8.68-2.28,2.11-.66,4.29-1.38,6.19-1.94a28,28,0,0,1,4.49-1c1.9-.18,1.26,1.12-4.95,5.18,6.18-2.28,4.5-.68.82,2-.09-.05-.42,0-.94.25a.33.33,0,0,0,0,.43c-2.55,1.78-5.48,3.9-7.76,5.71,3.63-2.45,6.58-4.52,7.91-5.56.67.47,3.18.45,7.68-.74L136.06,278c.28,0,.28.07.62,0-5.51,4.67,8.43-3.62,20.76-11.28a110.06,110.06,0,0,0,10.82-4.45c-13.23,8.18-10.51,7.65-8,7.17s4.73-.84-8.93,8.58c14.19-7.77,14-.68,42.18-19.95-3.62,2.58-5.17,4.05-5.73,3.76-2.52,3.13-4.86,6.49,3.45,1.58q-9.67,7.51-19.27,15.12,14.06-8.69,27.66-18c-10.86,10.29-16.89,16.63-32.79,27,6.4-3.63,10.2-5.81,12.75-7.18s3.83-2,5.09-2.54a40.48,40.48,0,0,0,4.91-2.68c2.41-1.49,6-3.85,11.81-8.09l-11.91,10.42c.62.24,5.18-2.87,8.37-4.95s5-3.09.51,1.65c-5.06,5.61-7.16,9.25-7.7,11.9s.47,4.19,1.62,5.81,2.48,3.18,2.75,6-.47,6.91-3.28,13.55c13.77-18.83,11.16-14.25,8-8.46s-6.75,12.92,4.05-1.56c-6.24,9.09-9,14.81-15.65,21.77,2.41-1.56,3.25-1.27,3.52-.29a20.88,20.88,0,0,1,0,3.86c0,2.33,1.43,2.64,10.86-9.39-5.68,9.52-9.55,13-12.83,18.75,1.61-1.81,6.33-7.31,3.11-1.54S187.21,342,184,345.62c2.44.5,8.27-6.47,15.51-16.93s16-24.43,24.43-37.95c-6.63,13.63-4.57,12.42,6.77-5.21-4.85,9.25-9.35,19.24-13,21.48.1.95-.26,5.13,1,6.32s4-.69,9.9-12c-2.69,5.92.47,2.35,2-.18,1.38,2.39.63,4.61,3.73,3.36l1.17-4c6.87-13.82,7.9-15.25,7.68-13.52s-1.69,6.61-.19,5.24L241.74,295c-1.32,5.5-1.53,7.72-1.32,8.29s.89-.49,1.51-1.46,1.2-1.86,1.26-.94-.39,3.65-1.67,10l6.63-18c7.55-19.2,5.92-13.31,3.68-4.25-1.13,4.53-2.4,9.83-2.91,13.13s-.25,4.59,1.53,1q1.35-5.34,2.76-10.64c2.79-6.51-1,7-5.12,23s-8.6,34.29-8.51,37c-.68,3.55-2.22,5.33-3.52,7.69-.68,6.16-.46,7.77.23,6.61s1.88-5.06,3.3-9.88c2.83-9.65,6.66-22.94,8.84-25.36-1.6,6.6-4.12,14.85-6.11,21.82s-3.38,12.66-2.56,14.2c-.88,5.46,3.77-4.69,7.77-13.1s7.42-15,6-2c.84-5.16,1.68-10.32,2.71-15.1a88.34,88.34,0,0,1,3.68-12.9c1.29-1.64.42,8.26.53,14.63s1.05,9.17,4.8-6.91c-.27,2.87-.65,5.57-1.1,8.14,3-8.11,7.05-13.11,10.29-30.72-4.21,32.86-.61,25.22,2.28,16.81s5.31-17.59,2.42,12.84c1.57-.94,3.09-1.9,4.56-2.9l-.57,6.22c2.53,4.21,4.44-10.34,6-25,.35,4.17-.33,9.87-.54,13.05,1.56,6.24,2.61,8.71,3.67,5.83S294.41,325,296,309.74l.06,19.84c.47-5.76,1.67,2.05,3.42,8.36s4.06,11.15,5.52-.47c0,2.27.08,6.1-.13,8.92.86-5.86,1.95-5.37,3.22-2.49s2.7,8.17,4,11.9c2.61,7.48,4.84,8.86,2.76-27.19q.54-9,.9-17.93c-1.7-2.66-2.18-10.49-2.58-19.12s-.76-18.06-1.74-24c.29-2.15,1.34,3.22,2.28,9.6S315.44,291,315,292.86l-.52-3.58c1.4,18.76,2.59,22,3.73,23.75s2.18,2,3.47,14.71c1.46-.62,3.05.16,4.71,1.68a47.24,47.24,0,0,1,5.26,6.16c3.6,4.75,7.33,9.85,10.25,10.2L336.54,317l2,1.35c1.58,6.63,4.45,22.47,2.9,21.51,1.71,8.12,1.72,4.59,1.14-1.75s-1.76-15.47-2.28-18.59c2.24,5.62,3.5,14.06,4.23,21.17s1,12.9,1.44,13.17l.76-2.33-.84-3.34c-1.15-11.92-3.27-24.44-1.4-23.32,2.09,5.59,3.81,17.66,4.44,18.68.38,2.08.71,3,.82.73,1,.66,2,1.31,3.09,1.94l-5.47-22.46c-1.1-11.4,2.49.73-3.69-24.72,4.69,19.63,7.7,22.75,10,22.35,1.15-.19,2.09-1.22,3-1.46s1.78.27,2.8,3.24c-2.43-16.76-1-16.77,1.41-15.34-1.75-4.52-8.75-29.51-6.57-26.84,6.91,25.89,9.17,31.3,11.26,34.8s3.89,5.11,10.19,23.34c-8.62-24.1,3.09-7.6-9.75-41.62,1.28,1.88,2.84,6.64,4.66,12.41s3.91,12.54,6.39,18.35c-1.49-10.47,1.3-7.84,5-3.78s8.19,9.66,9.08,5.46c-2.48-6.61-6.95-16.37-9.89-26.51q7.31,16,15,31.87c-.2-1.78-3.78-11.3-6-17.6s-3.12-9.42,2.22,1.56c-2.45-5.38-6.09-13.51-6.45-15.83,5.07,7.07,8.07,8.47,10,7.44A5.85,5.85,0,0,0,398.2,308c.58-1.3,1.06-2.78,1.63-4.05,1.16-2.5,2.54-4.3,6.06-2.08s9.08,8.21,18.86,21.06c-7.66-11.3-7.61-13-7.14-14-2.06-2.51-8.48-15.31-13.25-23.65q7.75,10.63,15.91,21.12c-6.38-11.77-5.93-12.76-5.41-13.61s1.1-1.56-5.39-12.65l1.6,4.67c-7.21-13.46-16.25-27.53-25.66-42.53l-7-11.14-7-11.32c-4.67-7.66-9.38-15.56-14.06-23.63,8.06,14.6,1.42,4.45-4.11-4.32s-10-16.13.87,5.22c-3.86-6.59-5.6-10.81-9.86-18.38,7.49,14.33,8.71,17.6,4.83,11.63l-1.81-3.6c.39,4.65-7.56-9.12-13.28-18.05l8,17c-1.39-2-3.92-7.39-6-11.6,5.71,13.11,6.11,13.34,6.7,13.89s1.33,1.38,7.74,15.77c-8.33-17.15-9-17-9.91-17.34S338.37,185,329.85,165c-.25,0,1.87,5,4,10.05s4.27,10,3.94,10.07l-4.62-10.86,5.63,14.16c-1.34-2.11-7-15.79-10.7-25.08.5,1.07-.86-2.67-1.13-3.51-2.76-6.38-2.49-5.21-1.82-2.92s1.75,5.67.89,3.57l3,6.63c1.41,5.45.26,4.69-.25,5.44s-.5,3,2.39,14.75l2.82,8.47c1.83,8.09.77,5.85-.54,2.52s-2.9-7.7-2.54-3.84l-.53-2c2.19,8.62,3,13.09,2.26,12.23-1.2-5.11-2.74-10-4.25-14.95s-3-10.15-4.37-15.81c1.78,8.74,2.5,12.13,3.76,17.41s3.1,12.4,6.59,28.65l-3.85-14.35c2.87,13.14,4.53,20,4.41,24-1.05-6.28-2.53-11.74-4.07-17.71s-3.14-12.45-4.75-20.71c-2.24-7.81-3-9.71-3-8.87a73.63,73.63,0,0,0,.92,7.58c.92,6.27,1.28,10.71-3.83-12.45,7.45,40.38,6.15,22,7.5,30.71,1.6,6.51,3.07,14,3.85,19.48s.94,8.76.18,6.82c-.46-.39-3.38-13.21-6.24-25.81s-5.69-25-6.28-24.49c.17.17-.4-2.9-.23-2.72-1.21-5.1-.79-1.58-.56,1.15s.27,4.67-1.51-3.66c3.9,24.55-1.12-1.24,4.1,30,.11-2.5.23-5,.25-7.49.35,4.16,1.86,15.4,2.68,23.42s.94,12.85-1.31,4.11c-.9-6.3-1.81-14.69-2.29-19.34-1.94-9.15.17,6.24-1.81-3.17-2.45-15.64-2.31-17.42-1.91-18.27s1.06-.81-.61-12.78c-1.34-6.56-.73-.85-.5,2.28s.14,3.65-2.51-13.3c3.34,21.55,2.7,20.26,1.86,17.69s-1.85-6.41.19,10.15l-2.83-18.76c.31,3,1.35,11.86,1,11.44L310,160.41c1.25,10.43.17,6-1,.26s-2.39-12.57-1.89-6.86c.56-.37,1.45,5.28,2.51,12.73s2.25,16.7,3.58,23.52c1.53,25.42-8.05-49-8.23-39.81-.17-2.68,2.22,11.21,3,20-.85-3.84-2.16-11-3.51-20.92-.25,2,.33,6.89,1.12,12.69s1.82,12.53,2.22,18.37c-1.55-11.46-1.4-9.11-.87-3s1.42,16.09,1.5,19.8l-2-19.19c-2.57-12.19,3.63,40.07.73,25.29q-.9-13.34-1.94-26.68l0,6.94-1.85-21.87c.9,16.25.23,12.11-.78,6,1.16,13.52,2.54,34.92,1.86,35.57-1.2-11.4-1-18.31-1.65-15.52-.51-12.05-1.4-27.18.1-9.49-.3-5.09-.79-13.21-1.1-18.29-1.19-13.12-.87-2.94-1.1-2.73.11.71.27,1.75.48,4.45q.36,13.4.41,26.79c-.5-7.24-.61-13.06-.78-18.79-.07,2.13.18,11-.07,12.65-.53-15.66-1.12-31.84-1.25-39.24q.16,8.72.08,17.43c-.08-2.16-.32-7.81-.51-12.64-.17-4.56-.29-9-.35-11.86-.17-4.61,0,3-.12,10.24s-.3,14.13-.41,8c0,3-.09,5.95-.19,8.19-.16-1.78-.23-7.46-.25-10s0-2-.67,8.7l.6-14,.31-6.5,0,.51,0,.74c-.16,2.88-.43,7.89-.69,12.62-.5,9.37-.92,19.27-1.56,24.53-1.06,8.93,1.43-23.93,1.91-31.74-.5,7.06-1.39,17.79-2,23.88s-1,7.54,0-3.86C296.13,162.05,295.76,166.19,296,164.13Zm-3.4,12.07.13-.5c-.67,2.66-1.15,4.58-1.55,6.2a20.54,20.54,0,0,1-.57,2.16C290.78,183.39,291.81,179.28,292.62,176.2Zm-23.51,39.93c3.5-5.3,1.91-2.6-1.74,3.73C266.41,221.13,266.6,220.42,269.11,216.13ZM197,217.4v0C197.13,216.82,197.09,217,197,217.4Zm-.23,1.5c0,.19,0,.18,0,.1l.12-.92ZM347.9,336.54l-1.32-4.89C346.42,326,347.11,331,347.9,336.54Z"/><path class="cls-3" d="M283.52,194c-2.17,3.76-3.59,6.21-5.25,9.07C279.93,200.33,281.79,197.07,283.52,194Z"/><path class="cls-3" d="M298.15,154.07v.23l0-3.49Z"/><path class="cls-3" d="M284.17,171.45a51.08,51.08,0,0,1-7.78,6.36C280.45,175.43,283.72,173.09,284.17,171.45Z"/><path class="cls-3" d="M198.54,240.06l-.4-2.31-.34-2,.65,3.86C198.44,239.5,198.28,238.62,198.54,240.06Z"/><path class="cls-3" d="M182.51,199.92c.56,2.31-.21.34.36,2.67l2.71,8.54C185.91,210.43,184.22,203.37,182.51,199.92Z"/><path class="cls-3" d="M199.47,244.88l.07.31,0,.11,0,.07s0,.13,0-.08l-.3-1.45c-.35-1.69-.51-2.41-.55-2.54a33.56,33.56,0,0,0,.6,3.31c0-.06,0-.19,0,0,1.19,5.19,2.43,10.53,2,8.57-.12-.52-.25-1.11-.44-1.93C200.5,249.66,200,247.28,199.47,244.88Z"/><path class="cls-3" d="M199.4,245.16c.13.74.18,1.14,0,.42C201.52,254.41,199.84,247.43,199.4,245.16Z"/><path class="cls-3" d="M196.6,221.69l0,.69c0,.34,0-.65,0-1.27v-.45Z"/><path class="cls-3" d="M189.74,199.86q2.23,9.76,4.37,19.56-1.56-7.93-3-15.88C190.67,202.31,190.21,201.08,189.74,199.86Z"/><path class="cls-3" d="M195.92,213.79c-.27-1.85-.64-3.68-1.07-5.51.34,3.35.45,5.3.54,6.8a18.94,18.94,0,0,1,.58,1.81C196.08,217.23,196.11,216.74,195.92,213.79Z"/><path class="cls-3" d="M195.39,215.08c-.21-.35-.35.11,0,3.37A17,17,0,0,0,195.39,215.08Z"/><path class="cls-3" d="M190.11,193.65l1.08,4.06c.34.42.68.87,1,1.31C191.55,197.21,190.85,195.42,190.11,193.65Z"/><path class="cls-3" d="M197.07,217.69a50.68,50.68,0,0,1,3.21-4.75c1.87-2.88,3.34-5.23,4.09-6.61s.8-1.78-.05-.7A134.38,134.38,0,0,0,197.07,217.69Z"/><path class="cls-3" d="M214.67,165.69c-.48,4.24-2,8.47-3.89,14.78l8.82-23.22Q217,161.42,214.67,165.69Z"/><path class="cls-3" d="M226.42,164.59c1.79-3,5.41-6.58,8.12-9.49s4.29-5.29,1.41-6c-1.89,2.85-4.41,5-6.37,7.39A11.85,11.85,0,0,0,226.42,164.59Z"/><path class="cls-3" d="M227.22,209l-.46-.14-35.23,20.44Q209.34,219,227.22,209Z"/><path class="cls-3" d="M291.41,191.32l9.06-5,8-4.25c-8.51,4.52-8.78,4.69-16.1,8.65l2.8-1.49.88-.47-1.42.79-3.29,1.8C290,192.13,289.84,192.19,291.41,191.32Z"/><path class="cls-3" d="M292.34,190.74l-5.45,2.88C289.13,192.46,290.85,191.54,292.34,190.74Z"/><polygon class="cls-3" points="432.98 323.14 438.52 329.63 430.69 318.3 432.98 323.14"/><path class="cls-3" d="M419.28,295.24l13.88,22.28-11.77-20.83C421.79,297.87,422.52,300.18,419.28,295.24Z"/><path class="cls-3" d="M292.6,176.27v0l.05-.17Z"/><polygon class="cls-3" points="296.1 159.64 296.06 159.9 296.1 159.66 296.11 159.6 296.11 159.57 295.93 160.76 295.03 166.56 295.9 160.89 296.12 159.49 296.12 159.5 296.12 159.53 296.1 159.64"/><path class="cls-3" d="M297.82,143.53c-.06.77-.12,1.67-.18,2.45Z"/><text class="cls-4" transform="translate(0 271.48) scale(0.83 1)">&lt;</text><text class="cls-4" transform="translate(543.93 142.35) rotate(180) scale(0.83 1)">&lt;</text></g></g></svg>